%TF.GenerationSoftware,KiCad,Pcbnew,(5.1.7)-1*%
%TF.CreationDate,2020-12-23T12:42:28-08:00*%
%TF.ProjectId,Sine_Dimmer,53696e65-5f44-4696-9d6d-65722e6b6963,1.0*%
%TF.SameCoordinates,PX544c140PY8fe2f60*%
%TF.FileFunction,Copper,L2,Bot*%
%TF.FilePolarity,Positive*%
%FSLAX46Y46*%
G04 Gerber Fmt 4.6, Leading zero omitted, Abs format (unit mm)*
G04 Created by KiCad (PCBNEW (5.1.7)-1) date 2020-12-23 12:42:28*
%MOMM*%
%LPD*%
G01*
G04 APERTURE LIST*
%TA.AperFunction,Profile*%
%ADD10C,0.050000*%
%TD*%
%TA.AperFunction,ComponentPad*%
%ADD11O,2.500000X4.500000*%
%TD*%
%TA.AperFunction,ComponentPad*%
%ADD12R,2.500000X4.500000*%
%TD*%
%TA.AperFunction,ComponentPad*%
%ADD13C,2.300000*%
%TD*%
%TA.AperFunction,ComponentPad*%
%ADD14R,2.300000X2.000000*%
%TD*%
%TA.AperFunction,ComponentPad*%
%ADD15R,3.000000X3.000000*%
%TD*%
%TA.AperFunction,ComponentPad*%
%ADD16C,3.000000*%
%TD*%
%TA.AperFunction,ComponentPad*%
%ADD17R,2.000000X2.300000*%
%TD*%
%TA.AperFunction,ComponentPad*%
%ADD18C,5.000000*%
%TD*%
%TA.AperFunction,ComponentPad*%
%ADD19C,3.600000*%
%TD*%
%TA.AperFunction,ComponentPad*%
%ADD20C,3.100000*%
%TD*%
%TA.AperFunction,ComponentPad*%
%ADD21C,2.400000*%
%TD*%
%TA.AperFunction,ViaPad*%
%ADD22C,0.800000*%
%TD*%
%TA.AperFunction,Conductor*%
%ADD23C,0.500000*%
%TD*%
%TA.AperFunction,Conductor*%
%ADD24C,3.000000*%
%TD*%
%TA.AperFunction,Conductor*%
%ADD25C,1.000000*%
%TD*%
G04 APERTURE END LIST*
D10*
X0Y0D02*
X0Y115824000D01*
X108712000Y0D02*
X0Y0D01*
X108712000Y53848000D02*
X108712000Y0D01*
X108712000Y115824000D02*
X108712000Y103124000D01*
X0Y115824000D02*
X108712000Y115824000D01*
X123444000Y53848000D02*
X108712000Y53848000D01*
X123444000Y103124000D02*
X123444000Y53848000D01*
X108712000Y103124000D02*
X123444000Y103124000D01*
D11*
%TO.P,Q4,3*%
%TO.N,VSS*%
X74654000Y99822000D03*
%TO.P,Q4,2*%
%TO.N,NEUT*%
X69204000Y99822000D03*
D12*
%TO.P,Q4,1*%
%TO.N,Net-(Q4-Pad1)*%
X63754000Y99822000D03*
%TD*%
D11*
%TO.P,Q3,3*%
%TO.N,VSS*%
X55096000Y99822000D03*
%TO.P,Q3,2*%
%TO.N,Net-(C12-Pad1)*%
X49646000Y99822000D03*
D12*
%TO.P,Q3,1*%
%TO.N,Net-(Q3-Pad1)*%
X44196000Y99822000D03*
%TD*%
D11*
%TO.P,Q2,3*%
%TO.N,GND*%
X35538000Y99822000D03*
%TO.P,Q2,2*%
%TO.N,Net-(C12-Pad1)*%
X30088000Y99822000D03*
D12*
%TO.P,Q2,1*%
%TO.N,Net-(Q2-Pad1)*%
X24638000Y99822000D03*
%TD*%
D11*
%TO.P,Q1,3*%
%TO.N,GND*%
X15980000Y99822000D03*
%TO.P,Q1,2*%
%TO.N,Net-(C2-Pad1)*%
X10530000Y99822000D03*
D12*
%TO.P,Q1,1*%
%TO.N,Net-(Q1-Pad1)*%
X5080000Y99822000D03*
%TD*%
D13*
%TO.P,PS3,16*%
%TO.N,VDD*%
X48260000Y40132000D03*
%TO.P,PS3,14*%
%TO.N,VSS*%
X48260000Y45212000D03*
%TO.P,PS3,3*%
%TO.N,NEUT*%
X66040000Y19812000D03*
D14*
%TO.P,PS3,1*%
%TO.N,LINE*%
X66040000Y14732000D03*
D13*
%TO.P,PS3,5*%
%TO.N,Net-(PS3-Pad5)*%
X66040000Y45212000D03*
%TD*%
D15*
%TO.P,PS2,1*%
%TO.N,NEUT*%
X83991000Y6331000D03*
D16*
%TO.P,PS2,4*%
%TO.N,VCC*%
X86741000Y44831000D03*
%TO.P,PS2,2*%
%TO.N,LINE*%
X94741000Y6331000D03*
%TO.P,PS2,3*%
%TO.N,GND*%
X94741000Y44831000D03*
%TD*%
D13*
%TO.P,PS1,4*%
%TO.N,Net-(C1-Pad2)*%
X30333000Y48387000D03*
%TO.P,PS1,2*%
%TO.N,LINE*%
X37933000Y20387000D03*
D17*
%TO.P,PS1,1*%
%TO.N,NEUT*%
X22733000Y20387000D03*
D13*
%TO.P,PS1,3*%
X22733000Y48387000D03*
%TD*%
D18*
%TO.P,L2,1*%
%TO.N,Net-(C12-Pad1)*%
X78232000Y91059000D03*
%TO.P,L2,2*%
%TO.N,VPP*%
X78232000Y78059000D03*
%TD*%
D19*
%TO.P,L1,2*%
%TO.N,Net-(C2-Pad1)*%
X14732000Y76327000D03*
%TO.P,L1,1*%
%TO.N,LINE*%
X4572000Y76327000D03*
%TD*%
D20*
%TO.P,J2,2*%
%TO.N,VPP*%
X103695500Y46418500D03*
%TO.P,J2,1*%
%TO.N,NEUT*%
%TA.AperFunction,ComponentPad*%
G36*
G01*
X104995501Y38868500D02*
X102395499Y38868500D01*
G75*
G02*
X102145500Y39118499I0J249999D01*
G01*
X102145500Y41718501D01*
G75*
G02*
X102395499Y41968500I249999J0D01*
G01*
X104995501Y41968500D01*
G75*
G02*
X105245500Y41718501I0J-249999D01*
G01*
X105245500Y39118499D01*
G75*
G02*
X104995501Y38868500I-249999J0D01*
G01*
G37*
%TD.AperFunction*%
%TD*%
%TO.P,J1,2*%
%TO.N,Net-(F1-Pad2)*%
X51912000Y5969000D03*
%TO.P,J1,1*%
%TO.N,NEUT*%
%TA.AperFunction,ComponentPad*%
G36*
G01*
X59462000Y7269001D02*
X59462000Y4668999D01*
G75*
G02*
X59212001Y4419000I-249999J0D01*
G01*
X56611999Y4419000D01*
G75*
G02*
X56362000Y4668999I0J249999D01*
G01*
X56362000Y7269001D01*
G75*
G02*
X56611999Y7519000I249999J0D01*
G01*
X59212001Y7519000D01*
G75*
G02*
X59462000Y7269001I0J-249999D01*
G01*
G37*
%TD.AperFunction*%
%TD*%
D21*
%TO.P,F1,2*%
%TO.N,Net-(F1-Pad2)*%
X40132000Y10414000D03*
%TO.P,F1,1*%
%TO.N,LINE*%
X3132000Y10414000D03*
%TD*%
%TO.P,C13,2*%
%TO.N,NEUT*%
X64956000Y62103000D03*
%TO.P,C13,1*%
%TO.N,VPP*%
X92456000Y62103000D03*
%TD*%
%TO.P,C2,2*%
%TO.N,NEUT*%
X9144000Y29777000D03*
%TO.P,C2,1*%
%TO.N,Net-(C2-Pad1)*%
X9144000Y57277000D03*
%TD*%
D22*
%TO.N,Net-(C1-Pad2)*%
X24425000Y63586000D03*
%TO.N,VCC*%
X37973000Y48260000D03*
X27686000Y82169000D03*
X33401000Y82169000D03*
X34036000Y75692000D03*
X90360500Y69278500D03*
X101459000Y90830000D03*
%TO.N,GND*%
X34798000Y48260000D03*
X32004000Y73787000D03*
%TO.N,dis*%
X29972000Y77470000D03*
X29972000Y67818000D03*
X101727000Y71755000D03*
X93472000Y71755000D03*
X46672500Y67818000D03*
X51562000Y67818000D03*
%TO.N,pwm*%
X101727000Y74549000D03*
X93472000Y74549000D03*
X51562000Y70104000D03*
X46672500Y70104000D03*
%TO.N,NEUT*%
X64956000Y87943000D03*
%TO.N,VDD*%
X41021000Y65278000D03*
X41656000Y89408000D03*
X53594000Y61849000D03*
X53594000Y56769000D03*
%TO.N,Net-(C11-Pad1)*%
X100457000Y81915000D03*
X103505000Y60532000D03*
%TO.N,Net-(D3-Pad1)*%
X54356000Y84963000D03*
X47688500Y81597500D03*
%TO.N,rev*%
X44577000Y62230000D03*
X57785000Y84963000D03*
%TO.N,fwd*%
X44577000Y55880000D03*
X58674000Y75946000D03*
%TD*%
D23*
%TO.N,Net-(C1-Pad2)*%
X30333000Y48387000D02*
X24384000Y54336000D01*
X24384000Y63545000D02*
X24425000Y63586000D01*
X24384000Y54336000D02*
X24384000Y63545000D01*
%TO.N,VCC*%
X33401000Y82169000D02*
X27686000Y82169000D01*
X37973000Y48260000D02*
X37973000Y67945000D01*
X34036000Y71882000D02*
X34036000Y75692000D01*
X37973000Y67945000D02*
X34036000Y71882000D01*
X90360500Y79731500D02*
X101459000Y90830000D01*
X90360500Y69278500D02*
X90360500Y79731500D01*
%TO.N,GND*%
X32004000Y73787000D02*
X32004000Y55626000D01*
X34798000Y52832000D02*
X34798000Y48260000D01*
X32004000Y55626000D02*
X34798000Y52832000D01*
D24*
%TO.N,Net-(F1-Pad2)*%
X51912000Y5969000D02*
X47467000Y10414000D01*
X47467000Y10414000D02*
X40132000Y10414000D01*
D23*
%TO.N,dis*%
X101727000Y71755000D02*
X95250000Y71755000D01*
X95250000Y71755000D02*
X95250000Y71755000D01*
X29972000Y77470000D02*
X29972000Y67818000D01*
X95250000Y71755000D02*
X93472000Y71755000D01*
X51562000Y67818000D02*
X46672500Y67818000D01*
%TO.N,pwm*%
X101727000Y74549000D02*
X95250000Y74549000D01*
X95250000Y74549000D02*
X95250000Y74549000D01*
X95250000Y74549000D02*
X93472000Y74549000D01*
X46672500Y70104000D02*
X51562000Y70104000D01*
D24*
%TO.N,NEUT*%
X57912000Y5969000D02*
X57912000Y14478000D01*
X64956000Y62103000D02*
X57912000Y55059000D01*
X57785000Y29718000D02*
X57912000Y29845000D01*
X57912000Y55059000D02*
X57912000Y29845000D01*
D25*
X22733000Y20387000D02*
X22733000Y29718000D01*
D24*
X22733000Y29718000D02*
X57785000Y29718000D01*
X9144000Y29718000D02*
X22733000Y29718000D01*
D25*
X22733000Y48387000D02*
X22733000Y29718000D01*
X58166000Y19812000D02*
X57912000Y19558000D01*
X66040000Y19812000D02*
X58166000Y19812000D01*
D24*
X57912000Y19558000D02*
X57912000Y14478000D01*
X57912000Y29845000D02*
X57912000Y19558000D01*
D25*
X83991000Y6331000D02*
X83991000Y8973000D01*
X83991000Y8973000D02*
X73152000Y19812000D01*
X73152000Y19812000D02*
X66040000Y19812000D01*
D24*
X64956000Y62103000D02*
X64956000Y87943000D01*
X64956000Y91118000D02*
X69215000Y95377000D01*
X69215000Y95377000D02*
X69215000Y99885500D01*
X64956000Y87943000D02*
X64956000Y91118000D01*
X103695500Y40418500D02*
X103695500Y40195500D01*
X93345000Y29845000D02*
X57912000Y29845000D01*
X103695500Y40195500D02*
X93345000Y29845000D01*
%TO.N,Net-(C2-Pad1)*%
X14732000Y76327000D02*
X10541000Y80518000D01*
X10541000Y80518000D02*
X10541000Y99822000D01*
X14732000Y76327000D02*
X9144000Y70739000D01*
X9144000Y70739000D02*
X9144000Y57277000D01*
D23*
%TO.N,VDD*%
X41021000Y88773000D02*
X41656000Y89408000D01*
X41021000Y66675000D02*
X41021000Y88773000D01*
X41021000Y66675000D02*
X41021000Y65278000D01*
X53594000Y61849000D02*
X53594000Y56769000D01*
D24*
%TO.N,VSS*%
X55096000Y99822000D02*
X55096000Y101832000D01*
X55096000Y101832000D02*
X59182000Y105918000D01*
X59182000Y105918000D02*
X70358000Y105918000D01*
X70358000Y105918000D02*
X72644000Y105918000D01*
X72644000Y105918000D02*
X74676000Y103886000D01*
X74676000Y103886000D02*
X74676000Y99822000D01*
D23*
%TO.N,Net-(C11-Pad1)*%
X103505000Y60532000D02*
X103505000Y77343000D01*
X100457000Y80391000D02*
X100457000Y81915000D01*
X103505000Y77343000D02*
X100457000Y80391000D01*
D24*
%TO.N,Net-(C12-Pad1)*%
X30088000Y99822000D02*
X30088000Y104002000D01*
X30088000Y104002000D02*
X32004000Y105918000D01*
X32004000Y105918000D02*
X45720000Y105918000D01*
X45720000Y105918000D02*
X47498000Y105918000D01*
X49657000Y103759000D02*
X49657000Y99822000D01*
X78232000Y91059000D02*
X81661000Y94488000D01*
X81661000Y94488000D02*
X81661000Y106299000D01*
X81661000Y106299000D02*
X75946000Y112014000D01*
X55626000Y112014000D02*
X48514000Y104902000D01*
X75946000Y112014000D02*
X55626000Y112014000D01*
X48514000Y104902000D02*
X49657000Y103759000D01*
X47498000Y105918000D02*
X48514000Y104902000D01*
%TO.N,VPP*%
X92456000Y62103000D02*
X78105000Y76454000D01*
X78105000Y76454000D02*
X78105000Y77978000D01*
X103695500Y46418500D02*
X92456000Y57658000D01*
X92456000Y57658000D02*
X92456000Y62166500D01*
D23*
%TO.N,Net-(D3-Pad1)*%
X47688500Y81597500D02*
X50736500Y81597500D01*
X50990500Y81597500D02*
X50736500Y81597500D01*
X54356000Y84963000D02*
X50990500Y81597500D01*
%TO.N,rev*%
X44577000Y71755000D02*
X57785000Y84963000D01*
X44577000Y62230000D02*
X44577000Y71755000D01*
%TO.N,fwd*%
X53467000Y70739000D02*
X58674000Y75946000D01*
X53467000Y64770000D02*
X53467000Y70739000D01*
X44577000Y55880000D02*
X53467000Y64770000D01*
D24*
%TO.N,LINE*%
X3132000Y10414000D02*
X3132000Y74887000D01*
X3132000Y74887000D02*
X4572000Y76327000D01*
D25*
X3132000Y10414000D02*
X27940000Y10414000D01*
X27940000Y10414000D02*
X37973000Y20447000D01*
%TD*%
M02*
