%TF.GenerationSoftware,KiCad,Pcbnew,(5.1.7)-1*%
%TF.CreationDate,2020-12-23T12:42:28-08:00*%
%TF.ProjectId,Sine_Dimmer,53696e65-5f44-4696-9d6d-65722e6b6963,1.0*%
%TF.SameCoordinates,PX544c140PY8fe2f60*%
%TF.FileFunction,Soldermask,Top*%
%TF.FilePolarity,Negative*%
%FSLAX46Y46*%
G04 Gerber Fmt 4.6, Leading zero omitted, Abs format (unit mm)*
G04 Created by KiCad (PCBNEW (5.1.7)-1) date 2020-12-23 12:42:28*
%MOMM*%
%LPD*%
G01*
G04 APERTURE LIST*
%ADD10C,0.100000*%
%ADD11C,3.000000*%
%TA.AperFunction,Profile*%
%ADD12C,0.050000*%
%TD*%
%ADD13R,0.900000X1.200000*%
%ADD14R,1.200000X0.900000*%
%ADD15R,1.500000X2.000000*%
%ADD16R,3.800000X2.000000*%
%ADD17R,1.000000X2.500000*%
%ADD18R,1.800000X1.000000*%
%ADD19R,1.300000X0.800000*%
%ADD20O,2.500000X4.500000*%
%ADD21R,2.500000X4.500000*%
%ADD22C,2.300000*%
%ADD23R,2.300000X2.000000*%
%ADD24R,3.000000X3.000000*%
%ADD25C,3.000000*%
%ADD26R,2.000000X2.300000*%
%ADD27C,5.000000*%
%ADD28C,3.600000*%
%ADD29C,3.100000*%
%ADD30C,2.400000*%
G04 APERTURE END LIST*
D10*
G36*
X37084000Y99822000D02*
G01*
X34036000Y99822000D01*
X34036000Y103251000D01*
X37084000Y103759000D01*
X37084000Y99822000D01*
G37*
X37084000Y99822000D02*
X34036000Y99822000D01*
X34036000Y103251000D01*
X37084000Y103759000D01*
X37084000Y99822000D01*
G36*
X36703000Y104902000D02*
G01*
X34036000Y103251000D01*
X32893000Y104394000D01*
X34544000Y107061000D01*
X36703000Y104902000D01*
G37*
X36703000Y104902000D02*
X34036000Y103251000D01*
X32893000Y104394000D01*
X34544000Y107061000D01*
X36703000Y104902000D01*
G36*
X32893000Y104394000D02*
G01*
X20701000Y104394000D01*
X20193000Y107442000D01*
X33401000Y107442000D01*
X32893000Y104394000D01*
G37*
X32893000Y104394000D02*
X20701000Y104394000D01*
X20193000Y107442000D01*
X33401000Y107442000D01*
X32893000Y104394000D01*
G36*
X20701000Y104394000D02*
G01*
X17526000Y101219000D01*
X14986000Y102997000D01*
X18923000Y106934000D01*
X20701000Y104394000D01*
G37*
X20701000Y104394000D02*
X17526000Y101219000D01*
X14986000Y102997000D01*
X18923000Y106934000D01*
X20701000Y104394000D01*
G36*
X17526000Y101219000D02*
G01*
X17526000Y99822000D01*
X14478000Y99822000D01*
X14478000Y102108000D01*
X17526000Y101219000D01*
G37*
X17526000Y101219000D02*
X17526000Y99822000D01*
X14478000Y99822000D01*
X14478000Y102108000D01*
X17526000Y101219000D01*
D11*
X35560000Y99822000D02*
G75*
G03*
X35560000Y99822000I0J0D01*
G01*
X35560000Y103886000D02*
G75*
G03*
X35560000Y103886000I0J0D01*
G01*
X33528000Y105918000D02*
G75*
G03*
X33528000Y105918000I0J0D01*
G01*
X20066000Y105918000D02*
G75*
G03*
X20066000Y105918000I0J0D01*
G01*
X16002000Y101854000D02*
G75*
G03*
X16002000Y101854000I0J0D01*
G01*
X16002000Y99822000D02*
G75*
G03*
X16002000Y99822000I0J0D01*
G01*
D12*
X0Y0D02*
X0Y115824000D01*
X108712000Y0D02*
X0Y0D01*
X108712000Y53848000D02*
X108712000Y0D01*
X108712000Y115824000D02*
X108712000Y103124000D01*
X0Y115824000D02*
X108712000Y115824000D01*
X123444000Y53848000D02*
X108712000Y53848000D01*
X123444000Y103124000D02*
X123444000Y53848000D01*
X108712000Y103124000D02*
X123444000Y103124000D01*
D13*
%TO.C,D6*%
X39276000Y73406000D03*
X42576000Y73406000D03*
%TD*%
D14*
%TO.C,D5*%
X58674000Y75979000D03*
X58674000Y79279000D03*
%TD*%
D13*
%TO.C,D4*%
X57752000Y84963000D03*
X54452000Y84963000D03*
%TD*%
%TO.C,D3*%
X39276000Y78994000D03*
X42576000Y78994000D03*
%TD*%
D15*
%TO.C,VR1*%
X101459000Y90830000D03*
X106059000Y90830000D03*
X103759000Y90830000D03*
D16*
X103759000Y97130000D03*
%TD*%
D17*
%TO.C,U6*%
X114498000Y66695000D03*
X112498000Y66695000D03*
X110498000Y66695000D03*
X108498000Y66695000D03*
X106498000Y66695000D03*
X104498000Y66695000D03*
X102498000Y66695000D03*
X100498000Y66695000D03*
D18*
X98998000Y69295000D03*
X98998000Y71295000D03*
X98998000Y73295000D03*
X98998000Y75295000D03*
X98998000Y77295000D03*
X98998000Y79295000D03*
D17*
X100498000Y81895000D03*
X102498000Y81895000D03*
X104498000Y81895000D03*
X106498000Y81895000D03*
X108498000Y81895000D03*
X110498000Y81895000D03*
X112498000Y81895000D03*
X114498000Y81895000D03*
%TD*%
%TO.C,U5*%
G36*
G01*
X25296000Y88002000D02*
X24996000Y88002000D01*
G75*
G02*
X24846000Y88152000I0J150000D01*
G01*
X24846000Y89902000D01*
G75*
G02*
X24996000Y90052000I150000J0D01*
G01*
X25296000Y90052000D01*
G75*
G02*
X25446000Y89902000I0J-150000D01*
G01*
X25446000Y88152000D01*
G75*
G02*
X25296000Y88002000I-150000J0D01*
G01*
G37*
G36*
G01*
X26566000Y88002000D02*
X26266000Y88002000D01*
G75*
G02*
X26116000Y88152000I0J150000D01*
G01*
X26116000Y89902000D01*
G75*
G02*
X26266000Y90052000I150000J0D01*
G01*
X26566000Y90052000D01*
G75*
G02*
X26716000Y89902000I0J-150000D01*
G01*
X26716000Y88152000D01*
G75*
G02*
X26566000Y88002000I-150000J0D01*
G01*
G37*
G36*
G01*
X27836000Y88002000D02*
X27536000Y88002000D01*
G75*
G02*
X27386000Y88152000I0J150000D01*
G01*
X27386000Y89902000D01*
G75*
G02*
X27536000Y90052000I150000J0D01*
G01*
X27836000Y90052000D01*
G75*
G02*
X27986000Y89902000I0J-150000D01*
G01*
X27986000Y88152000D01*
G75*
G02*
X27836000Y88002000I-150000J0D01*
G01*
G37*
G36*
G01*
X29106000Y88002000D02*
X28806000Y88002000D01*
G75*
G02*
X28656000Y88152000I0J150000D01*
G01*
X28656000Y89902000D01*
G75*
G02*
X28806000Y90052000I150000J0D01*
G01*
X29106000Y90052000D01*
G75*
G02*
X29256000Y89902000I0J-150000D01*
G01*
X29256000Y88152000D01*
G75*
G02*
X29106000Y88002000I-150000J0D01*
G01*
G37*
G36*
G01*
X30376000Y88002000D02*
X30076000Y88002000D01*
G75*
G02*
X29926000Y88152000I0J150000D01*
G01*
X29926000Y89902000D01*
G75*
G02*
X30076000Y90052000I150000J0D01*
G01*
X30376000Y90052000D01*
G75*
G02*
X30526000Y89902000I0J-150000D01*
G01*
X30526000Y88152000D01*
G75*
G02*
X30376000Y88002000I-150000J0D01*
G01*
G37*
G36*
G01*
X31646000Y88002000D02*
X31346000Y88002000D01*
G75*
G02*
X31196000Y88152000I0J150000D01*
G01*
X31196000Y89902000D01*
G75*
G02*
X31346000Y90052000I150000J0D01*
G01*
X31646000Y90052000D01*
G75*
G02*
X31796000Y89902000I0J-150000D01*
G01*
X31796000Y88152000D01*
G75*
G02*
X31646000Y88002000I-150000J0D01*
G01*
G37*
G36*
G01*
X32916000Y88002000D02*
X32616000Y88002000D01*
G75*
G02*
X32466000Y88152000I0J150000D01*
G01*
X32466000Y89902000D01*
G75*
G02*
X32616000Y90052000I150000J0D01*
G01*
X32916000Y90052000D01*
G75*
G02*
X33066000Y89902000I0J-150000D01*
G01*
X33066000Y88152000D01*
G75*
G02*
X32916000Y88002000I-150000J0D01*
G01*
G37*
G36*
G01*
X34186000Y88002000D02*
X33886000Y88002000D01*
G75*
G02*
X33736000Y88152000I0J150000D01*
G01*
X33736000Y89902000D01*
G75*
G02*
X33886000Y90052000I150000J0D01*
G01*
X34186000Y90052000D01*
G75*
G02*
X34336000Y89902000I0J-150000D01*
G01*
X34336000Y88152000D01*
G75*
G02*
X34186000Y88002000I-150000J0D01*
G01*
G37*
G36*
G01*
X34186000Y78702000D02*
X33886000Y78702000D01*
G75*
G02*
X33736000Y78852000I0J150000D01*
G01*
X33736000Y80602000D01*
G75*
G02*
X33886000Y80752000I150000J0D01*
G01*
X34186000Y80752000D01*
G75*
G02*
X34336000Y80602000I0J-150000D01*
G01*
X34336000Y78852000D01*
G75*
G02*
X34186000Y78702000I-150000J0D01*
G01*
G37*
G36*
G01*
X32916000Y78702000D02*
X32616000Y78702000D01*
G75*
G02*
X32466000Y78852000I0J150000D01*
G01*
X32466000Y80602000D01*
G75*
G02*
X32616000Y80752000I150000J0D01*
G01*
X32916000Y80752000D01*
G75*
G02*
X33066000Y80602000I0J-150000D01*
G01*
X33066000Y78852000D01*
G75*
G02*
X32916000Y78702000I-150000J0D01*
G01*
G37*
G36*
G01*
X31646000Y78702000D02*
X31346000Y78702000D01*
G75*
G02*
X31196000Y78852000I0J150000D01*
G01*
X31196000Y80602000D01*
G75*
G02*
X31346000Y80752000I150000J0D01*
G01*
X31646000Y80752000D01*
G75*
G02*
X31796000Y80602000I0J-150000D01*
G01*
X31796000Y78852000D01*
G75*
G02*
X31646000Y78702000I-150000J0D01*
G01*
G37*
G36*
G01*
X30376000Y78702000D02*
X30076000Y78702000D01*
G75*
G02*
X29926000Y78852000I0J150000D01*
G01*
X29926000Y80602000D01*
G75*
G02*
X30076000Y80752000I150000J0D01*
G01*
X30376000Y80752000D01*
G75*
G02*
X30526000Y80602000I0J-150000D01*
G01*
X30526000Y78852000D01*
G75*
G02*
X30376000Y78702000I-150000J0D01*
G01*
G37*
G36*
G01*
X29106000Y78702000D02*
X28806000Y78702000D01*
G75*
G02*
X28656000Y78852000I0J150000D01*
G01*
X28656000Y80602000D01*
G75*
G02*
X28806000Y80752000I150000J0D01*
G01*
X29106000Y80752000D01*
G75*
G02*
X29256000Y80602000I0J-150000D01*
G01*
X29256000Y78852000D01*
G75*
G02*
X29106000Y78702000I-150000J0D01*
G01*
G37*
G36*
G01*
X27836000Y78702000D02*
X27536000Y78702000D01*
G75*
G02*
X27386000Y78852000I0J150000D01*
G01*
X27386000Y80602000D01*
G75*
G02*
X27536000Y80752000I150000J0D01*
G01*
X27836000Y80752000D01*
G75*
G02*
X27986000Y80602000I0J-150000D01*
G01*
X27986000Y78852000D01*
G75*
G02*
X27836000Y78702000I-150000J0D01*
G01*
G37*
G36*
G01*
X26566000Y78702000D02*
X26266000Y78702000D01*
G75*
G02*
X26116000Y78852000I0J150000D01*
G01*
X26116000Y80602000D01*
G75*
G02*
X26266000Y80752000I150000J0D01*
G01*
X26566000Y80752000D01*
G75*
G02*
X26716000Y80602000I0J-150000D01*
G01*
X26716000Y78852000D01*
G75*
G02*
X26566000Y78702000I-150000J0D01*
G01*
G37*
G36*
G01*
X25296000Y78702000D02*
X24996000Y78702000D01*
G75*
G02*
X24846000Y78852000I0J150000D01*
G01*
X24846000Y80602000D01*
G75*
G02*
X24996000Y80752000I150000J0D01*
G01*
X25296000Y80752000D01*
G75*
G02*
X25446000Y80602000I0J-150000D01*
G01*
X25446000Y78852000D01*
G75*
G02*
X25296000Y78702000I-150000J0D01*
G01*
G37*
%TD*%
%TO.C,U4*%
G36*
G01*
X45997000Y88052000D02*
X45697000Y88052000D01*
G75*
G02*
X45547000Y88202000I0J150000D01*
G01*
X45547000Y89852000D01*
G75*
G02*
X45697000Y90002000I150000J0D01*
G01*
X45997000Y90002000D01*
G75*
G02*
X46147000Y89852000I0J-150000D01*
G01*
X46147000Y88202000D01*
G75*
G02*
X45997000Y88052000I-150000J0D01*
G01*
G37*
G36*
G01*
X47267000Y88052000D02*
X46967000Y88052000D01*
G75*
G02*
X46817000Y88202000I0J150000D01*
G01*
X46817000Y89852000D01*
G75*
G02*
X46967000Y90002000I150000J0D01*
G01*
X47267000Y90002000D01*
G75*
G02*
X47417000Y89852000I0J-150000D01*
G01*
X47417000Y88202000D01*
G75*
G02*
X47267000Y88052000I-150000J0D01*
G01*
G37*
G36*
G01*
X48537000Y88052000D02*
X48237000Y88052000D01*
G75*
G02*
X48087000Y88202000I0J150000D01*
G01*
X48087000Y89852000D01*
G75*
G02*
X48237000Y90002000I150000J0D01*
G01*
X48537000Y90002000D01*
G75*
G02*
X48687000Y89852000I0J-150000D01*
G01*
X48687000Y88202000D01*
G75*
G02*
X48537000Y88052000I-150000J0D01*
G01*
G37*
G36*
G01*
X49807000Y88052000D02*
X49507000Y88052000D01*
G75*
G02*
X49357000Y88202000I0J150000D01*
G01*
X49357000Y89852000D01*
G75*
G02*
X49507000Y90002000I150000J0D01*
G01*
X49807000Y90002000D01*
G75*
G02*
X49957000Y89852000I0J-150000D01*
G01*
X49957000Y88202000D01*
G75*
G02*
X49807000Y88052000I-150000J0D01*
G01*
G37*
G36*
G01*
X49807000Y83102000D02*
X49507000Y83102000D01*
G75*
G02*
X49357000Y83252000I0J150000D01*
G01*
X49357000Y84902000D01*
G75*
G02*
X49507000Y85052000I150000J0D01*
G01*
X49807000Y85052000D01*
G75*
G02*
X49957000Y84902000I0J-150000D01*
G01*
X49957000Y83252000D01*
G75*
G02*
X49807000Y83102000I-150000J0D01*
G01*
G37*
G36*
G01*
X48537000Y83102000D02*
X48237000Y83102000D01*
G75*
G02*
X48087000Y83252000I0J150000D01*
G01*
X48087000Y84902000D01*
G75*
G02*
X48237000Y85052000I150000J0D01*
G01*
X48537000Y85052000D01*
G75*
G02*
X48687000Y84902000I0J-150000D01*
G01*
X48687000Y83252000D01*
G75*
G02*
X48537000Y83102000I-150000J0D01*
G01*
G37*
G36*
G01*
X47267000Y83102000D02*
X46967000Y83102000D01*
G75*
G02*
X46817000Y83252000I0J150000D01*
G01*
X46817000Y84902000D01*
G75*
G02*
X46967000Y85052000I150000J0D01*
G01*
X47267000Y85052000D01*
G75*
G02*
X47417000Y84902000I0J-150000D01*
G01*
X47417000Y83252000D01*
G75*
G02*
X47267000Y83102000I-150000J0D01*
G01*
G37*
G36*
G01*
X45997000Y83102000D02*
X45697000Y83102000D01*
G75*
G02*
X45547000Y83252000I0J150000D01*
G01*
X45547000Y84902000D01*
G75*
G02*
X45697000Y85052000I150000J0D01*
G01*
X45997000Y85052000D01*
G75*
G02*
X46147000Y84902000I0J-150000D01*
G01*
X46147000Y83252000D01*
G75*
G02*
X45997000Y83102000I-150000J0D01*
G01*
G37*
%TD*%
D19*
%TO.C,U3*%
X46279000Y57023000D03*
X46279000Y55753000D03*
X46279000Y54483000D03*
X36779000Y54483000D03*
X36779000Y55753000D03*
X36779000Y57023000D03*
%TD*%
%TO.C,U2*%
X46305000Y63416000D03*
X46305000Y62146000D03*
X46305000Y60876000D03*
X36805000Y60876000D03*
X36805000Y62146000D03*
X36805000Y63416000D03*
%TD*%
%TO.C,U1*%
G36*
G01*
X31907000Y63486000D02*
X31907000Y63686000D01*
G75*
G02*
X32007000Y63786000I100000J0D01*
G01*
X33432000Y63786000D01*
G75*
G02*
X33532000Y63686000I0J-100000D01*
G01*
X33532000Y63486000D01*
G75*
G02*
X33432000Y63386000I-100000J0D01*
G01*
X32007000Y63386000D01*
G75*
G02*
X31907000Y63486000I0J100000D01*
G01*
G37*
G36*
G01*
X31907000Y62836000D02*
X31907000Y63036000D01*
G75*
G02*
X32007000Y63136000I100000J0D01*
G01*
X33432000Y63136000D01*
G75*
G02*
X33532000Y63036000I0J-100000D01*
G01*
X33532000Y62836000D01*
G75*
G02*
X33432000Y62736000I-100000J0D01*
G01*
X32007000Y62736000D01*
G75*
G02*
X31907000Y62836000I0J100000D01*
G01*
G37*
G36*
G01*
X31907000Y62186000D02*
X31907000Y62386000D01*
G75*
G02*
X32007000Y62486000I100000J0D01*
G01*
X33432000Y62486000D01*
G75*
G02*
X33532000Y62386000I0J-100000D01*
G01*
X33532000Y62186000D01*
G75*
G02*
X33432000Y62086000I-100000J0D01*
G01*
X32007000Y62086000D01*
G75*
G02*
X31907000Y62186000I0J100000D01*
G01*
G37*
G36*
G01*
X31907000Y61536000D02*
X31907000Y61736000D01*
G75*
G02*
X32007000Y61836000I100000J0D01*
G01*
X33432000Y61836000D01*
G75*
G02*
X33532000Y61736000I0J-100000D01*
G01*
X33532000Y61536000D01*
G75*
G02*
X33432000Y61436000I-100000J0D01*
G01*
X32007000Y61436000D01*
G75*
G02*
X31907000Y61536000I0J100000D01*
G01*
G37*
G36*
G01*
X27682000Y61536000D02*
X27682000Y61736000D01*
G75*
G02*
X27782000Y61836000I100000J0D01*
G01*
X29207000Y61836000D01*
G75*
G02*
X29307000Y61736000I0J-100000D01*
G01*
X29307000Y61536000D01*
G75*
G02*
X29207000Y61436000I-100000J0D01*
G01*
X27782000Y61436000D01*
G75*
G02*
X27682000Y61536000I0J100000D01*
G01*
G37*
G36*
G01*
X27682000Y62186000D02*
X27682000Y62386000D01*
G75*
G02*
X27782000Y62486000I100000J0D01*
G01*
X29207000Y62486000D01*
G75*
G02*
X29307000Y62386000I0J-100000D01*
G01*
X29307000Y62186000D01*
G75*
G02*
X29207000Y62086000I-100000J0D01*
G01*
X27782000Y62086000D01*
G75*
G02*
X27682000Y62186000I0J100000D01*
G01*
G37*
G36*
G01*
X27682000Y62836000D02*
X27682000Y63036000D01*
G75*
G02*
X27782000Y63136000I100000J0D01*
G01*
X29207000Y63136000D01*
G75*
G02*
X29307000Y63036000I0J-100000D01*
G01*
X29307000Y62836000D01*
G75*
G02*
X29207000Y62736000I-100000J0D01*
G01*
X27782000Y62736000D01*
G75*
G02*
X27682000Y62836000I0J100000D01*
G01*
G37*
G36*
G01*
X27682000Y63486000D02*
X27682000Y63686000D01*
G75*
G02*
X27782000Y63786000I100000J0D01*
G01*
X29207000Y63786000D01*
G75*
G02*
X29307000Y63686000I0J-100000D01*
G01*
X29307000Y63486000D01*
G75*
G02*
X29207000Y63386000I-100000J0D01*
G01*
X27782000Y63386000D01*
G75*
G02*
X27682000Y63486000I0J100000D01*
G01*
G37*
%TD*%
%TO.C,R13*%
G36*
G01*
X99891001Y61844500D02*
X98990999Y61844500D01*
G75*
G02*
X98741000Y62094499I0J249999D01*
G01*
X98741000Y62619501D01*
G75*
G02*
X98990999Y62869500I249999J0D01*
G01*
X99891001Y62869500D01*
G75*
G02*
X100141000Y62619501I0J-249999D01*
G01*
X100141000Y62094499D01*
G75*
G02*
X99891001Y61844500I-249999J0D01*
G01*
G37*
G36*
G01*
X99891001Y60019500D02*
X98990999Y60019500D01*
G75*
G02*
X98741000Y60269499I0J249999D01*
G01*
X98741000Y60794501D01*
G75*
G02*
X98990999Y61044500I249999J0D01*
G01*
X99891001Y61044500D01*
G75*
G02*
X100141000Y60794501I0J-249999D01*
G01*
X100141000Y60269499D01*
G75*
G02*
X99891001Y60019500I-249999J0D01*
G01*
G37*
%TD*%
%TO.C,R12*%
G36*
G01*
X103955001Y61844500D02*
X103054999Y61844500D01*
G75*
G02*
X102805000Y62094499I0J249999D01*
G01*
X102805000Y62619501D01*
G75*
G02*
X103054999Y62869500I249999J0D01*
G01*
X103955001Y62869500D01*
G75*
G02*
X104205000Y62619501I0J-249999D01*
G01*
X104205000Y62094499D01*
G75*
G02*
X103955001Y61844500I-249999J0D01*
G01*
G37*
G36*
G01*
X103955001Y60019500D02*
X103054999Y60019500D01*
G75*
G02*
X102805000Y60269499I0J249999D01*
G01*
X102805000Y60794501D01*
G75*
G02*
X103054999Y61044500I249999J0D01*
G01*
X103955001Y61044500D01*
G75*
G02*
X104205000Y60794501I0J-249999D01*
G01*
X104205000Y60269499D01*
G75*
G02*
X103955001Y60019500I-249999J0D01*
G01*
G37*
%TD*%
%TO.C,R11*%
G36*
G01*
X107892001Y61844500D02*
X106991999Y61844500D01*
G75*
G02*
X106742000Y62094499I0J249999D01*
G01*
X106742000Y62619501D01*
G75*
G02*
X106991999Y62869500I249999J0D01*
G01*
X107892001Y62869500D01*
G75*
G02*
X108142000Y62619501I0J-249999D01*
G01*
X108142000Y62094499D01*
G75*
G02*
X107892001Y61844500I-249999J0D01*
G01*
G37*
G36*
G01*
X107892001Y60019500D02*
X106991999Y60019500D01*
G75*
G02*
X106742000Y60269499I0J249999D01*
G01*
X106742000Y60794501D01*
G75*
G02*
X106991999Y61044500I249999J0D01*
G01*
X107892001Y61044500D01*
G75*
G02*
X108142000Y60794501I0J-249999D01*
G01*
X108142000Y60269499D01*
G75*
G02*
X107892001Y60019500I-249999J0D01*
G01*
G37*
%TD*%
%TO.C,R10*%
G36*
G01*
X110940001Y87545500D02*
X110039999Y87545500D01*
G75*
G02*
X109790000Y87795499I0J249999D01*
G01*
X109790000Y88320501D01*
G75*
G02*
X110039999Y88570500I249999J0D01*
G01*
X110940001Y88570500D01*
G75*
G02*
X111190000Y88320501I0J-249999D01*
G01*
X111190000Y87795499D01*
G75*
G02*
X110940001Y87545500I-249999J0D01*
G01*
G37*
G36*
G01*
X110940001Y85720500D02*
X110039999Y85720500D01*
G75*
G02*
X109790000Y85970499I0J249999D01*
G01*
X109790000Y86495501D01*
G75*
G02*
X110039999Y86745500I249999J0D01*
G01*
X110940001Y86745500D01*
G75*
G02*
X111190000Y86495501I0J-249999D01*
G01*
X111190000Y85970499D01*
G75*
G02*
X110940001Y85720500I-249999J0D01*
G01*
G37*
%TD*%
%TO.C,R9*%
G36*
G01*
X115004001Y87545500D02*
X114103999Y87545500D01*
G75*
G02*
X113854000Y87795499I0J249999D01*
G01*
X113854000Y88320501D01*
G75*
G02*
X114103999Y88570500I249999J0D01*
G01*
X115004001Y88570500D01*
G75*
G02*
X115254000Y88320501I0J-249999D01*
G01*
X115254000Y87795499D01*
G75*
G02*
X115004001Y87545500I-249999J0D01*
G01*
G37*
G36*
G01*
X115004001Y85720500D02*
X114103999Y85720500D01*
G75*
G02*
X113854000Y85970499I0J249999D01*
G01*
X113854000Y86495501D01*
G75*
G02*
X114103999Y86745500I249999J0D01*
G01*
X115004001Y86745500D01*
G75*
G02*
X115254000Y86495501I0J-249999D01*
G01*
X115254000Y85970499D01*
G75*
G02*
X115004001Y85720500I-249999J0D01*
G01*
G37*
%TD*%
%TO.C,R8*%
G36*
G01*
X51489500Y94224001D02*
X51489500Y92973999D01*
G75*
G02*
X51239501Y92724000I-249999J0D01*
G01*
X50614499Y92724000D01*
G75*
G02*
X50364500Y92973999I0J249999D01*
G01*
X50364500Y94224001D01*
G75*
G02*
X50614499Y94474000I249999J0D01*
G01*
X51239501Y94474000D01*
G75*
G02*
X51489500Y94224001I0J-249999D01*
G01*
G37*
G36*
G01*
X54414500Y94224001D02*
X54414500Y92973999D01*
G75*
G02*
X54164501Y92724000I-249999J0D01*
G01*
X53539499Y92724000D01*
G75*
G02*
X53289500Y92973999I0J249999D01*
G01*
X53289500Y94224001D01*
G75*
G02*
X53539499Y94474000I249999J0D01*
G01*
X54164501Y94474000D01*
G75*
G02*
X54414500Y94224001I0J-249999D01*
G01*
G37*
%TD*%
%TO.C,R7*%
G36*
G01*
X46558500Y92973999D02*
X46558500Y94224001D01*
G75*
G02*
X46808499Y94474000I249999J0D01*
G01*
X47433501Y94474000D01*
G75*
G02*
X47683500Y94224001I0J-249999D01*
G01*
X47683500Y92973999D01*
G75*
G02*
X47433501Y92724000I-249999J0D01*
G01*
X46808499Y92724000D01*
G75*
G02*
X46558500Y92973999I0J249999D01*
G01*
G37*
G36*
G01*
X43633500Y92973999D02*
X43633500Y94224001D01*
G75*
G02*
X43883499Y94474000I249999J0D01*
G01*
X44508501Y94474000D01*
G75*
G02*
X44758500Y94224001I0J-249999D01*
G01*
X44758500Y92973999D01*
G75*
G02*
X44508501Y92724000I-249999J0D01*
G01*
X43883499Y92724000D01*
G75*
G02*
X43633500Y92973999I0J249999D01*
G01*
G37*
%TD*%
%TO.C,R6*%
G36*
G01*
X22275500Y94224001D02*
X22275500Y92973999D01*
G75*
G02*
X22025501Y92724000I-249999J0D01*
G01*
X21400499Y92724000D01*
G75*
G02*
X21150500Y92973999I0J249999D01*
G01*
X21150500Y94224001D01*
G75*
G02*
X21400499Y94474000I249999J0D01*
G01*
X22025501Y94474000D01*
G75*
G02*
X22275500Y94224001I0J-249999D01*
G01*
G37*
G36*
G01*
X25200500Y94224001D02*
X25200500Y92973999D01*
G75*
G02*
X24950501Y92724000I-249999J0D01*
G01*
X24325499Y92724000D01*
G75*
G02*
X24075500Y92973999I0J249999D01*
G01*
X24075500Y94224001D01*
G75*
G02*
X24325499Y94474000I249999J0D01*
G01*
X24950501Y94474000D01*
G75*
G02*
X25200500Y94224001I0J-249999D01*
G01*
G37*
%TD*%
%TO.C,R5*%
G36*
G01*
X17344500Y92973999D02*
X17344500Y94224001D01*
G75*
G02*
X17594499Y94474000I249999J0D01*
G01*
X18219501Y94474000D01*
G75*
G02*
X18469500Y94224001I0J-249999D01*
G01*
X18469500Y92973999D01*
G75*
G02*
X18219501Y92724000I-249999J0D01*
G01*
X17594499Y92724000D01*
G75*
G02*
X17344500Y92973999I0J249999D01*
G01*
G37*
G36*
G01*
X14419500Y92973999D02*
X14419500Y94224001D01*
G75*
G02*
X14669499Y94474000I249999J0D01*
G01*
X15294501Y94474000D01*
G75*
G02*
X15544500Y94224001I0J-249999D01*
G01*
X15544500Y92973999D01*
G75*
G02*
X15294501Y92724000I-249999J0D01*
G01*
X14669499Y92724000D01*
G75*
G02*
X14419500Y92973999I0J249999D01*
G01*
G37*
%TD*%
%TO.C,R4*%
G36*
G01*
X51444999Y77520500D02*
X52695001Y77520500D01*
G75*
G02*
X52945000Y77270501I0J-249999D01*
G01*
X52945000Y76645499D01*
G75*
G02*
X52695001Y76395500I-249999J0D01*
G01*
X51444999Y76395500D01*
G75*
G02*
X51195000Y76645499I0J249999D01*
G01*
X51195000Y77270501D01*
G75*
G02*
X51444999Y77520500I249999J0D01*
G01*
G37*
G36*
G01*
X51444999Y80445500D02*
X52695001Y80445500D01*
G75*
G02*
X52945000Y80195501I0J-249999D01*
G01*
X52945000Y79570499D01*
G75*
G02*
X52695001Y79320500I-249999J0D01*
G01*
X51444999Y79320500D01*
G75*
G02*
X51195000Y79570499I0J249999D01*
G01*
X51195000Y80195501D01*
G75*
G02*
X51444999Y80445500I249999J0D01*
G01*
G37*
%TD*%
%TO.C,R3*%
G36*
G01*
X47126999Y77520500D02*
X48377001Y77520500D01*
G75*
G02*
X48627000Y77270501I0J-249999D01*
G01*
X48627000Y76645499D01*
G75*
G02*
X48377001Y76395500I-249999J0D01*
G01*
X47126999Y76395500D01*
G75*
G02*
X46877000Y76645499I0J249999D01*
G01*
X46877000Y77270501D01*
G75*
G02*
X47126999Y77520500I249999J0D01*
G01*
G37*
G36*
G01*
X47126999Y80445500D02*
X48377001Y80445500D01*
G75*
G02*
X48627000Y80195501I0J-249999D01*
G01*
X48627000Y79570499D01*
G75*
G02*
X48377001Y79320500I-249999J0D01*
G01*
X47126999Y79320500D01*
G75*
G02*
X46877000Y79570499I0J249999D01*
G01*
X46877000Y80195501D01*
G75*
G02*
X47126999Y80445500I249999J0D01*
G01*
G37*
%TD*%
%TO.C,R2*%
G36*
G01*
X29521999Y74379500D02*
X30422001Y74379500D01*
G75*
G02*
X30672000Y74129501I0J-249999D01*
G01*
X30672000Y73604499D01*
G75*
G02*
X30422001Y73354500I-249999J0D01*
G01*
X29521999Y73354500D01*
G75*
G02*
X29272000Y73604499I0J249999D01*
G01*
X29272000Y74129501D01*
G75*
G02*
X29521999Y74379500I249999J0D01*
G01*
G37*
G36*
G01*
X29521999Y76204500D02*
X30422001Y76204500D01*
G75*
G02*
X30672000Y75954501I0J-249999D01*
G01*
X30672000Y75429499D01*
G75*
G02*
X30422001Y75179500I-249999J0D01*
G01*
X29521999Y75179500D01*
G75*
G02*
X29272000Y75429499I0J249999D01*
G01*
X29272000Y75954501D01*
G75*
G02*
X29521999Y76204500I249999J0D01*
G01*
G37*
%TD*%
%TO.C,R1*%
G36*
G01*
X20818001Y63953500D02*
X19567999Y63953500D01*
G75*
G02*
X19318000Y64203499I0J249999D01*
G01*
X19318000Y64828501D01*
G75*
G02*
X19567999Y65078500I249999J0D01*
G01*
X20818001Y65078500D01*
G75*
G02*
X21068000Y64828501I0J-249999D01*
G01*
X21068000Y64203499D01*
G75*
G02*
X20818001Y63953500I-249999J0D01*
G01*
G37*
G36*
G01*
X20818001Y61028500D02*
X19567999Y61028500D01*
G75*
G02*
X19318000Y61278499I0J249999D01*
G01*
X19318000Y61903501D01*
G75*
G02*
X19567999Y62153500I249999J0D01*
G01*
X20818001Y62153500D01*
G75*
G02*
X21068000Y61903501I0J-249999D01*
G01*
X21068000Y61278499D01*
G75*
G02*
X20818001Y61028500I-249999J0D01*
G01*
G37*
%TD*%
D20*
%TO.C,Q4*%
X74654000Y99822000D03*
X69204000Y99822000D03*
D21*
X63754000Y99822000D03*
%TD*%
D20*
%TO.C,Q3*%
X55096000Y99822000D03*
X49646000Y99822000D03*
D21*
X44196000Y99822000D03*
%TD*%
D20*
%TO.C,Q2*%
X35538000Y99822000D03*
X30088000Y99822000D03*
D21*
X24638000Y99822000D03*
%TD*%
D20*
%TO.C,Q1*%
X15980000Y99822000D03*
X10530000Y99822000D03*
D21*
X5080000Y99822000D03*
%TD*%
D22*
%TO.C,PS3*%
X48260000Y40132000D03*
X48260000Y45212000D03*
X66040000Y19812000D03*
D23*
X66040000Y14732000D03*
D22*
X66040000Y45212000D03*
%TD*%
D24*
%TO.C,PS2*%
X83991000Y6331000D03*
D25*
X86741000Y44831000D03*
X94741000Y6331000D03*
X94741000Y44831000D03*
%TD*%
D22*
%TO.C,PS1*%
X30333000Y48387000D03*
X37933000Y20387000D03*
D26*
X22733000Y20387000D03*
D22*
X22733000Y48387000D03*
%TD*%
D27*
%TO.C,L2*%
X78232000Y91059000D03*
X78232000Y78059000D03*
%TD*%
D28*
%TO.C,L1*%
X14732000Y76327000D03*
X4572000Y76327000D03*
%TD*%
D29*
%TO.C,J2*%
X103695500Y46418500D03*
G36*
G01*
X104995501Y38868500D02*
X102395499Y38868500D01*
G75*
G02*
X102145500Y39118499I0J249999D01*
G01*
X102145500Y41718501D01*
G75*
G02*
X102395499Y41968500I249999J0D01*
G01*
X104995501Y41968500D01*
G75*
G02*
X105245500Y41718501I0J-249999D01*
G01*
X105245500Y39118499D01*
G75*
G02*
X104995501Y38868500I-249999J0D01*
G01*
G37*
%TD*%
%TO.C,J1*%
X51912000Y5969000D03*
G36*
G01*
X59462000Y7269001D02*
X59462000Y4668999D01*
G75*
G02*
X59212001Y4419000I-249999J0D01*
G01*
X56611999Y4419000D01*
G75*
G02*
X56362000Y4668999I0J249999D01*
G01*
X56362000Y7269001D01*
G75*
G02*
X56611999Y7519000I249999J0D01*
G01*
X59212001Y7519000D01*
G75*
G02*
X59462000Y7269001I0J-249999D01*
G01*
G37*
%TD*%
D30*
%TO.C,F1*%
X40132000Y10414000D03*
X3132000Y10414000D03*
%TD*%
D13*
%TO.C,D2*%
X29844000Y57531000D03*
X26544000Y57531000D03*
%TD*%
%TO.C,D1*%
X19686000Y57531000D03*
X22986000Y57531000D03*
%TD*%
D30*
%TO.C,C13*%
X64956000Y62103000D03*
X92456000Y62103000D03*
%TD*%
%TO.C,C12*%
G36*
G01*
X57769999Y90237000D02*
X59070001Y90237000D01*
G75*
G02*
X59320000Y89987001I0J-249999D01*
G01*
X59320000Y89336999D01*
G75*
G02*
X59070001Y89087000I-249999J0D01*
G01*
X57769999Y89087000D01*
G75*
G02*
X57520000Y89336999I0J249999D01*
G01*
X57520000Y89987001D01*
G75*
G02*
X57769999Y90237000I249999J0D01*
G01*
G37*
G36*
G01*
X57769999Y93187000D02*
X59070001Y93187000D01*
G75*
G02*
X59320000Y92937001I0J-249999D01*
G01*
X59320000Y92286999D01*
G75*
G02*
X59070001Y92037000I-249999J0D01*
G01*
X57769999Y92037000D01*
G75*
G02*
X57520000Y92286999I0J249999D01*
G01*
X57520000Y92937001D01*
G75*
G02*
X57769999Y93187000I249999J0D01*
G01*
G37*
%TD*%
%TO.C,C11*%
G36*
G01*
X99057000Y86962000D02*
X99057000Y86012000D01*
G75*
G02*
X98807000Y85762000I-250000J0D01*
G01*
X98307000Y85762000D01*
G75*
G02*
X98057000Y86012000I0J250000D01*
G01*
X98057000Y86962000D01*
G75*
G02*
X98307000Y87212000I250000J0D01*
G01*
X98807000Y87212000D01*
G75*
G02*
X99057000Y86962000I0J-250000D01*
G01*
G37*
G36*
G01*
X100957000Y86962000D02*
X100957000Y86012000D01*
G75*
G02*
X100707000Y85762000I-250000J0D01*
G01*
X100207000Y85762000D01*
G75*
G02*
X99957000Y86012000I0J250000D01*
G01*
X99957000Y86962000D01*
G75*
G02*
X100207000Y87212000I250000J0D01*
G01*
X100707000Y87212000D01*
G75*
G02*
X100957000Y86962000I0J-250000D01*
G01*
G37*
%TD*%
%TO.C,C10*%
G36*
G01*
X96136000Y96868000D02*
X96136000Y95918000D01*
G75*
G02*
X95886000Y95668000I-250000J0D01*
G01*
X95386000Y95668000D01*
G75*
G02*
X95136000Y95918000I0J250000D01*
G01*
X95136000Y96868000D01*
G75*
G02*
X95386000Y97118000I250000J0D01*
G01*
X95886000Y97118000D01*
G75*
G02*
X96136000Y96868000I0J-250000D01*
G01*
G37*
G36*
G01*
X98036000Y96868000D02*
X98036000Y95918000D01*
G75*
G02*
X97786000Y95668000I-250000J0D01*
G01*
X97286000Y95668000D01*
G75*
G02*
X97036000Y95918000I0J250000D01*
G01*
X97036000Y96868000D01*
G75*
G02*
X97286000Y97118000I250000J0D01*
G01*
X97786000Y97118000D01*
G75*
G02*
X98036000Y96868000I0J-250000D01*
G01*
G37*
%TD*%
%TO.C,C9*%
G36*
G01*
X49817000Y55364000D02*
X50767000Y55364000D01*
G75*
G02*
X51017000Y55114000I0J-250000D01*
G01*
X51017000Y54614000D01*
G75*
G02*
X50767000Y54364000I-250000J0D01*
G01*
X49817000Y54364000D01*
G75*
G02*
X49567000Y54614000I0J250000D01*
G01*
X49567000Y55114000D01*
G75*
G02*
X49817000Y55364000I250000J0D01*
G01*
G37*
G36*
G01*
X49817000Y57264000D02*
X50767000Y57264000D01*
G75*
G02*
X51017000Y57014000I0J-250000D01*
G01*
X51017000Y56514000D01*
G75*
G02*
X50767000Y56264000I-250000J0D01*
G01*
X49817000Y56264000D01*
G75*
G02*
X49567000Y56514000I0J250000D01*
G01*
X49567000Y57014000D01*
G75*
G02*
X49817000Y57264000I250000J0D01*
G01*
G37*
%TD*%
%TO.C,C8*%
G36*
G01*
X50767000Y62619000D02*
X49817000Y62619000D01*
G75*
G02*
X49567000Y62869000I0J250000D01*
G01*
X49567000Y63369000D01*
G75*
G02*
X49817000Y63619000I250000J0D01*
G01*
X50767000Y63619000D01*
G75*
G02*
X51017000Y63369000I0J-250000D01*
G01*
X51017000Y62869000D01*
G75*
G02*
X50767000Y62619000I-250000J0D01*
G01*
G37*
G36*
G01*
X50767000Y60719000D02*
X49817000Y60719000D01*
G75*
G02*
X49567000Y60969000I0J250000D01*
G01*
X49567000Y61469000D01*
G75*
G02*
X49817000Y61719000I250000J0D01*
G01*
X50767000Y61719000D01*
G75*
G02*
X51017000Y61469000I0J-250000D01*
G01*
X51017000Y60969000D01*
G75*
G02*
X50767000Y60719000I-250000J0D01*
G01*
G37*
%TD*%
%TO.C,C7*%
G36*
G01*
X25912000Y74592000D02*
X26412000Y74592000D01*
G75*
G02*
X26637000Y74367000I0J-225000D01*
G01*
X26637000Y73917000D01*
G75*
G02*
X26412000Y73692000I-225000J0D01*
G01*
X25912000Y73692000D01*
G75*
G02*
X25687000Y73917000I0J225000D01*
G01*
X25687000Y74367000D01*
G75*
G02*
X25912000Y74592000I225000J0D01*
G01*
G37*
G36*
G01*
X25912000Y76142000D02*
X26412000Y76142000D01*
G75*
G02*
X26637000Y75917000I0J-225000D01*
G01*
X26637000Y75467000D01*
G75*
G02*
X26412000Y75242000I-225000J0D01*
G01*
X25912000Y75242000D01*
G75*
G02*
X25687000Y75467000I0J225000D01*
G01*
X25687000Y75917000D01*
G75*
G02*
X25912000Y76142000I225000J0D01*
G01*
G37*
%TD*%
%TO.C,C6*%
G36*
G01*
X31996000Y93947000D02*
X31996000Y92997000D01*
G75*
G02*
X31746000Y92747000I-250000J0D01*
G01*
X31246000Y92747000D01*
G75*
G02*
X30996000Y92997000I0J250000D01*
G01*
X30996000Y93947000D01*
G75*
G02*
X31246000Y94197000I250000J0D01*
G01*
X31746000Y94197000D01*
G75*
G02*
X31996000Y93947000I0J-250000D01*
G01*
G37*
G36*
G01*
X33896000Y93947000D02*
X33896000Y92997000D01*
G75*
G02*
X33646000Y92747000I-250000J0D01*
G01*
X33146000Y92747000D01*
G75*
G02*
X32896000Y92997000I0J250000D01*
G01*
X32896000Y93947000D01*
G75*
G02*
X33146000Y94197000I250000J0D01*
G01*
X33646000Y94197000D01*
G75*
G02*
X33896000Y93947000I0J-250000D01*
G01*
G37*
%TD*%
%TO.C,C5*%
G36*
G01*
X34511000Y75192000D02*
X33561000Y75192000D01*
G75*
G02*
X33311000Y75442000I0J250000D01*
G01*
X33311000Y75942000D01*
G75*
G02*
X33561000Y76192000I250000J0D01*
G01*
X34511000Y76192000D01*
G75*
G02*
X34761000Y75942000I0J-250000D01*
G01*
X34761000Y75442000D01*
G75*
G02*
X34511000Y75192000I-250000J0D01*
G01*
G37*
G36*
G01*
X34511000Y73292000D02*
X33561000Y73292000D01*
G75*
G02*
X33311000Y73542000I0J250000D01*
G01*
X33311000Y74042000D01*
G75*
G02*
X33561000Y74292000I250000J0D01*
G01*
X34511000Y74292000D01*
G75*
G02*
X34761000Y74042000I0J-250000D01*
G01*
X34761000Y73542000D01*
G75*
G02*
X34511000Y73292000I-250000J0D01*
G01*
G37*
%TD*%
%TO.C,C4*%
G36*
G01*
X42306001Y88833000D02*
X41005999Y88833000D01*
G75*
G02*
X40756000Y89082999I0J249999D01*
G01*
X40756000Y89733001D01*
G75*
G02*
X41005999Y89983000I249999J0D01*
G01*
X42306001Y89983000D01*
G75*
G02*
X42556000Y89733001I0J-249999D01*
G01*
X42556000Y89082999D01*
G75*
G02*
X42306001Y88833000I-249999J0D01*
G01*
G37*
G36*
G01*
X42306001Y85883000D02*
X41005999Y85883000D01*
G75*
G02*
X40756000Y86132999I0J249999D01*
G01*
X40756000Y86783001D01*
G75*
G02*
X41005999Y87033000I249999J0D01*
G01*
X42306001Y87033000D01*
G75*
G02*
X42556000Y86783001I0J-249999D01*
G01*
X42556000Y86132999D01*
G75*
G02*
X42306001Y85883000I-249999J0D01*
G01*
G37*
%TD*%
%TO.C,C3*%
G36*
G01*
X21478001Y88452000D02*
X20177999Y88452000D01*
G75*
G02*
X19928000Y88701999I0J249999D01*
G01*
X19928000Y89352001D01*
G75*
G02*
X20177999Y89602000I249999J0D01*
G01*
X21478001Y89602000D01*
G75*
G02*
X21728000Y89352001I0J-249999D01*
G01*
X21728000Y88701999D01*
G75*
G02*
X21478001Y88452000I-249999J0D01*
G01*
G37*
G36*
G01*
X21478001Y85502000D02*
X20177999Y85502000D01*
G75*
G02*
X19928000Y85751999I0J249999D01*
G01*
X19928000Y86402001D01*
G75*
G02*
X20177999Y86652000I249999J0D01*
G01*
X21478001Y86652000D01*
G75*
G02*
X21728000Y86402001I0J-249999D01*
G01*
X21728000Y85751999D01*
G75*
G02*
X21478001Y85502000I-249999J0D01*
G01*
G37*
%TD*%
%TO.C,C2*%
X9144000Y29777000D03*
X9144000Y57277000D03*
%TD*%
%TO.C,C1*%
G36*
G01*
X24859000Y63061000D02*
X23909000Y63061000D01*
G75*
G02*
X23659000Y63311000I0J250000D01*
G01*
X23659000Y63811000D01*
G75*
G02*
X23909000Y64061000I250000J0D01*
G01*
X24859000Y64061000D01*
G75*
G02*
X25109000Y63811000I0J-250000D01*
G01*
X25109000Y63311000D01*
G75*
G02*
X24859000Y63061000I-250000J0D01*
G01*
G37*
G36*
G01*
X24859000Y61161000D02*
X23909000Y61161000D01*
G75*
G02*
X23659000Y61411000I0J250000D01*
G01*
X23659000Y61911000D01*
G75*
G02*
X23909000Y62161000I250000J0D01*
G01*
X24859000Y62161000D01*
G75*
G02*
X25109000Y61911000I0J-250000D01*
G01*
X25109000Y61411000D01*
G75*
G02*
X24859000Y61161000I-250000J0D01*
G01*
G37*
%TD*%
M02*
