%TF.GenerationSoftware,KiCad,Pcbnew,(5.1.7)-1*%
%TF.CreationDate,2020-12-23T12:42:28-08:00*%
%TF.ProjectId,Sine_Dimmer,53696e65-5f44-4696-9d6d-65722e6b6963,1.0*%
%TF.SameCoordinates,PX544c140PY8fe2f60*%
%TF.FileFunction,Copper,L1,Top*%
%TF.FilePolarity,Positive*%
%FSLAX46Y46*%
G04 Gerber Fmt 4.6, Leading zero omitted, Abs format (unit mm)*
G04 Created by KiCad (PCBNEW (5.1.7)-1) date 2020-12-23 12:42:28*
%MOMM*%
%LPD*%
G01*
G04 APERTURE LIST*
%TA.AperFunction,Profile*%
%ADD10C,0.050000*%
%TD*%
%TA.AperFunction,SMDPad,CuDef*%
%ADD11R,0.900000X1.200000*%
%TD*%
%TA.AperFunction,SMDPad,CuDef*%
%ADD12R,1.200000X0.900000*%
%TD*%
%TA.AperFunction,SMDPad,CuDef*%
%ADD13R,1.500000X2.000000*%
%TD*%
%TA.AperFunction,SMDPad,CuDef*%
%ADD14R,3.800000X2.000000*%
%TD*%
%TA.AperFunction,SMDPad,CuDef*%
%ADD15R,1.000000X2.500000*%
%TD*%
%TA.AperFunction,SMDPad,CuDef*%
%ADD16R,1.800000X1.000000*%
%TD*%
%TA.AperFunction,SMDPad,CuDef*%
%ADD17R,1.300000X0.800000*%
%TD*%
%TA.AperFunction,ComponentPad*%
%ADD18O,2.500000X4.500000*%
%TD*%
%TA.AperFunction,ComponentPad*%
%ADD19R,2.500000X4.500000*%
%TD*%
%TA.AperFunction,ComponentPad*%
%ADD20C,2.300000*%
%TD*%
%TA.AperFunction,ComponentPad*%
%ADD21R,2.300000X2.000000*%
%TD*%
%TA.AperFunction,ComponentPad*%
%ADD22R,3.000000X3.000000*%
%TD*%
%TA.AperFunction,ComponentPad*%
%ADD23C,3.000000*%
%TD*%
%TA.AperFunction,ComponentPad*%
%ADD24R,2.000000X2.300000*%
%TD*%
%TA.AperFunction,ComponentPad*%
%ADD25C,5.000000*%
%TD*%
%TA.AperFunction,ComponentPad*%
%ADD26C,3.600000*%
%TD*%
%TA.AperFunction,ComponentPad*%
%ADD27C,3.100000*%
%TD*%
%TA.AperFunction,ComponentPad*%
%ADD28C,2.400000*%
%TD*%
%TA.AperFunction,ViaPad*%
%ADD29C,0.800000*%
%TD*%
%TA.AperFunction,Conductor*%
%ADD30C,0.500000*%
%TD*%
%TA.AperFunction,Conductor*%
%ADD31C,0.400000*%
%TD*%
%TA.AperFunction,Conductor*%
%ADD32C,3.000000*%
%TD*%
%TA.AperFunction,Conductor*%
%ADD33C,1.000000*%
%TD*%
%TA.AperFunction,Conductor*%
%ADD34C,0.254000*%
%TD*%
%TA.AperFunction,Conductor*%
%ADD35C,0.100000*%
%TD*%
G04 APERTURE END LIST*
D10*
X0Y0D02*
X0Y115824000D01*
X108712000Y0D02*
X0Y0D01*
X108712000Y53848000D02*
X108712000Y0D01*
X108712000Y115824000D02*
X108712000Y103124000D01*
X0Y115824000D02*
X108712000Y115824000D01*
X123444000Y53848000D02*
X108712000Y53848000D01*
X123444000Y103124000D02*
X123444000Y53848000D01*
X108712000Y103124000D02*
X123444000Y103124000D01*
D11*
%TO.P,D6,2*%
%TO.N,Net-(D3-Pad2)*%
X39276000Y73406000D03*
%TO.P,D6,1*%
%TO.N,Net-(D5-Pad1)*%
X42576000Y73406000D03*
%TD*%
D12*
%TO.P,D5,2*%
%TO.N,fwd*%
X58674000Y75979000D03*
%TO.P,D5,1*%
%TO.N,Net-(D5-Pad1)*%
X58674000Y79279000D03*
%TD*%
D11*
%TO.P,D4,2*%
%TO.N,rev*%
X57752000Y84963000D03*
%TO.P,D4,1*%
%TO.N,Net-(D3-Pad1)*%
X54452000Y84963000D03*
%TD*%
%TO.P,D3,2*%
%TO.N,Net-(D3-Pad2)*%
X39276000Y78994000D03*
%TO.P,D3,1*%
%TO.N,Net-(D3-Pad1)*%
X42576000Y78994000D03*
%TD*%
D13*
%TO.P,VR1,1*%
%TO.N,VCC*%
X101459000Y90830000D03*
%TO.P,VR1,3*%
%TO.N,Net-(C11-Pad1)*%
X106059000Y90830000D03*
%TO.P,VR1,2*%
%TO.N,GND*%
X103759000Y90830000D03*
D14*
%TO.P,VR1,4*%
X103759000Y97130000D03*
%TD*%
D15*
%TO.P,U6,22*%
%TO.N,Net-(U6-Pad22)*%
X114498000Y66695000D03*
%TO.P,U6,21*%
%TO.N,Net-(U6-Pad21)*%
X112498000Y66695000D03*
%TO.P,U6,20*%
%TO.N,Net-(U6-Pad20)*%
X110498000Y66695000D03*
%TO.P,U6,19*%
%TO.N,Net-(U6-Pad19)*%
X108498000Y66695000D03*
%TO.P,U6,18*%
%TO.N,Net-(R11-Pad2)*%
X106498000Y66695000D03*
%TO.P,U6,17*%
%TO.N,Net-(R12-Pad2)*%
X104498000Y66695000D03*
%TO.P,U6,16*%
%TO.N,Net-(R13-Pad2)*%
X102498000Y66695000D03*
%TO.P,U6,15*%
%TO.N,GND*%
X100498000Y66695000D03*
D16*
%TO.P,U6,14*%
%TO.N,Net-(U6-Pad14)*%
X98998000Y69295000D03*
%TO.P,U6,13*%
%TO.N,Net-(U6-Pad13)*%
X98998000Y71295000D03*
%TO.P,U6,12*%
%TO.N,Net-(U6-Pad12)*%
X98998000Y73295000D03*
%TO.P,U6,11*%
%TO.N,Net-(U6-Pad11)*%
X98998000Y75295000D03*
%TO.P,U6,10*%
%TO.N,Net-(U6-Pad10)*%
X98998000Y77295000D03*
%TO.P,U6,9*%
%TO.N,Net-(U6-Pad9)*%
X98998000Y79295000D03*
D15*
%TO.P,U6,8*%
%TO.N,Net-(C11-Pad1)*%
X100498000Y81895000D03*
%TO.P,U6,7*%
%TO.N,Net-(U6-Pad7)*%
X102498000Y81895000D03*
%TO.P,U6,6*%
%TO.N,pwm*%
X104498000Y81895000D03*
%TO.P,U6,5*%
%TO.N,dis*%
X106498000Y81895000D03*
%TO.P,U6,4*%
%TO.N,Net-(U6-Pad4)*%
X108498000Y81895000D03*
%TO.P,U6,3*%
%TO.N,Net-(R10-Pad1)*%
X110498000Y81895000D03*
%TO.P,U6,2*%
%TO.N,Net-(U6-Pad2)*%
X112498000Y81895000D03*
%TO.P,U6,1*%
%TO.N,Net-(R9-Pad1)*%
X114498000Y81895000D03*
%TD*%
%TO.P,U5,16*%
%TO.N,VCC*%
%TA.AperFunction,SMDPad,CuDef*%
G36*
G01*
X25296000Y88002000D02*
X24996000Y88002000D01*
G75*
G02*
X24846000Y88152000I0J150000D01*
G01*
X24846000Y89902000D01*
G75*
G02*
X24996000Y90052000I150000J0D01*
G01*
X25296000Y90052000D01*
G75*
G02*
X25446000Y89902000I0J-150000D01*
G01*
X25446000Y88152000D01*
G75*
G02*
X25296000Y88002000I-150000J0D01*
G01*
G37*
%TD.AperFunction*%
%TO.P,U5,15*%
%TO.N,Net-(R5-Pad2)*%
%TA.AperFunction,SMDPad,CuDef*%
G36*
G01*
X26566000Y88002000D02*
X26266000Y88002000D01*
G75*
G02*
X26116000Y88152000I0J150000D01*
G01*
X26116000Y89902000D01*
G75*
G02*
X26266000Y90052000I150000J0D01*
G01*
X26566000Y90052000D01*
G75*
G02*
X26716000Y89902000I0J-150000D01*
G01*
X26716000Y88152000D01*
G75*
G02*
X26566000Y88002000I-150000J0D01*
G01*
G37*
%TD.AperFunction*%
%TO.P,U5,14*%
%TO.N,GND*%
%TA.AperFunction,SMDPad,CuDef*%
G36*
G01*
X27836000Y88002000D02*
X27536000Y88002000D01*
G75*
G02*
X27386000Y88152000I0J150000D01*
G01*
X27386000Y89902000D01*
G75*
G02*
X27536000Y90052000I150000J0D01*
G01*
X27836000Y90052000D01*
G75*
G02*
X27986000Y89902000I0J-150000D01*
G01*
X27986000Y88152000D01*
G75*
G02*
X27836000Y88002000I-150000J0D01*
G01*
G37*
%TD.AperFunction*%
%TO.P,U5,13*%
%TO.N,N/C*%
%TA.AperFunction,SMDPad,CuDef*%
G36*
G01*
X29106000Y88002000D02*
X28806000Y88002000D01*
G75*
G02*
X28656000Y88152000I0J150000D01*
G01*
X28656000Y89902000D01*
G75*
G02*
X28806000Y90052000I150000J0D01*
G01*
X29106000Y90052000D01*
G75*
G02*
X29256000Y89902000I0J-150000D01*
G01*
X29256000Y88152000D01*
G75*
G02*
X29106000Y88002000I-150000J0D01*
G01*
G37*
%TD.AperFunction*%
%TO.P,U5,12*%
%TA.AperFunction,SMDPad,CuDef*%
G36*
G01*
X30376000Y88002000D02*
X30076000Y88002000D01*
G75*
G02*
X29926000Y88152000I0J150000D01*
G01*
X29926000Y89902000D01*
G75*
G02*
X30076000Y90052000I150000J0D01*
G01*
X30376000Y90052000D01*
G75*
G02*
X30526000Y89902000I0J-150000D01*
G01*
X30526000Y88152000D01*
G75*
G02*
X30376000Y88002000I-150000J0D01*
G01*
G37*
%TD.AperFunction*%
%TO.P,U5,11*%
%TO.N,VDD*%
%TA.AperFunction,SMDPad,CuDef*%
G36*
G01*
X31646000Y88002000D02*
X31346000Y88002000D01*
G75*
G02*
X31196000Y88152000I0J150000D01*
G01*
X31196000Y89902000D01*
G75*
G02*
X31346000Y90052000I150000J0D01*
G01*
X31646000Y90052000D01*
G75*
G02*
X31796000Y89902000I0J-150000D01*
G01*
X31796000Y88152000D01*
G75*
G02*
X31646000Y88002000I-150000J0D01*
G01*
G37*
%TD.AperFunction*%
%TO.P,U5,10*%
%TO.N,Net-(D3-Pad2)*%
%TA.AperFunction,SMDPad,CuDef*%
G36*
G01*
X32916000Y88002000D02*
X32616000Y88002000D01*
G75*
G02*
X32466000Y88152000I0J150000D01*
G01*
X32466000Y89902000D01*
G75*
G02*
X32616000Y90052000I150000J0D01*
G01*
X32916000Y90052000D01*
G75*
G02*
X33066000Y89902000I0J-150000D01*
G01*
X33066000Y88152000D01*
G75*
G02*
X32916000Y88002000I-150000J0D01*
G01*
G37*
%TD.AperFunction*%
%TO.P,U5,9*%
%TO.N,VSS*%
%TA.AperFunction,SMDPad,CuDef*%
G36*
G01*
X34186000Y88002000D02*
X33886000Y88002000D01*
G75*
G02*
X33736000Y88152000I0J150000D01*
G01*
X33736000Y89902000D01*
G75*
G02*
X33886000Y90052000I150000J0D01*
G01*
X34186000Y90052000D01*
G75*
G02*
X34336000Y89902000I0J-150000D01*
G01*
X34336000Y88152000D01*
G75*
G02*
X34186000Y88002000I-150000J0D01*
G01*
G37*
%TD.AperFunction*%
%TO.P,U5,8*%
%TO.N,VCC*%
%TA.AperFunction,SMDPad,CuDef*%
G36*
G01*
X34186000Y78702000D02*
X33886000Y78702000D01*
G75*
G02*
X33736000Y78852000I0J150000D01*
G01*
X33736000Y80602000D01*
G75*
G02*
X33886000Y80752000I150000J0D01*
G01*
X34186000Y80752000D01*
G75*
G02*
X34336000Y80602000I0J-150000D01*
G01*
X34336000Y78852000D01*
G75*
G02*
X34186000Y78702000I-150000J0D01*
G01*
G37*
%TD.AperFunction*%
%TO.P,U5,7*%
%TO.N,N/C*%
%TA.AperFunction,SMDPad,CuDef*%
G36*
G01*
X32916000Y78702000D02*
X32616000Y78702000D01*
G75*
G02*
X32466000Y78852000I0J150000D01*
G01*
X32466000Y80602000D01*
G75*
G02*
X32616000Y80752000I150000J0D01*
G01*
X32916000Y80752000D01*
G75*
G02*
X33066000Y80602000I0J-150000D01*
G01*
X33066000Y78852000D01*
G75*
G02*
X32916000Y78702000I-150000J0D01*
G01*
G37*
%TD.AperFunction*%
%TO.P,U5,6*%
%TO.N,Net-(C7-Pad1)*%
%TA.AperFunction,SMDPad,CuDef*%
G36*
G01*
X31646000Y78702000D02*
X31346000Y78702000D01*
G75*
G02*
X31196000Y78852000I0J150000D01*
G01*
X31196000Y80602000D01*
G75*
G02*
X31346000Y80752000I150000J0D01*
G01*
X31646000Y80752000D01*
G75*
G02*
X31796000Y80602000I0J-150000D01*
G01*
X31796000Y78852000D01*
G75*
G02*
X31646000Y78702000I-150000J0D01*
G01*
G37*
%TD.AperFunction*%
%TO.P,U5,5*%
%TO.N,dis*%
%TA.AperFunction,SMDPad,CuDef*%
G36*
G01*
X30376000Y78702000D02*
X30076000Y78702000D01*
G75*
G02*
X29926000Y78852000I0J150000D01*
G01*
X29926000Y80602000D01*
G75*
G02*
X30076000Y80752000I150000J0D01*
G01*
X30376000Y80752000D01*
G75*
G02*
X30526000Y80602000I0J-150000D01*
G01*
X30526000Y78852000D01*
G75*
G02*
X30376000Y78702000I-150000J0D01*
G01*
G37*
%TD.AperFunction*%
%TO.P,U5,4*%
%TO.N,GND*%
%TA.AperFunction,SMDPad,CuDef*%
G36*
G01*
X29106000Y78702000D02*
X28806000Y78702000D01*
G75*
G02*
X28656000Y78852000I0J150000D01*
G01*
X28656000Y80602000D01*
G75*
G02*
X28806000Y80752000I150000J0D01*
G01*
X29106000Y80752000D01*
G75*
G02*
X29256000Y80602000I0J-150000D01*
G01*
X29256000Y78852000D01*
G75*
G02*
X29106000Y78702000I-150000J0D01*
G01*
G37*
%TD.AperFunction*%
%TO.P,U5,3*%
%TO.N,VCC*%
%TA.AperFunction,SMDPad,CuDef*%
G36*
G01*
X27836000Y78702000D02*
X27536000Y78702000D01*
G75*
G02*
X27386000Y78852000I0J150000D01*
G01*
X27386000Y80602000D01*
G75*
G02*
X27536000Y80752000I150000J0D01*
G01*
X27836000Y80752000D01*
G75*
G02*
X27986000Y80602000I0J-150000D01*
G01*
X27986000Y78852000D01*
G75*
G02*
X27836000Y78702000I-150000J0D01*
G01*
G37*
%TD.AperFunction*%
%TO.P,U5,2*%
%TO.N,N/C*%
%TA.AperFunction,SMDPad,CuDef*%
G36*
G01*
X26566000Y78702000D02*
X26266000Y78702000D01*
G75*
G02*
X26116000Y78852000I0J150000D01*
G01*
X26116000Y80602000D01*
G75*
G02*
X26266000Y80752000I150000J0D01*
G01*
X26566000Y80752000D01*
G75*
G02*
X26716000Y80602000I0J-150000D01*
G01*
X26716000Y78852000D01*
G75*
G02*
X26566000Y78702000I-150000J0D01*
G01*
G37*
%TD.AperFunction*%
%TO.P,U5,1*%
%TO.N,pwm*%
%TA.AperFunction,SMDPad,CuDef*%
G36*
G01*
X25296000Y78702000D02*
X24996000Y78702000D01*
G75*
G02*
X24846000Y78852000I0J150000D01*
G01*
X24846000Y80602000D01*
G75*
G02*
X24996000Y80752000I150000J0D01*
G01*
X25296000Y80752000D01*
G75*
G02*
X25446000Y80602000I0J-150000D01*
G01*
X25446000Y78852000D01*
G75*
G02*
X25296000Y78702000I-150000J0D01*
G01*
G37*
%TD.AperFunction*%
%TD*%
%TO.P,U4,8*%
%TO.N,VDD*%
%TA.AperFunction,SMDPad,CuDef*%
G36*
G01*
X45997000Y88052000D02*
X45697000Y88052000D01*
G75*
G02*
X45547000Y88202000I0J150000D01*
G01*
X45547000Y89852000D01*
G75*
G02*
X45697000Y90002000I150000J0D01*
G01*
X45997000Y90002000D01*
G75*
G02*
X46147000Y89852000I0J-150000D01*
G01*
X46147000Y88202000D01*
G75*
G02*
X45997000Y88052000I-150000J0D01*
G01*
G37*
%TD.AperFunction*%
%TO.P,U4,7*%
%TO.N,Net-(R7-Pad2)*%
%TA.AperFunction,SMDPad,CuDef*%
G36*
G01*
X47267000Y88052000D02*
X46967000Y88052000D01*
G75*
G02*
X46817000Y88202000I0J150000D01*
G01*
X46817000Y89852000D01*
G75*
G02*
X46967000Y90002000I150000J0D01*
G01*
X47267000Y90002000D01*
G75*
G02*
X47417000Y89852000I0J-150000D01*
G01*
X47417000Y88202000D01*
G75*
G02*
X47267000Y88052000I-150000J0D01*
G01*
G37*
%TD.AperFunction*%
%TO.P,U4,6*%
%TO.N,VDD*%
%TA.AperFunction,SMDPad,CuDef*%
G36*
G01*
X48537000Y88052000D02*
X48237000Y88052000D01*
G75*
G02*
X48087000Y88202000I0J150000D01*
G01*
X48087000Y89852000D01*
G75*
G02*
X48237000Y90002000I150000J0D01*
G01*
X48537000Y90002000D01*
G75*
G02*
X48687000Y89852000I0J-150000D01*
G01*
X48687000Y88202000D01*
G75*
G02*
X48537000Y88052000I-150000J0D01*
G01*
G37*
%TD.AperFunction*%
%TO.P,U4,5*%
%TO.N,Net-(R8-Pad2)*%
%TA.AperFunction,SMDPad,CuDef*%
G36*
G01*
X49807000Y88052000D02*
X49507000Y88052000D01*
G75*
G02*
X49357000Y88202000I0J150000D01*
G01*
X49357000Y89852000D01*
G75*
G02*
X49507000Y90002000I150000J0D01*
G01*
X49807000Y90002000D01*
G75*
G02*
X49957000Y89852000I0J-150000D01*
G01*
X49957000Y88202000D01*
G75*
G02*
X49807000Y88052000I-150000J0D01*
G01*
G37*
%TD.AperFunction*%
%TO.P,U4,4*%
%TO.N,Net-(D5-Pad1)*%
%TA.AperFunction,SMDPad,CuDef*%
G36*
G01*
X49807000Y83102000D02*
X49507000Y83102000D01*
G75*
G02*
X49357000Y83252000I0J150000D01*
G01*
X49357000Y84902000D01*
G75*
G02*
X49507000Y85052000I150000J0D01*
G01*
X49807000Y85052000D01*
G75*
G02*
X49957000Y84902000I0J-150000D01*
G01*
X49957000Y83252000D01*
G75*
G02*
X49807000Y83102000I-150000J0D01*
G01*
G37*
%TD.AperFunction*%
%TO.P,U4,3*%
%TO.N,VSS*%
%TA.AperFunction,SMDPad,CuDef*%
G36*
G01*
X48537000Y83102000D02*
X48237000Y83102000D01*
G75*
G02*
X48087000Y83252000I0J150000D01*
G01*
X48087000Y84902000D01*
G75*
G02*
X48237000Y85052000I150000J0D01*
G01*
X48537000Y85052000D01*
G75*
G02*
X48687000Y84902000I0J-150000D01*
G01*
X48687000Y83252000D01*
G75*
G02*
X48537000Y83102000I-150000J0D01*
G01*
G37*
%TD.AperFunction*%
%TO.P,U4,2*%
%TO.N,Net-(D3-Pad1)*%
%TA.AperFunction,SMDPad,CuDef*%
G36*
G01*
X47267000Y83102000D02*
X46967000Y83102000D01*
G75*
G02*
X46817000Y83252000I0J150000D01*
G01*
X46817000Y84902000D01*
G75*
G02*
X46967000Y85052000I150000J0D01*
G01*
X47267000Y85052000D01*
G75*
G02*
X47417000Y84902000I0J-150000D01*
G01*
X47417000Y83252000D01*
G75*
G02*
X47267000Y83102000I-150000J0D01*
G01*
G37*
%TD.AperFunction*%
%TO.P,U4,1*%
%TO.N,VDD*%
%TA.AperFunction,SMDPad,CuDef*%
G36*
G01*
X45997000Y83102000D02*
X45697000Y83102000D01*
G75*
G02*
X45547000Y83252000I0J150000D01*
G01*
X45547000Y84902000D01*
G75*
G02*
X45697000Y85052000I150000J0D01*
G01*
X45997000Y85052000D01*
G75*
G02*
X46147000Y84902000I0J-150000D01*
G01*
X46147000Y83252000D01*
G75*
G02*
X45997000Y83102000I-150000J0D01*
G01*
G37*
%TD.AperFunction*%
%TD*%
D17*
%TO.P,U3,6*%
%TO.N,VDD*%
X46279000Y57023000D03*
%TO.P,U3,5*%
%TO.N,fwd*%
X46279000Y55753000D03*
%TO.P,U3,4*%
%TO.N,VSS*%
X46279000Y54483000D03*
%TO.P,U3,3*%
%TO.N,NEUT*%
X36779000Y54483000D03*
%TO.P,U3,2*%
%TO.N,Net-(U3-Pad2)*%
X36779000Y55753000D03*
%TO.P,U3,1*%
%TO.N,Net-(U1-Pad7)*%
X36779000Y57023000D03*
%TD*%
%TO.P,U2,6*%
%TO.N,VDD*%
X46305000Y63416000D03*
%TO.P,U2,5*%
%TO.N,rev*%
X46305000Y62146000D03*
%TO.P,U2,4*%
%TO.N,VSS*%
X46305000Y60876000D03*
%TO.P,U2,3*%
%TO.N,NEUT*%
X36805000Y60876000D03*
%TO.P,U2,2*%
%TO.N,Net-(U2-Pad2)*%
X36805000Y62146000D03*
%TO.P,U2,1*%
%TO.N,Net-(U1-Pad8)*%
X36805000Y63416000D03*
%TD*%
%TO.P,U1,8*%
%TO.N,Net-(U1-Pad8)*%
%TA.AperFunction,SMDPad,CuDef*%
G36*
G01*
X31907000Y63486000D02*
X31907000Y63686000D01*
G75*
G02*
X32007000Y63786000I100000J0D01*
G01*
X33432000Y63786000D01*
G75*
G02*
X33532000Y63686000I0J-100000D01*
G01*
X33532000Y63486000D01*
G75*
G02*
X33432000Y63386000I-100000J0D01*
G01*
X32007000Y63386000D01*
G75*
G02*
X31907000Y63486000I0J100000D01*
G01*
G37*
%TD.AperFunction*%
%TO.P,U1,7*%
%TO.N,Net-(U1-Pad7)*%
%TA.AperFunction,SMDPad,CuDef*%
G36*
G01*
X31907000Y62836000D02*
X31907000Y63036000D01*
G75*
G02*
X32007000Y63136000I100000J0D01*
G01*
X33432000Y63136000D01*
G75*
G02*
X33532000Y63036000I0J-100000D01*
G01*
X33532000Y62836000D01*
G75*
G02*
X33432000Y62736000I-100000J0D01*
G01*
X32007000Y62736000D01*
G75*
G02*
X31907000Y62836000I0J100000D01*
G01*
G37*
%TD.AperFunction*%
%TO.P,U1,6*%
%TO.N,NEUT*%
%TA.AperFunction,SMDPad,CuDef*%
G36*
G01*
X31907000Y62186000D02*
X31907000Y62386000D01*
G75*
G02*
X32007000Y62486000I100000J0D01*
G01*
X33432000Y62486000D01*
G75*
G02*
X33532000Y62386000I0J-100000D01*
G01*
X33532000Y62186000D01*
G75*
G02*
X33432000Y62086000I-100000J0D01*
G01*
X32007000Y62086000D01*
G75*
G02*
X31907000Y62186000I0J100000D01*
G01*
G37*
%TD.AperFunction*%
%TO.P,U1,5*%
%TA.AperFunction,SMDPad,CuDef*%
G36*
G01*
X31907000Y61536000D02*
X31907000Y61736000D01*
G75*
G02*
X32007000Y61836000I100000J0D01*
G01*
X33432000Y61836000D01*
G75*
G02*
X33532000Y61736000I0J-100000D01*
G01*
X33532000Y61536000D01*
G75*
G02*
X33432000Y61436000I-100000J0D01*
G01*
X32007000Y61436000D01*
G75*
G02*
X31907000Y61536000I0J100000D01*
G01*
G37*
%TD.AperFunction*%
%TO.P,U1,4*%
%TA.AperFunction,SMDPad,CuDef*%
G36*
G01*
X27682000Y61536000D02*
X27682000Y61736000D01*
G75*
G02*
X27782000Y61836000I100000J0D01*
G01*
X29207000Y61836000D01*
G75*
G02*
X29307000Y61736000I0J-100000D01*
G01*
X29307000Y61536000D01*
G75*
G02*
X29207000Y61436000I-100000J0D01*
G01*
X27782000Y61436000D01*
G75*
G02*
X27682000Y61536000I0J100000D01*
G01*
G37*
%TD.AperFunction*%
%TO.P,U1,3*%
%TA.AperFunction,SMDPad,CuDef*%
G36*
G01*
X27682000Y62186000D02*
X27682000Y62386000D01*
G75*
G02*
X27782000Y62486000I100000J0D01*
G01*
X29207000Y62486000D01*
G75*
G02*
X29307000Y62386000I0J-100000D01*
G01*
X29307000Y62186000D01*
G75*
G02*
X29207000Y62086000I-100000J0D01*
G01*
X27782000Y62086000D01*
G75*
G02*
X27682000Y62186000I0J100000D01*
G01*
G37*
%TD.AperFunction*%
%TO.P,U1,2*%
%TO.N,Net-(D1-Pad2)*%
%TA.AperFunction,SMDPad,CuDef*%
G36*
G01*
X27682000Y62836000D02*
X27682000Y63036000D01*
G75*
G02*
X27782000Y63136000I100000J0D01*
G01*
X29207000Y63136000D01*
G75*
G02*
X29307000Y63036000I0J-100000D01*
G01*
X29307000Y62836000D01*
G75*
G02*
X29207000Y62736000I-100000J0D01*
G01*
X27782000Y62736000D01*
G75*
G02*
X27682000Y62836000I0J100000D01*
G01*
G37*
%TD.AperFunction*%
%TO.P,U1,1*%
%TO.N,Net-(C1-Pad2)*%
%TA.AperFunction,SMDPad,CuDef*%
G36*
G01*
X27682000Y63486000D02*
X27682000Y63686000D01*
G75*
G02*
X27782000Y63786000I100000J0D01*
G01*
X29207000Y63786000D01*
G75*
G02*
X29307000Y63686000I0J-100000D01*
G01*
X29307000Y63486000D01*
G75*
G02*
X29207000Y63386000I-100000J0D01*
G01*
X27782000Y63386000D01*
G75*
G02*
X27682000Y63486000I0J100000D01*
G01*
G37*
%TD.AperFunction*%
%TD*%
%TO.P,R13,2*%
%TO.N,Net-(R13-Pad2)*%
%TA.AperFunction,SMDPad,CuDef*%
G36*
G01*
X99891001Y61844500D02*
X98990999Y61844500D01*
G75*
G02*
X98741000Y62094499I0J249999D01*
G01*
X98741000Y62619501D01*
G75*
G02*
X98990999Y62869500I249999J0D01*
G01*
X99891001Y62869500D01*
G75*
G02*
X100141000Y62619501I0J-249999D01*
G01*
X100141000Y62094499D01*
G75*
G02*
X99891001Y61844500I-249999J0D01*
G01*
G37*
%TD.AperFunction*%
%TO.P,R13,1*%
%TO.N,GND*%
%TA.AperFunction,SMDPad,CuDef*%
G36*
G01*
X99891001Y60019500D02*
X98990999Y60019500D01*
G75*
G02*
X98741000Y60269499I0J249999D01*
G01*
X98741000Y60794501D01*
G75*
G02*
X98990999Y61044500I249999J0D01*
G01*
X99891001Y61044500D01*
G75*
G02*
X100141000Y60794501I0J-249999D01*
G01*
X100141000Y60269499D01*
G75*
G02*
X99891001Y60019500I-249999J0D01*
G01*
G37*
%TD.AperFunction*%
%TD*%
%TO.P,R12,2*%
%TO.N,Net-(R12-Pad2)*%
%TA.AperFunction,SMDPad,CuDef*%
G36*
G01*
X103955001Y61844500D02*
X103054999Y61844500D01*
G75*
G02*
X102805000Y62094499I0J249999D01*
G01*
X102805000Y62619501D01*
G75*
G02*
X103054999Y62869500I249999J0D01*
G01*
X103955001Y62869500D01*
G75*
G02*
X104205000Y62619501I0J-249999D01*
G01*
X104205000Y62094499D01*
G75*
G02*
X103955001Y61844500I-249999J0D01*
G01*
G37*
%TD.AperFunction*%
%TO.P,R12,1*%
%TO.N,Net-(C11-Pad1)*%
%TA.AperFunction,SMDPad,CuDef*%
G36*
G01*
X103955001Y60019500D02*
X103054999Y60019500D01*
G75*
G02*
X102805000Y60269499I0J249999D01*
G01*
X102805000Y60794501D01*
G75*
G02*
X103054999Y61044500I249999J0D01*
G01*
X103955001Y61044500D01*
G75*
G02*
X104205000Y60794501I0J-249999D01*
G01*
X104205000Y60269499D01*
G75*
G02*
X103955001Y60019500I-249999J0D01*
G01*
G37*
%TD.AperFunction*%
%TD*%
%TO.P,R11,2*%
%TO.N,Net-(R11-Pad2)*%
%TA.AperFunction,SMDPad,CuDef*%
G36*
G01*
X107892001Y61844500D02*
X106991999Y61844500D01*
G75*
G02*
X106742000Y62094499I0J249999D01*
G01*
X106742000Y62619501D01*
G75*
G02*
X106991999Y62869500I249999J0D01*
G01*
X107892001Y62869500D01*
G75*
G02*
X108142000Y62619501I0J-249999D01*
G01*
X108142000Y62094499D01*
G75*
G02*
X107892001Y61844500I-249999J0D01*
G01*
G37*
%TD.AperFunction*%
%TO.P,R11,1*%
%TO.N,Net-(C11-Pad1)*%
%TA.AperFunction,SMDPad,CuDef*%
G36*
G01*
X107892001Y60019500D02*
X106991999Y60019500D01*
G75*
G02*
X106742000Y60269499I0J249999D01*
G01*
X106742000Y60794501D01*
G75*
G02*
X106991999Y61044500I249999J0D01*
G01*
X107892001Y61044500D01*
G75*
G02*
X108142000Y60794501I0J-249999D01*
G01*
X108142000Y60269499D01*
G75*
G02*
X107892001Y60019500I-249999J0D01*
G01*
G37*
%TD.AperFunction*%
%TD*%
%TO.P,R10,2*%
%TO.N,Net-(C11-Pad1)*%
%TA.AperFunction,SMDPad,CuDef*%
G36*
G01*
X110940001Y87545500D02*
X110039999Y87545500D01*
G75*
G02*
X109790000Y87795499I0J249999D01*
G01*
X109790000Y88320501D01*
G75*
G02*
X110039999Y88570500I249999J0D01*
G01*
X110940001Y88570500D01*
G75*
G02*
X111190000Y88320501I0J-249999D01*
G01*
X111190000Y87795499D01*
G75*
G02*
X110940001Y87545500I-249999J0D01*
G01*
G37*
%TD.AperFunction*%
%TO.P,R10,1*%
%TO.N,Net-(R10-Pad1)*%
%TA.AperFunction,SMDPad,CuDef*%
G36*
G01*
X110940001Y85720500D02*
X110039999Y85720500D01*
G75*
G02*
X109790000Y85970499I0J249999D01*
G01*
X109790000Y86495501D01*
G75*
G02*
X110039999Y86745500I249999J0D01*
G01*
X110940001Y86745500D01*
G75*
G02*
X111190000Y86495501I0J-249999D01*
G01*
X111190000Y85970499D01*
G75*
G02*
X110940001Y85720500I-249999J0D01*
G01*
G37*
%TD.AperFunction*%
%TD*%
%TO.P,R9,2*%
%TO.N,Net-(C11-Pad1)*%
%TA.AperFunction,SMDPad,CuDef*%
G36*
G01*
X115004001Y87545500D02*
X114103999Y87545500D01*
G75*
G02*
X113854000Y87795499I0J249999D01*
G01*
X113854000Y88320501D01*
G75*
G02*
X114103999Y88570500I249999J0D01*
G01*
X115004001Y88570500D01*
G75*
G02*
X115254000Y88320501I0J-249999D01*
G01*
X115254000Y87795499D01*
G75*
G02*
X115004001Y87545500I-249999J0D01*
G01*
G37*
%TD.AperFunction*%
%TO.P,R9,1*%
%TO.N,Net-(R9-Pad1)*%
%TA.AperFunction,SMDPad,CuDef*%
G36*
G01*
X115004001Y85720500D02*
X114103999Y85720500D01*
G75*
G02*
X113854000Y85970499I0J249999D01*
G01*
X113854000Y86495501D01*
G75*
G02*
X114103999Y86745500I249999J0D01*
G01*
X115004001Y86745500D01*
G75*
G02*
X115254000Y86495501I0J-249999D01*
G01*
X115254000Y85970499D01*
G75*
G02*
X115004001Y85720500I-249999J0D01*
G01*
G37*
%TD.AperFunction*%
%TD*%
%TO.P,R8,2*%
%TO.N,Net-(R8-Pad2)*%
%TA.AperFunction,SMDPad,CuDef*%
G36*
G01*
X51489500Y94224001D02*
X51489500Y92973999D01*
G75*
G02*
X51239501Y92724000I-249999J0D01*
G01*
X50614499Y92724000D01*
G75*
G02*
X50364500Y92973999I0J249999D01*
G01*
X50364500Y94224001D01*
G75*
G02*
X50614499Y94474000I249999J0D01*
G01*
X51239501Y94474000D01*
G75*
G02*
X51489500Y94224001I0J-249999D01*
G01*
G37*
%TD.AperFunction*%
%TO.P,R8,1*%
%TO.N,Net-(Q4-Pad1)*%
%TA.AperFunction,SMDPad,CuDef*%
G36*
G01*
X54414500Y94224001D02*
X54414500Y92973999D01*
G75*
G02*
X54164501Y92724000I-249999J0D01*
G01*
X53539499Y92724000D01*
G75*
G02*
X53289500Y92973999I0J249999D01*
G01*
X53289500Y94224001D01*
G75*
G02*
X53539499Y94474000I249999J0D01*
G01*
X54164501Y94474000D01*
G75*
G02*
X54414500Y94224001I0J-249999D01*
G01*
G37*
%TD.AperFunction*%
%TD*%
%TO.P,R7,2*%
%TO.N,Net-(R7-Pad2)*%
%TA.AperFunction,SMDPad,CuDef*%
G36*
G01*
X46558500Y92973999D02*
X46558500Y94224001D01*
G75*
G02*
X46808499Y94474000I249999J0D01*
G01*
X47433501Y94474000D01*
G75*
G02*
X47683500Y94224001I0J-249999D01*
G01*
X47683500Y92973999D01*
G75*
G02*
X47433501Y92724000I-249999J0D01*
G01*
X46808499Y92724000D01*
G75*
G02*
X46558500Y92973999I0J249999D01*
G01*
G37*
%TD.AperFunction*%
%TO.P,R7,1*%
%TO.N,Net-(Q3-Pad1)*%
%TA.AperFunction,SMDPad,CuDef*%
G36*
G01*
X43633500Y92973999D02*
X43633500Y94224001D01*
G75*
G02*
X43883499Y94474000I249999J0D01*
G01*
X44508501Y94474000D01*
G75*
G02*
X44758500Y94224001I0J-249999D01*
G01*
X44758500Y92973999D01*
G75*
G02*
X44508501Y92724000I-249999J0D01*
G01*
X43883499Y92724000D01*
G75*
G02*
X43633500Y92973999I0J249999D01*
G01*
G37*
%TD.AperFunction*%
%TD*%
%TO.P,R6,2*%
%TO.N,Net-(R5-Pad2)*%
%TA.AperFunction,SMDPad,CuDef*%
G36*
G01*
X22275500Y94224001D02*
X22275500Y92973999D01*
G75*
G02*
X22025501Y92724000I-249999J0D01*
G01*
X21400499Y92724000D01*
G75*
G02*
X21150500Y92973999I0J249999D01*
G01*
X21150500Y94224001D01*
G75*
G02*
X21400499Y94474000I249999J0D01*
G01*
X22025501Y94474000D01*
G75*
G02*
X22275500Y94224001I0J-249999D01*
G01*
G37*
%TD.AperFunction*%
%TO.P,R6,1*%
%TO.N,Net-(Q2-Pad1)*%
%TA.AperFunction,SMDPad,CuDef*%
G36*
G01*
X25200500Y94224001D02*
X25200500Y92973999D01*
G75*
G02*
X24950501Y92724000I-249999J0D01*
G01*
X24325499Y92724000D01*
G75*
G02*
X24075500Y92973999I0J249999D01*
G01*
X24075500Y94224001D01*
G75*
G02*
X24325499Y94474000I249999J0D01*
G01*
X24950501Y94474000D01*
G75*
G02*
X25200500Y94224001I0J-249999D01*
G01*
G37*
%TD.AperFunction*%
%TD*%
%TO.P,R5,2*%
%TO.N,Net-(R5-Pad2)*%
%TA.AperFunction,SMDPad,CuDef*%
G36*
G01*
X17344500Y92973999D02*
X17344500Y94224001D01*
G75*
G02*
X17594499Y94474000I249999J0D01*
G01*
X18219501Y94474000D01*
G75*
G02*
X18469500Y94224001I0J-249999D01*
G01*
X18469500Y92973999D01*
G75*
G02*
X18219501Y92724000I-249999J0D01*
G01*
X17594499Y92724000D01*
G75*
G02*
X17344500Y92973999I0J249999D01*
G01*
G37*
%TD.AperFunction*%
%TO.P,R5,1*%
%TO.N,Net-(Q1-Pad1)*%
%TA.AperFunction,SMDPad,CuDef*%
G36*
G01*
X14419500Y92973999D02*
X14419500Y94224001D01*
G75*
G02*
X14669499Y94474000I249999J0D01*
G01*
X15294501Y94474000D01*
G75*
G02*
X15544500Y94224001I0J-249999D01*
G01*
X15544500Y92973999D01*
G75*
G02*
X15294501Y92724000I-249999J0D01*
G01*
X14669499Y92724000D01*
G75*
G02*
X14419500Y92973999I0J249999D01*
G01*
G37*
%TD.AperFunction*%
%TD*%
%TO.P,R4,2*%
%TO.N,VSS*%
%TA.AperFunction,SMDPad,CuDef*%
G36*
G01*
X51444999Y77520500D02*
X52695001Y77520500D01*
G75*
G02*
X52945000Y77270501I0J-249999D01*
G01*
X52945000Y76645499D01*
G75*
G02*
X52695001Y76395500I-249999J0D01*
G01*
X51444999Y76395500D01*
G75*
G02*
X51195000Y76645499I0J249999D01*
G01*
X51195000Y77270501D01*
G75*
G02*
X51444999Y77520500I249999J0D01*
G01*
G37*
%TD.AperFunction*%
%TO.P,R4,1*%
%TO.N,Net-(D5-Pad1)*%
%TA.AperFunction,SMDPad,CuDef*%
G36*
G01*
X51444999Y80445500D02*
X52695001Y80445500D01*
G75*
G02*
X52945000Y80195501I0J-249999D01*
G01*
X52945000Y79570499D01*
G75*
G02*
X52695001Y79320500I-249999J0D01*
G01*
X51444999Y79320500D01*
G75*
G02*
X51195000Y79570499I0J249999D01*
G01*
X51195000Y80195501D01*
G75*
G02*
X51444999Y80445500I249999J0D01*
G01*
G37*
%TD.AperFunction*%
%TD*%
%TO.P,R3,2*%
%TO.N,VSS*%
%TA.AperFunction,SMDPad,CuDef*%
G36*
G01*
X47126999Y77520500D02*
X48377001Y77520500D01*
G75*
G02*
X48627000Y77270501I0J-249999D01*
G01*
X48627000Y76645499D01*
G75*
G02*
X48377001Y76395500I-249999J0D01*
G01*
X47126999Y76395500D01*
G75*
G02*
X46877000Y76645499I0J249999D01*
G01*
X46877000Y77270501D01*
G75*
G02*
X47126999Y77520500I249999J0D01*
G01*
G37*
%TD.AperFunction*%
%TO.P,R3,1*%
%TO.N,Net-(D3-Pad1)*%
%TA.AperFunction,SMDPad,CuDef*%
G36*
G01*
X47126999Y80445500D02*
X48377001Y80445500D01*
G75*
G02*
X48627000Y80195501I0J-249999D01*
G01*
X48627000Y79570499D01*
G75*
G02*
X48377001Y79320500I-249999J0D01*
G01*
X47126999Y79320500D01*
G75*
G02*
X46877000Y79570499I0J249999D01*
G01*
X46877000Y80195501D01*
G75*
G02*
X47126999Y80445500I249999J0D01*
G01*
G37*
%TD.AperFunction*%
%TD*%
%TO.P,R2,2*%
%TO.N,GND*%
%TA.AperFunction,SMDPad,CuDef*%
G36*
G01*
X29521999Y74379500D02*
X30422001Y74379500D01*
G75*
G02*
X30672000Y74129501I0J-249999D01*
G01*
X30672000Y73604499D01*
G75*
G02*
X30422001Y73354500I-249999J0D01*
G01*
X29521999Y73354500D01*
G75*
G02*
X29272000Y73604499I0J249999D01*
G01*
X29272000Y74129501D01*
G75*
G02*
X29521999Y74379500I249999J0D01*
G01*
G37*
%TD.AperFunction*%
%TO.P,R2,1*%
%TO.N,Net-(C7-Pad1)*%
%TA.AperFunction,SMDPad,CuDef*%
G36*
G01*
X29521999Y76204500D02*
X30422001Y76204500D01*
G75*
G02*
X30672000Y75954501I0J-249999D01*
G01*
X30672000Y75429499D01*
G75*
G02*
X30422001Y75179500I-249999J0D01*
G01*
X29521999Y75179500D01*
G75*
G02*
X29272000Y75429499I0J249999D01*
G01*
X29272000Y75954501D01*
G75*
G02*
X29521999Y76204500I249999J0D01*
G01*
G37*
%TD.AperFunction*%
%TD*%
%TO.P,R1,2*%
%TO.N,LINE*%
%TA.AperFunction,SMDPad,CuDef*%
G36*
G01*
X20818001Y63953500D02*
X19567999Y63953500D01*
G75*
G02*
X19318000Y64203499I0J249999D01*
G01*
X19318000Y64828501D01*
G75*
G02*
X19567999Y65078500I249999J0D01*
G01*
X20818001Y65078500D01*
G75*
G02*
X21068000Y64828501I0J-249999D01*
G01*
X21068000Y64203499D01*
G75*
G02*
X20818001Y63953500I-249999J0D01*
G01*
G37*
%TD.AperFunction*%
%TO.P,R1,1*%
%TO.N,Net-(D1-Pad2)*%
%TA.AperFunction,SMDPad,CuDef*%
G36*
G01*
X20818001Y61028500D02*
X19567999Y61028500D01*
G75*
G02*
X19318000Y61278499I0J249999D01*
G01*
X19318000Y61903501D01*
G75*
G02*
X19567999Y62153500I249999J0D01*
G01*
X20818001Y62153500D01*
G75*
G02*
X21068000Y61903501I0J-249999D01*
G01*
X21068000Y61278499D01*
G75*
G02*
X20818001Y61028500I-249999J0D01*
G01*
G37*
%TD.AperFunction*%
%TD*%
D18*
%TO.P,Q4,3*%
%TO.N,VSS*%
X74654000Y99822000D03*
%TO.P,Q4,2*%
%TO.N,NEUT*%
X69204000Y99822000D03*
D19*
%TO.P,Q4,1*%
%TO.N,Net-(Q4-Pad1)*%
X63754000Y99822000D03*
%TD*%
D18*
%TO.P,Q3,3*%
%TO.N,VSS*%
X55096000Y99822000D03*
%TO.P,Q3,2*%
%TO.N,Net-(C12-Pad1)*%
X49646000Y99822000D03*
D19*
%TO.P,Q3,1*%
%TO.N,Net-(Q3-Pad1)*%
X44196000Y99822000D03*
%TD*%
D18*
%TO.P,Q2,3*%
%TO.N,GND*%
X35538000Y99822000D03*
%TO.P,Q2,2*%
%TO.N,Net-(C12-Pad1)*%
X30088000Y99822000D03*
D19*
%TO.P,Q2,1*%
%TO.N,Net-(Q2-Pad1)*%
X24638000Y99822000D03*
%TD*%
D18*
%TO.P,Q1,3*%
%TO.N,GND*%
X15980000Y99822000D03*
%TO.P,Q1,2*%
%TO.N,Net-(C2-Pad1)*%
X10530000Y99822000D03*
D19*
%TO.P,Q1,1*%
%TO.N,Net-(Q1-Pad1)*%
X5080000Y99822000D03*
%TD*%
D20*
%TO.P,PS3,16*%
%TO.N,VDD*%
X48260000Y40132000D03*
%TO.P,PS3,14*%
%TO.N,VSS*%
X48260000Y45212000D03*
%TO.P,PS3,3*%
%TO.N,NEUT*%
X66040000Y19812000D03*
D21*
%TO.P,PS3,1*%
%TO.N,LINE*%
X66040000Y14732000D03*
D20*
%TO.P,PS3,5*%
%TO.N,Net-(PS3-Pad5)*%
X66040000Y45212000D03*
%TD*%
D22*
%TO.P,PS2,1*%
%TO.N,NEUT*%
X83991000Y6331000D03*
D23*
%TO.P,PS2,4*%
%TO.N,VCC*%
X86741000Y44831000D03*
%TO.P,PS2,2*%
%TO.N,LINE*%
X94741000Y6331000D03*
%TO.P,PS2,3*%
%TO.N,GND*%
X94741000Y44831000D03*
%TD*%
D20*
%TO.P,PS1,4*%
%TO.N,Net-(C1-Pad2)*%
X30333000Y48387000D03*
%TO.P,PS1,2*%
%TO.N,LINE*%
X37933000Y20387000D03*
D24*
%TO.P,PS1,1*%
%TO.N,NEUT*%
X22733000Y20387000D03*
D20*
%TO.P,PS1,3*%
X22733000Y48387000D03*
%TD*%
D25*
%TO.P,L2,1*%
%TO.N,Net-(C12-Pad1)*%
X78232000Y91059000D03*
%TO.P,L2,2*%
%TO.N,VPP*%
X78232000Y78059000D03*
%TD*%
D26*
%TO.P,L1,2*%
%TO.N,Net-(C2-Pad1)*%
X14732000Y76327000D03*
%TO.P,L1,1*%
%TO.N,LINE*%
X4572000Y76327000D03*
%TD*%
D27*
%TO.P,J2,2*%
%TO.N,VPP*%
X103695500Y46418500D03*
%TO.P,J2,1*%
%TO.N,NEUT*%
%TA.AperFunction,ComponentPad*%
G36*
G01*
X104995501Y38868500D02*
X102395499Y38868500D01*
G75*
G02*
X102145500Y39118499I0J249999D01*
G01*
X102145500Y41718501D01*
G75*
G02*
X102395499Y41968500I249999J0D01*
G01*
X104995501Y41968500D01*
G75*
G02*
X105245500Y41718501I0J-249999D01*
G01*
X105245500Y39118499D01*
G75*
G02*
X104995501Y38868500I-249999J0D01*
G01*
G37*
%TD.AperFunction*%
%TD*%
%TO.P,J1,2*%
%TO.N,Net-(F1-Pad2)*%
X51912000Y5969000D03*
%TO.P,J1,1*%
%TO.N,NEUT*%
%TA.AperFunction,ComponentPad*%
G36*
G01*
X59462000Y7269001D02*
X59462000Y4668999D01*
G75*
G02*
X59212001Y4419000I-249999J0D01*
G01*
X56611999Y4419000D01*
G75*
G02*
X56362000Y4668999I0J249999D01*
G01*
X56362000Y7269001D01*
G75*
G02*
X56611999Y7519000I249999J0D01*
G01*
X59212001Y7519000D01*
G75*
G02*
X59462000Y7269001I0J-249999D01*
G01*
G37*
%TD.AperFunction*%
%TD*%
D28*
%TO.P,F1,2*%
%TO.N,Net-(F1-Pad2)*%
X40132000Y10414000D03*
%TO.P,F1,1*%
%TO.N,LINE*%
X3132000Y10414000D03*
%TD*%
D11*
%TO.P,D2,2*%
%TO.N,NEUT*%
X29844000Y57531000D03*
%TO.P,D2,1*%
%TO.N,Net-(D1-Pad1)*%
X26544000Y57531000D03*
%TD*%
%TO.P,D1,2*%
%TO.N,Net-(D1-Pad2)*%
X19686000Y57531000D03*
%TO.P,D1,1*%
%TO.N,Net-(D1-Pad1)*%
X22986000Y57531000D03*
%TD*%
D28*
%TO.P,C13,2*%
%TO.N,NEUT*%
X64956000Y62103000D03*
%TO.P,C13,1*%
%TO.N,VPP*%
X92456000Y62103000D03*
%TD*%
%TO.P,C12,2*%
%TO.N,NEUT*%
%TA.AperFunction,SMDPad,CuDef*%
G36*
G01*
X57769999Y90237000D02*
X59070001Y90237000D01*
G75*
G02*
X59320000Y89987001I0J-249999D01*
G01*
X59320000Y89336999D01*
G75*
G02*
X59070001Y89087000I-249999J0D01*
G01*
X57769999Y89087000D01*
G75*
G02*
X57520000Y89336999I0J249999D01*
G01*
X57520000Y89987001D01*
G75*
G02*
X57769999Y90237000I249999J0D01*
G01*
G37*
%TD.AperFunction*%
%TO.P,C12,1*%
%TO.N,Net-(C12-Pad1)*%
%TA.AperFunction,SMDPad,CuDef*%
G36*
G01*
X57769999Y93187000D02*
X59070001Y93187000D01*
G75*
G02*
X59320000Y92937001I0J-249999D01*
G01*
X59320000Y92286999D01*
G75*
G02*
X59070001Y92037000I-249999J0D01*
G01*
X57769999Y92037000D01*
G75*
G02*
X57520000Y92286999I0J249999D01*
G01*
X57520000Y92937001D01*
G75*
G02*
X57769999Y93187000I249999J0D01*
G01*
G37*
%TD.AperFunction*%
%TD*%
%TO.P,C11,2*%
%TO.N,GND*%
%TA.AperFunction,SMDPad,CuDef*%
G36*
G01*
X99057000Y86962000D02*
X99057000Y86012000D01*
G75*
G02*
X98807000Y85762000I-250000J0D01*
G01*
X98307000Y85762000D01*
G75*
G02*
X98057000Y86012000I0J250000D01*
G01*
X98057000Y86962000D01*
G75*
G02*
X98307000Y87212000I250000J0D01*
G01*
X98807000Y87212000D01*
G75*
G02*
X99057000Y86962000I0J-250000D01*
G01*
G37*
%TD.AperFunction*%
%TO.P,C11,1*%
%TO.N,Net-(C11-Pad1)*%
%TA.AperFunction,SMDPad,CuDef*%
G36*
G01*
X100957000Y86962000D02*
X100957000Y86012000D01*
G75*
G02*
X100707000Y85762000I-250000J0D01*
G01*
X100207000Y85762000D01*
G75*
G02*
X99957000Y86012000I0J250000D01*
G01*
X99957000Y86962000D01*
G75*
G02*
X100207000Y87212000I250000J0D01*
G01*
X100707000Y87212000D01*
G75*
G02*
X100957000Y86962000I0J-250000D01*
G01*
G37*
%TD.AperFunction*%
%TD*%
%TO.P,C10,2*%
%TO.N,GND*%
%TA.AperFunction,SMDPad,CuDef*%
G36*
G01*
X96136000Y96868000D02*
X96136000Y95918000D01*
G75*
G02*
X95886000Y95668000I-250000J0D01*
G01*
X95386000Y95668000D01*
G75*
G02*
X95136000Y95918000I0J250000D01*
G01*
X95136000Y96868000D01*
G75*
G02*
X95386000Y97118000I250000J0D01*
G01*
X95886000Y97118000D01*
G75*
G02*
X96136000Y96868000I0J-250000D01*
G01*
G37*
%TD.AperFunction*%
%TO.P,C10,1*%
%TO.N,VCC*%
%TA.AperFunction,SMDPad,CuDef*%
G36*
G01*
X98036000Y96868000D02*
X98036000Y95918000D01*
G75*
G02*
X97786000Y95668000I-250000J0D01*
G01*
X97286000Y95668000D01*
G75*
G02*
X97036000Y95918000I0J250000D01*
G01*
X97036000Y96868000D01*
G75*
G02*
X97286000Y97118000I250000J0D01*
G01*
X97786000Y97118000D01*
G75*
G02*
X98036000Y96868000I0J-250000D01*
G01*
G37*
%TD.AperFunction*%
%TD*%
%TO.P,C9,2*%
%TO.N,VSS*%
%TA.AperFunction,SMDPad,CuDef*%
G36*
G01*
X49817000Y55364000D02*
X50767000Y55364000D01*
G75*
G02*
X51017000Y55114000I0J-250000D01*
G01*
X51017000Y54614000D01*
G75*
G02*
X50767000Y54364000I-250000J0D01*
G01*
X49817000Y54364000D01*
G75*
G02*
X49567000Y54614000I0J250000D01*
G01*
X49567000Y55114000D01*
G75*
G02*
X49817000Y55364000I250000J0D01*
G01*
G37*
%TD.AperFunction*%
%TO.P,C9,1*%
%TO.N,VDD*%
%TA.AperFunction,SMDPad,CuDef*%
G36*
G01*
X49817000Y57264000D02*
X50767000Y57264000D01*
G75*
G02*
X51017000Y57014000I0J-250000D01*
G01*
X51017000Y56514000D01*
G75*
G02*
X50767000Y56264000I-250000J0D01*
G01*
X49817000Y56264000D01*
G75*
G02*
X49567000Y56514000I0J250000D01*
G01*
X49567000Y57014000D01*
G75*
G02*
X49817000Y57264000I250000J0D01*
G01*
G37*
%TD.AperFunction*%
%TD*%
%TO.P,C8,2*%
%TO.N,VDD*%
%TA.AperFunction,SMDPad,CuDef*%
G36*
G01*
X50767000Y62619000D02*
X49817000Y62619000D01*
G75*
G02*
X49567000Y62869000I0J250000D01*
G01*
X49567000Y63369000D01*
G75*
G02*
X49817000Y63619000I250000J0D01*
G01*
X50767000Y63619000D01*
G75*
G02*
X51017000Y63369000I0J-250000D01*
G01*
X51017000Y62869000D01*
G75*
G02*
X50767000Y62619000I-250000J0D01*
G01*
G37*
%TD.AperFunction*%
%TO.P,C8,1*%
%TO.N,VSS*%
%TA.AperFunction,SMDPad,CuDef*%
G36*
G01*
X50767000Y60719000D02*
X49817000Y60719000D01*
G75*
G02*
X49567000Y60969000I0J250000D01*
G01*
X49567000Y61469000D01*
G75*
G02*
X49817000Y61719000I250000J0D01*
G01*
X50767000Y61719000D01*
G75*
G02*
X51017000Y61469000I0J-250000D01*
G01*
X51017000Y60969000D01*
G75*
G02*
X50767000Y60719000I-250000J0D01*
G01*
G37*
%TD.AperFunction*%
%TD*%
%TO.P,C7,2*%
%TO.N,GND*%
%TA.AperFunction,SMDPad,CuDef*%
G36*
G01*
X25912000Y74592000D02*
X26412000Y74592000D01*
G75*
G02*
X26637000Y74367000I0J-225000D01*
G01*
X26637000Y73917000D01*
G75*
G02*
X26412000Y73692000I-225000J0D01*
G01*
X25912000Y73692000D01*
G75*
G02*
X25687000Y73917000I0J225000D01*
G01*
X25687000Y74367000D01*
G75*
G02*
X25912000Y74592000I225000J0D01*
G01*
G37*
%TD.AperFunction*%
%TO.P,C7,1*%
%TO.N,Net-(C7-Pad1)*%
%TA.AperFunction,SMDPad,CuDef*%
G36*
G01*
X25912000Y76142000D02*
X26412000Y76142000D01*
G75*
G02*
X26637000Y75917000I0J-225000D01*
G01*
X26637000Y75467000D01*
G75*
G02*
X26412000Y75242000I-225000J0D01*
G01*
X25912000Y75242000D01*
G75*
G02*
X25687000Y75467000I0J225000D01*
G01*
X25687000Y75917000D01*
G75*
G02*
X25912000Y76142000I225000J0D01*
G01*
G37*
%TD.AperFunction*%
%TD*%
%TO.P,C6,2*%
%TO.N,VDD*%
%TA.AperFunction,SMDPad,CuDef*%
G36*
G01*
X31996000Y93947000D02*
X31996000Y92997000D01*
G75*
G02*
X31746000Y92747000I-250000J0D01*
G01*
X31246000Y92747000D01*
G75*
G02*
X30996000Y92997000I0J250000D01*
G01*
X30996000Y93947000D01*
G75*
G02*
X31246000Y94197000I250000J0D01*
G01*
X31746000Y94197000D01*
G75*
G02*
X31996000Y93947000I0J-250000D01*
G01*
G37*
%TD.AperFunction*%
%TO.P,C6,1*%
%TO.N,VSS*%
%TA.AperFunction,SMDPad,CuDef*%
G36*
G01*
X33896000Y93947000D02*
X33896000Y92997000D01*
G75*
G02*
X33646000Y92747000I-250000J0D01*
G01*
X33146000Y92747000D01*
G75*
G02*
X32896000Y92997000I0J250000D01*
G01*
X32896000Y93947000D01*
G75*
G02*
X33146000Y94197000I250000J0D01*
G01*
X33646000Y94197000D01*
G75*
G02*
X33896000Y93947000I0J-250000D01*
G01*
G37*
%TD.AperFunction*%
%TD*%
%TO.P,C5,2*%
%TO.N,VCC*%
%TA.AperFunction,SMDPad,CuDef*%
G36*
G01*
X34511000Y75192000D02*
X33561000Y75192000D01*
G75*
G02*
X33311000Y75442000I0J250000D01*
G01*
X33311000Y75942000D01*
G75*
G02*
X33561000Y76192000I250000J0D01*
G01*
X34511000Y76192000D01*
G75*
G02*
X34761000Y75942000I0J-250000D01*
G01*
X34761000Y75442000D01*
G75*
G02*
X34511000Y75192000I-250000J0D01*
G01*
G37*
%TD.AperFunction*%
%TO.P,C5,1*%
%TO.N,GND*%
%TA.AperFunction,SMDPad,CuDef*%
G36*
G01*
X34511000Y73292000D02*
X33561000Y73292000D01*
G75*
G02*
X33311000Y73542000I0J250000D01*
G01*
X33311000Y74042000D01*
G75*
G02*
X33561000Y74292000I250000J0D01*
G01*
X34511000Y74292000D01*
G75*
G02*
X34761000Y74042000I0J-250000D01*
G01*
X34761000Y73542000D01*
G75*
G02*
X34511000Y73292000I-250000J0D01*
G01*
G37*
%TD.AperFunction*%
%TD*%
%TO.P,C4,2*%
%TO.N,VDD*%
%TA.AperFunction,SMDPad,CuDef*%
G36*
G01*
X42306001Y88833000D02*
X41005999Y88833000D01*
G75*
G02*
X40756000Y89082999I0J249999D01*
G01*
X40756000Y89733001D01*
G75*
G02*
X41005999Y89983000I249999J0D01*
G01*
X42306001Y89983000D01*
G75*
G02*
X42556000Y89733001I0J-249999D01*
G01*
X42556000Y89082999D01*
G75*
G02*
X42306001Y88833000I-249999J0D01*
G01*
G37*
%TD.AperFunction*%
%TO.P,C4,1*%
%TO.N,VSS*%
%TA.AperFunction,SMDPad,CuDef*%
G36*
G01*
X42306001Y85883000D02*
X41005999Y85883000D01*
G75*
G02*
X40756000Y86132999I0J249999D01*
G01*
X40756000Y86783001D01*
G75*
G02*
X41005999Y87033000I249999J0D01*
G01*
X42306001Y87033000D01*
G75*
G02*
X42556000Y86783001I0J-249999D01*
G01*
X42556000Y86132999D01*
G75*
G02*
X42306001Y85883000I-249999J0D01*
G01*
G37*
%TD.AperFunction*%
%TD*%
%TO.P,C3,2*%
%TO.N,VCC*%
%TA.AperFunction,SMDPad,CuDef*%
G36*
G01*
X21478001Y88452000D02*
X20177999Y88452000D01*
G75*
G02*
X19928000Y88701999I0J249999D01*
G01*
X19928000Y89352001D01*
G75*
G02*
X20177999Y89602000I249999J0D01*
G01*
X21478001Y89602000D01*
G75*
G02*
X21728000Y89352001I0J-249999D01*
G01*
X21728000Y88701999D01*
G75*
G02*
X21478001Y88452000I-249999J0D01*
G01*
G37*
%TD.AperFunction*%
%TO.P,C3,1*%
%TO.N,GND*%
%TA.AperFunction,SMDPad,CuDef*%
G36*
G01*
X21478001Y85502000D02*
X20177999Y85502000D01*
G75*
G02*
X19928000Y85751999I0J249999D01*
G01*
X19928000Y86402001D01*
G75*
G02*
X20177999Y86652000I249999J0D01*
G01*
X21478001Y86652000D01*
G75*
G02*
X21728000Y86402001I0J-249999D01*
G01*
X21728000Y85751999D01*
G75*
G02*
X21478001Y85502000I-249999J0D01*
G01*
G37*
%TD.AperFunction*%
%TD*%
%TO.P,C2,2*%
%TO.N,NEUT*%
X9144000Y29777000D03*
%TO.P,C2,1*%
%TO.N,Net-(C2-Pad1)*%
X9144000Y57277000D03*
%TD*%
%TO.P,C1,2*%
%TO.N,Net-(C1-Pad2)*%
%TA.AperFunction,SMDPad,CuDef*%
G36*
G01*
X24859000Y63061000D02*
X23909000Y63061000D01*
G75*
G02*
X23659000Y63311000I0J250000D01*
G01*
X23659000Y63811000D01*
G75*
G02*
X23909000Y64061000I250000J0D01*
G01*
X24859000Y64061000D01*
G75*
G02*
X25109000Y63811000I0J-250000D01*
G01*
X25109000Y63311000D01*
G75*
G02*
X24859000Y63061000I-250000J0D01*
G01*
G37*
%TD.AperFunction*%
%TO.P,C1,1*%
%TO.N,NEUT*%
%TA.AperFunction,SMDPad,CuDef*%
G36*
G01*
X24859000Y61161000D02*
X23909000Y61161000D01*
G75*
G02*
X23659000Y61411000I0J250000D01*
G01*
X23659000Y61911000D01*
G75*
G02*
X23909000Y62161000I250000J0D01*
G01*
X24859000Y62161000D01*
G75*
G02*
X25109000Y61911000I0J-250000D01*
G01*
X25109000Y61411000D01*
G75*
G02*
X24859000Y61161000I-250000J0D01*
G01*
G37*
%TD.AperFunction*%
%TD*%
D29*
%TO.N,Net-(C1-Pad2)*%
X24425000Y63586000D03*
%TO.N,VCC*%
X37973000Y48260000D03*
X27686000Y82169000D03*
X33401000Y82169000D03*
X34036000Y75692000D03*
X90360500Y69278500D03*
X101459000Y90830000D03*
%TO.N,GND*%
X34798000Y48260000D03*
X32004000Y73787000D03*
%TO.N,dis*%
X29972000Y77470000D03*
X29972000Y67818000D03*
X101727000Y71755000D03*
X93472000Y71755000D03*
X46672500Y67818000D03*
X51562000Y67818000D03*
%TO.N,pwm*%
X101727000Y74549000D03*
X93472000Y74549000D03*
X51562000Y70104000D03*
X46672500Y70104000D03*
%TO.N,NEUT*%
X64956000Y87943000D03*
%TO.N,VDD*%
X41021000Y65278000D03*
X41656000Y89408000D03*
X53594000Y61849000D03*
X53594000Y56769000D03*
%TO.N,Net-(C11-Pad1)*%
X100457000Y81915000D03*
X103505000Y60532000D03*
%TO.N,Net-(D3-Pad1)*%
X54356000Y84963000D03*
X47688500Y81597500D03*
%TO.N,rev*%
X44577000Y62230000D03*
X57785000Y84963000D03*
%TO.N,fwd*%
X44577000Y55880000D03*
X58674000Y75946000D03*
%TD*%
D30*
%TO.N,Net-(C1-Pad2)*%
X24425000Y63586000D02*
X24425000Y63586000D01*
D31*
X28494500Y63586000D02*
X24425000Y63586000D01*
D30*
X24425000Y63586000D02*
X24384000Y63627000D01*
%TO.N,VCC*%
X25146000Y89027000D02*
X25146000Y84709000D01*
X25146000Y84709000D02*
X27686000Y82169000D01*
X27686000Y82169000D02*
X27686000Y79629000D01*
X34036000Y79727000D02*
X34036000Y81534000D01*
X34036000Y81534000D02*
X33401000Y82169000D01*
X20828000Y89027000D02*
X25146000Y89027000D01*
X34036000Y75692000D02*
X34036000Y75692000D01*
X27686000Y82169000D02*
X27686000Y82169000D01*
X33401000Y82169000D02*
X33401000Y82169000D01*
X101459000Y90830000D02*
X101459000Y90830000D01*
X101459000Y92470000D02*
X97536000Y96393000D01*
X34036000Y75692000D02*
X34036000Y79756000D01*
X37973000Y41529000D02*
X37973000Y48260000D01*
X43180000Y36322000D02*
X37973000Y41529000D01*
X78232000Y36322000D02*
X43180000Y36322000D01*
X86741000Y44831000D02*
X78232000Y36322000D01*
X86741000Y44831000D02*
X86741000Y65659000D01*
X86741000Y65659000D02*
X90360500Y69278500D01*
X90360500Y69278500D02*
X90360500Y69278500D01*
X101459000Y90830000D02*
X101459000Y92470000D01*
D32*
%TO.N,GND*%
X31242000Y105918000D02*
X33528000Y105918000D01*
X20066000Y105918000D02*
X31242000Y105918000D01*
X15980000Y101832000D02*
X20066000Y105918000D01*
X15980000Y99822000D02*
X15980000Y101832000D01*
X35560000Y103886000D02*
X35560000Y99822000D01*
X33528000Y105918000D02*
X35560000Y103886000D01*
D30*
X94741000Y44831000D02*
X83565000Y33655000D01*
X83565000Y33655000D02*
X40894000Y33655000D01*
X34798000Y39751000D02*
X40894000Y33655000D01*
X34798000Y48260000D02*
X34798000Y39751000D01*
X94741000Y44831000D02*
X94741000Y56006000D01*
X94741000Y56006000D02*
X97536000Y58801000D01*
%TO.N,Net-(D1-Pad1)*%
X22986000Y57531000D02*
X26543000Y57531000D01*
%TO.N,Net-(Q1-Pad1)*%
X14982000Y93599000D02*
X9271000Y93599000D01*
X9271000Y93599000D02*
X5080000Y97790000D01*
X5080000Y97790000D02*
X5080000Y99822000D01*
%TO.N,Net-(Q2-Pad1)*%
X24638000Y93599000D02*
X24638000Y99822000D01*
%TO.N,Net-(R5-Pad2)*%
X21717000Y93599000D02*
X17907000Y93599000D01*
X26416000Y89027000D02*
X26416000Y90678000D01*
X26416000Y90678000D02*
X25654000Y91440000D01*
X25654000Y91440000D02*
X22225000Y91440000D01*
X22225000Y91440000D02*
X21717000Y91948000D01*
X21717000Y91948000D02*
X21717000Y93599000D01*
%TO.N,Net-(R7-Pad2)*%
X47117000Y89027000D02*
X47117000Y93599000D01*
%TO.N,Net-(R8-Pad2)*%
X49657000Y89027000D02*
X49657000Y90424000D01*
X49657000Y90424000D02*
X50927000Y91694000D01*
X50927000Y91694000D02*
X50927000Y93599000D01*
%TO.N,dis*%
X29972000Y77470000D02*
X29972000Y77851000D01*
X29972000Y77851000D02*
X30226000Y78105000D01*
X30226000Y78105000D02*
X30226000Y79756000D01*
X106498000Y81895000D02*
X106498000Y76526000D01*
X106498000Y76526000D02*
X101727000Y71755000D01*
X101727000Y71755000D02*
X101727000Y71755000D01*
X29972000Y67818000D02*
X46037500Y67818000D01*
X46672500Y67818000D02*
X46037500Y67818000D01*
X86614000Y71755000D02*
X93472000Y71755000D01*
X82677000Y67818000D02*
X86614000Y71755000D01*
X51562000Y67818000D02*
X82677000Y67818000D01*
%TO.N,pwm*%
X104498000Y81895000D02*
X104498000Y77320000D01*
X104498000Y77320000D02*
X101727000Y74549000D01*
X101727000Y74549000D02*
X101727000Y74549000D01*
X23749000Y78330000D02*
X25146000Y79727000D01*
X23749000Y72263000D02*
X23749000Y78330000D01*
X25908000Y70104000D02*
X23749000Y72263000D01*
X46672500Y70104000D02*
X25908000Y70104000D01*
X85217000Y74549000D02*
X93472000Y74549000D01*
X80772000Y70104000D02*
X85217000Y74549000D01*
X51562000Y70104000D02*
X80772000Y70104000D01*
%TO.N,NEUT*%
X22733000Y48387000D02*
X22733000Y52832000D01*
D31*
X28494500Y61636000D02*
X28494500Y62268990D01*
X32719500Y61636000D02*
X32719500Y62268990D01*
D30*
X64956000Y87943000D02*
X62806000Y87943000D01*
X62806000Y87943000D02*
X61087000Y89662000D01*
X61087000Y89662000D02*
X58420000Y89662000D01*
%TO.N,VDD*%
X48387000Y89027000D02*
X48387000Y87249000D01*
X47752000Y86614000D02*
X45847000Y86614000D01*
X48387000Y87249000D02*
X47752000Y86614000D01*
X45847000Y86614000D02*
X45847000Y84074000D01*
X45847000Y87757000D02*
X45847000Y86614000D01*
X45847000Y89027000D02*
X45847000Y87757000D01*
X41656000Y89408000D02*
X41656000Y89408000D01*
X42354500Y90106500D02*
X45847000Y86614000D01*
X31496000Y89027000D02*
X31496000Y91313000D01*
X42354500Y90106500D02*
X41021000Y91440000D01*
X41021000Y91440000D02*
X31496000Y91440000D01*
X31496000Y91440000D02*
X31496000Y93472000D01*
X31496000Y91313000D02*
X31496000Y91440000D01*
X46305000Y63416000D02*
X49995000Y63416000D01*
X49995000Y63416000D02*
X50292000Y63119000D01*
X46279000Y57023000D02*
X50038000Y57023000D01*
X50038000Y57023000D02*
X50292000Y56769000D01*
X48260000Y40132000D02*
X53594000Y45466000D01*
X53589000Y56764000D02*
X53594000Y56769000D01*
X50292000Y56764000D02*
X53589000Y56764000D01*
X53594000Y45466000D02*
X53594000Y56769000D01*
X53594000Y61849000D02*
X53594000Y61849000D01*
X52324000Y63119000D02*
X50292000Y63119000D01*
X41656000Y89408000D02*
X42354500Y90106500D01*
X41021000Y65278000D02*
X44323000Y65278000D01*
X44323000Y65278000D02*
X46228000Y63373000D01*
X53594000Y61849000D02*
X52324000Y63119000D01*
X53594000Y56769000D02*
X53594000Y56769000D01*
%TO.N,VSS*%
X46305000Y60876000D02*
X49954000Y60876000D01*
X49954000Y60876000D02*
X50292000Y61214000D01*
X46279000Y54483000D02*
X49911000Y54483000D01*
X49911000Y54483000D02*
X50292000Y54864000D01*
X48260000Y45212000D02*
X48260000Y52959000D01*
%TO.N,Net-(C7-Pad1)*%
X29972000Y75692000D02*
X31496000Y77216000D01*
X31496000Y77216000D02*
X31496000Y79756000D01*
X29972000Y75692000D02*
X26162000Y75692000D01*
%TO.N,Net-(C11-Pad1)*%
X100457000Y86487000D02*
X100457000Y81915000D01*
X100457000Y86487000D02*
X104267000Y86487000D01*
X104267000Y86487000D02*
X106045000Y88265000D01*
X106045000Y88265000D02*
X106045000Y90805000D01*
X103505000Y60532000D02*
X103505000Y60532000D01*
X107395000Y60532000D02*
X107442000Y60579000D01*
X103505000Y60532000D02*
X107395000Y60532000D01*
X106045000Y88265000D02*
X110363000Y88265000D01*
X110363000Y88265000D02*
X110617000Y88011000D01*
X110617000Y88011000D02*
X114554000Y88011000D01*
%TO.N,Net-(C12-Pad1)*%
X78232000Y91059000D02*
X63690500Y91059000D01*
X63690500Y91059000D02*
X62166500Y92583000D01*
X62166500Y92583000D02*
X58420000Y92583000D01*
%TO.N,Net-(D1-Pad2)*%
X20193000Y61591000D02*
X20193000Y59817000D01*
X20193000Y59817000D02*
X19685000Y59309000D01*
X19685000Y59309000D02*
X19685000Y57531000D01*
D31*
X28494500Y62936000D02*
X26995000Y62936000D01*
X26995000Y62936000D02*
X26416000Y62357000D01*
X26416000Y62357000D02*
X26416000Y60452000D01*
X25781000Y59817000D02*
X20193000Y59817000D01*
X26416000Y60452000D02*
X25781000Y59817000D01*
D30*
%TO.N,Net-(D3-Pad2)*%
X32766000Y89027000D02*
X32766000Y86995000D01*
X32766000Y86995000D02*
X38989000Y80772000D01*
X38989000Y80772000D02*
X39243000Y80518000D01*
X39243000Y80518000D02*
X39243000Y78994000D01*
X39243000Y78994000D02*
X39243000Y73406000D01*
%TO.N,Net-(D3-Pad1)*%
X47117000Y82169000D02*
X47117000Y84074000D01*
X47752000Y81534000D02*
X47688500Y81597500D01*
X47752000Y79883000D02*
X47752000Y81534000D01*
X47688500Y81597500D02*
X47117000Y82169000D01*
X42576000Y78994000D02*
X44450000Y78994000D01*
X44450000Y78994000D02*
X45339000Y79883000D01*
X45339000Y79883000D02*
X47752000Y79883000D01*
%TO.N,rev*%
X44661000Y62146000D02*
X44577000Y62230000D01*
X46305000Y62146000D02*
X44661000Y62146000D01*
%TO.N,fwd*%
X46279000Y55753000D02*
X44704000Y55753000D01*
X44704000Y55753000D02*
X44577000Y55880000D01*
%TO.N,Net-(D5-Pad1)*%
X52070000Y79883000D02*
X52070000Y81661000D01*
X52070000Y81661000D02*
X49657000Y84074000D01*
X53594000Y73406000D02*
X55372000Y75184000D01*
X55372000Y75184000D02*
X55372000Y78486000D01*
X53975000Y79883000D02*
X52070000Y79883000D01*
X53594000Y73406000D02*
X42545000Y73406000D01*
X58674000Y79279000D02*
X54579000Y79279000D01*
X54579000Y79279000D02*
X54546500Y79311500D01*
X54546500Y79311500D02*
X53975000Y79883000D01*
X55372000Y78486000D02*
X54546500Y79311500D01*
D33*
%TO.N,LINE*%
X37933000Y20387000D02*
X48193000Y20387000D01*
X48193000Y20387000D02*
X53848000Y14732000D01*
X53848000Y14732000D02*
X66040000Y14732000D01*
X66040000Y14732000D02*
X86360000Y14732000D01*
X86360000Y14732000D02*
X94742000Y6350000D01*
D30*
X4572000Y76327000D02*
X16383000Y64516000D01*
X16383000Y64516000D02*
X20193000Y64516000D01*
%TO.N,Net-(Q3-Pad1)*%
X44196000Y93599000D02*
X44196000Y99822000D01*
%TO.N,Net-(Q4-Pad1)*%
X53852000Y93599000D02*
X55245000Y93599000D01*
X55245000Y93599000D02*
X61468000Y99822000D01*
X61468000Y99822000D02*
X63754000Y99822000D01*
%TO.N,Net-(R9-Pad1)*%
X114498000Y81895000D02*
X114498000Y86177000D01*
X114498000Y86177000D02*
X114554000Y86233000D01*
%TO.N,Net-(R10-Pad1)*%
X110490000Y86233000D02*
X110490000Y81915000D01*
%TO.N,Net-(R11-Pad2)*%
X107442000Y62357000D02*
X106553000Y63246000D01*
X106553000Y63246000D02*
X106553000Y66675000D01*
%TO.N,Net-(R12-Pad2)*%
X104498000Y66695000D02*
X104498000Y63350000D01*
X104498000Y63350000D02*
X103505000Y62357000D01*
%TO.N,Net-(R13-Pad2)*%
X99441000Y62357000D02*
X102489000Y65405000D01*
X102489000Y65405000D02*
X102489000Y66675000D01*
D31*
%TO.N,Net-(U1-Pad8)*%
X32719500Y63586000D02*
X36617000Y63586000D01*
X36617000Y63586000D02*
X36830000Y63373000D01*
%TO.N,Net-(U1-Pad7)*%
X32719500Y62936000D02*
X34346000Y62936000D01*
X34346000Y62936000D02*
X34798000Y62484000D01*
X34798000Y62484000D02*
X34798000Y59055000D01*
X34798000Y59055000D02*
X36830000Y57023000D01*
%TD*%
D34*
%TO.N,NEUT*%
X38481000Y52451000D02*
X18415000Y52451000D01*
X18415000Y58131000D01*
X18597928Y58131000D01*
X18597928Y56931000D01*
X18610188Y56806518D01*
X18646498Y56686820D01*
X18705463Y56576506D01*
X18784815Y56479815D01*
X18881506Y56400463D01*
X18991820Y56341498D01*
X19111518Y56305188D01*
X19236000Y56292928D01*
X20136000Y56292928D01*
X20260482Y56305188D01*
X20380180Y56341498D01*
X20490494Y56400463D01*
X20587185Y56479815D01*
X20666537Y56576506D01*
X20725502Y56686820D01*
X20761812Y56806518D01*
X20774072Y56931000D01*
X20774072Y58131000D01*
X21897928Y58131000D01*
X21897928Y56931000D01*
X21910188Y56806518D01*
X21946498Y56686820D01*
X22005463Y56576506D01*
X22084815Y56479815D01*
X22181506Y56400463D01*
X22291820Y56341498D01*
X22411518Y56305188D01*
X22536000Y56292928D01*
X23436000Y56292928D01*
X23560482Y56305188D01*
X23680180Y56341498D01*
X23790494Y56400463D01*
X23887185Y56479815D01*
X23966537Y56576506D01*
X24003683Y56646000D01*
X25526317Y56646000D01*
X25563463Y56576506D01*
X25642815Y56479815D01*
X25739506Y56400463D01*
X25849820Y56341498D01*
X25969518Y56305188D01*
X26094000Y56292928D01*
X26994000Y56292928D01*
X27118482Y56305188D01*
X27238180Y56341498D01*
X27348494Y56400463D01*
X27445185Y56479815D01*
X27524537Y56576506D01*
X27583502Y56686820D01*
X27619812Y56806518D01*
X27632072Y56931000D01*
X27632072Y58131000D01*
X27619812Y58255482D01*
X27583502Y58375180D01*
X27524537Y58485494D01*
X27445185Y58582185D01*
X27348494Y58661537D01*
X27238180Y58720502D01*
X27118482Y58756812D01*
X26994000Y58769072D01*
X26094000Y58769072D01*
X25969518Y58756812D01*
X25849820Y58720502D01*
X25739506Y58661537D01*
X25642815Y58582185D01*
X25563463Y58485494D01*
X25526317Y58416000D01*
X24003683Y58416000D01*
X23966537Y58485494D01*
X23887185Y58582185D01*
X23790494Y58661537D01*
X23680180Y58720502D01*
X23560482Y58756812D01*
X23436000Y58769072D01*
X22536000Y58769072D01*
X22411518Y58756812D01*
X22291820Y58720502D01*
X22181506Y58661537D01*
X22084815Y58582185D01*
X22005463Y58485494D01*
X21946498Y58375180D01*
X21910188Y58255482D01*
X21897928Y58131000D01*
X20774072Y58131000D01*
X20761812Y58255482D01*
X20725502Y58375180D01*
X20666537Y58485494D01*
X20587185Y58582185D01*
X20570000Y58596288D01*
X20570000Y58942422D01*
X20609578Y58982000D01*
X25739982Y58982000D01*
X25781000Y58977960D01*
X25822018Y58982000D01*
X25822019Y58982000D01*
X25944689Y58994082D01*
X26102087Y59041828D01*
X26247146Y59119364D01*
X26374291Y59223709D01*
X26400445Y59255578D01*
X26977431Y59832562D01*
X27009291Y59858709D01*
X27038287Y59894040D01*
X27113636Y59985854D01*
X27191172Y60130913D01*
X27238918Y60288312D01*
X27255040Y60452000D01*
X27251000Y60493018D01*
X27251000Y62011132D01*
X27340868Y62101000D01*
X27750810Y62101000D01*
X27782000Y62097928D01*
X29207000Y62097928D01*
X29350991Y62112110D01*
X29489448Y62154110D01*
X29617051Y62222316D01*
X29728896Y62314104D01*
X29820684Y62425949D01*
X29888890Y62553552D01*
X29930890Y62692009D01*
X29945072Y62836000D01*
X29945072Y63036000D01*
X29930890Y63179991D01*
X29906316Y63261000D01*
X29930890Y63342009D01*
X29945072Y63486000D01*
X29945072Y63686000D01*
X31268928Y63686000D01*
X31268928Y63486000D01*
X31283110Y63342009D01*
X31307684Y63261000D01*
X31283110Y63179991D01*
X31268928Y63036000D01*
X31268928Y62836000D01*
X31283110Y62692009D01*
X31325110Y62553552D01*
X31393316Y62425949D01*
X31485104Y62314104D01*
X31596949Y62222316D01*
X31724552Y62154110D01*
X31863009Y62112110D01*
X32007000Y62097928D01*
X33432000Y62097928D01*
X33463190Y62101000D01*
X33963000Y62101000D01*
X33963001Y59096028D01*
X33958960Y59055000D01*
X33975082Y58891312D01*
X34022828Y58733914D01*
X34100364Y58588855D01*
X34123907Y58560168D01*
X34204710Y58461709D01*
X34236574Y58435559D01*
X35490928Y57181204D01*
X35490928Y56623000D01*
X35503188Y56498518D01*
X35536713Y56388000D01*
X35503188Y56277482D01*
X35490928Y56153000D01*
X35490928Y55353000D01*
X35503188Y55228518D01*
X35539498Y55108820D01*
X35598463Y54998506D01*
X35677815Y54901815D01*
X35774506Y54822463D01*
X35884820Y54763498D01*
X36004518Y54727188D01*
X36129000Y54714928D01*
X37429000Y54714928D01*
X37553482Y54727188D01*
X37673180Y54763498D01*
X37783494Y54822463D01*
X37880185Y54901815D01*
X37959537Y54998506D01*
X38018502Y55108820D01*
X38054812Y55228518D01*
X38067072Y55353000D01*
X38067072Y56153000D01*
X38054812Y56277482D01*
X38021287Y56388000D01*
X38054812Y56498518D01*
X38067072Y56623000D01*
X38067072Y57423000D01*
X38054812Y57547482D01*
X38018502Y57667180D01*
X37959537Y57777494D01*
X37880185Y57874185D01*
X37783494Y57953537D01*
X37673180Y58012502D01*
X37553482Y58048812D01*
X37429000Y58061072D01*
X36972797Y58061072D01*
X35633000Y59400867D01*
X35633000Y61381104D01*
X35703815Y61294815D01*
X35800506Y61215463D01*
X35910820Y61156498D01*
X36030518Y61120188D01*
X36155000Y61107928D01*
X37455000Y61107928D01*
X37579482Y61120188D01*
X37699180Y61156498D01*
X37809494Y61215463D01*
X37906185Y61294815D01*
X37985537Y61391506D01*
X38044502Y61501820D01*
X38080812Y61621518D01*
X38093072Y61746000D01*
X38093072Y62546000D01*
X38080812Y62670482D01*
X38047287Y62781000D01*
X38080812Y62891518D01*
X38093072Y63016000D01*
X38093072Y63816000D01*
X38080812Y63940482D01*
X38044502Y64060180D01*
X37985537Y64170494D01*
X37906185Y64267185D01*
X37809494Y64346537D01*
X37699180Y64405502D01*
X37579482Y64441812D01*
X37455000Y64454072D01*
X36155000Y64454072D01*
X36030518Y64441812D01*
X35961910Y64421000D01*
X33463190Y64421000D01*
X33432000Y64424072D01*
X32007000Y64424072D01*
X31863009Y64409890D01*
X31724552Y64367890D01*
X31596949Y64299684D01*
X31485104Y64207896D01*
X31393316Y64096051D01*
X31325110Y63968448D01*
X31283110Y63829991D01*
X31268928Y63686000D01*
X29945072Y63686000D01*
X29930890Y63829991D01*
X29888890Y63968448D01*
X29820684Y64096051D01*
X29728896Y64207896D01*
X29617051Y64299684D01*
X29489448Y64367890D01*
X29350991Y64409890D01*
X29207000Y64424072D01*
X27782000Y64424072D01*
X27750810Y64421000D01*
X25501703Y64421000D01*
X25486962Y64438962D01*
X25352386Y64549405D01*
X25198850Y64631472D01*
X25032254Y64682008D01*
X24859000Y64699072D01*
X23909000Y64699072D01*
X23735746Y64682008D01*
X23569150Y64631472D01*
X23415614Y64549405D01*
X23281038Y64438962D01*
X23170595Y64304386D01*
X23088528Y64150850D01*
X23037992Y63984254D01*
X23020928Y63811000D01*
X23020928Y63311000D01*
X23037992Y63137746D01*
X23088528Y62971150D01*
X23170595Y62817614D01*
X23281038Y62683038D01*
X23415614Y62572595D01*
X23569150Y62490528D01*
X23735746Y62439992D01*
X23909000Y62422928D01*
X24859000Y62422928D01*
X25032254Y62439992D01*
X25198850Y62490528D01*
X25352386Y62572595D01*
X25486962Y62683038D01*
X25542737Y62751000D01*
X25679802Y62751000D01*
X25640828Y62678086D01*
X25593082Y62520688D01*
X25576960Y62357000D01*
X25581000Y62315981D01*
X25581001Y60797869D01*
X25435132Y60652000D01*
X21447162Y60652000D01*
X21556405Y60785113D01*
X21638472Y60938649D01*
X21689008Y61105245D01*
X21706072Y61278499D01*
X21706072Y61903501D01*
X21689008Y62076755D01*
X21638472Y62243351D01*
X21556405Y62396887D01*
X21445962Y62531462D01*
X21311387Y62641905D01*
X21157851Y62723972D01*
X20991255Y62774508D01*
X20818001Y62791572D01*
X19567999Y62791572D01*
X19394745Y62774508D01*
X19228149Y62723972D01*
X19074613Y62641905D01*
X18940038Y62531462D01*
X18829595Y62396887D01*
X18747528Y62243351D01*
X18696992Y62076755D01*
X18679928Y61903501D01*
X18679928Y61278499D01*
X18696992Y61105245D01*
X18747528Y60938649D01*
X18829595Y60785113D01*
X18940038Y60650538D01*
X19074613Y60540095D01*
X19228149Y60458028D01*
X19308001Y60433805D01*
X19308001Y60183579D01*
X19089956Y59965534D01*
X19056183Y59937817D01*
X18945589Y59803058D01*
X18863411Y59649312D01*
X18852384Y59612960D01*
X18812805Y59482490D01*
X18812233Y59476686D01*
X18800000Y59352476D01*
X18800000Y59352469D01*
X18795719Y59309000D01*
X18800000Y59265531D01*
X18800000Y58594647D01*
X18784815Y58582185D01*
X18705463Y58485494D01*
X18646498Y58375180D01*
X18610188Y58255482D01*
X18597928Y58131000D01*
X18415000Y58131000D01*
X18415000Y63631000D01*
X18894521Y63631000D01*
X18940038Y63575538D01*
X19074613Y63465095D01*
X19228149Y63383028D01*
X19394745Y63332492D01*
X19567999Y63315428D01*
X20818001Y63315428D01*
X20991255Y63332492D01*
X21157851Y63383028D01*
X21311387Y63465095D01*
X21445962Y63575538D01*
X21556405Y63710113D01*
X21638472Y63863649D01*
X21689008Y64030245D01*
X21706072Y64203499D01*
X21706072Y64828501D01*
X21689008Y65001755D01*
X21638472Y65168351D01*
X21556405Y65321887D01*
X21445962Y65456462D01*
X21311387Y65566905D01*
X21157851Y65648972D01*
X20991255Y65699508D01*
X20818001Y65716572D01*
X19567999Y65716572D01*
X19394745Y65699508D01*
X19228149Y65648972D01*
X19074613Y65566905D01*
X18940038Y65456462D01*
X18894521Y65401000D01*
X18415000Y65401000D01*
X18415000Y65913000D01*
X38481000Y65913000D01*
X38481000Y52451000D01*
%TA.AperFunction,Conductor*%
D35*
G36*
X38481000Y52451000D02*
G01*
X18415000Y52451000D01*
X18415000Y58131000D01*
X18597928Y58131000D01*
X18597928Y56931000D01*
X18610188Y56806518D01*
X18646498Y56686820D01*
X18705463Y56576506D01*
X18784815Y56479815D01*
X18881506Y56400463D01*
X18991820Y56341498D01*
X19111518Y56305188D01*
X19236000Y56292928D01*
X20136000Y56292928D01*
X20260482Y56305188D01*
X20380180Y56341498D01*
X20490494Y56400463D01*
X20587185Y56479815D01*
X20666537Y56576506D01*
X20725502Y56686820D01*
X20761812Y56806518D01*
X20774072Y56931000D01*
X20774072Y58131000D01*
X21897928Y58131000D01*
X21897928Y56931000D01*
X21910188Y56806518D01*
X21946498Y56686820D01*
X22005463Y56576506D01*
X22084815Y56479815D01*
X22181506Y56400463D01*
X22291820Y56341498D01*
X22411518Y56305188D01*
X22536000Y56292928D01*
X23436000Y56292928D01*
X23560482Y56305188D01*
X23680180Y56341498D01*
X23790494Y56400463D01*
X23887185Y56479815D01*
X23966537Y56576506D01*
X24003683Y56646000D01*
X25526317Y56646000D01*
X25563463Y56576506D01*
X25642815Y56479815D01*
X25739506Y56400463D01*
X25849820Y56341498D01*
X25969518Y56305188D01*
X26094000Y56292928D01*
X26994000Y56292928D01*
X27118482Y56305188D01*
X27238180Y56341498D01*
X27348494Y56400463D01*
X27445185Y56479815D01*
X27524537Y56576506D01*
X27583502Y56686820D01*
X27619812Y56806518D01*
X27632072Y56931000D01*
X27632072Y58131000D01*
X27619812Y58255482D01*
X27583502Y58375180D01*
X27524537Y58485494D01*
X27445185Y58582185D01*
X27348494Y58661537D01*
X27238180Y58720502D01*
X27118482Y58756812D01*
X26994000Y58769072D01*
X26094000Y58769072D01*
X25969518Y58756812D01*
X25849820Y58720502D01*
X25739506Y58661537D01*
X25642815Y58582185D01*
X25563463Y58485494D01*
X25526317Y58416000D01*
X24003683Y58416000D01*
X23966537Y58485494D01*
X23887185Y58582185D01*
X23790494Y58661537D01*
X23680180Y58720502D01*
X23560482Y58756812D01*
X23436000Y58769072D01*
X22536000Y58769072D01*
X22411518Y58756812D01*
X22291820Y58720502D01*
X22181506Y58661537D01*
X22084815Y58582185D01*
X22005463Y58485494D01*
X21946498Y58375180D01*
X21910188Y58255482D01*
X21897928Y58131000D01*
X20774072Y58131000D01*
X20761812Y58255482D01*
X20725502Y58375180D01*
X20666537Y58485494D01*
X20587185Y58582185D01*
X20570000Y58596288D01*
X20570000Y58942422D01*
X20609578Y58982000D01*
X25739982Y58982000D01*
X25781000Y58977960D01*
X25822018Y58982000D01*
X25822019Y58982000D01*
X25944689Y58994082D01*
X26102087Y59041828D01*
X26247146Y59119364D01*
X26374291Y59223709D01*
X26400445Y59255578D01*
X26977431Y59832562D01*
X27009291Y59858709D01*
X27038287Y59894040D01*
X27113636Y59985854D01*
X27191172Y60130913D01*
X27238918Y60288312D01*
X27255040Y60452000D01*
X27251000Y60493018D01*
X27251000Y62011132D01*
X27340868Y62101000D01*
X27750810Y62101000D01*
X27782000Y62097928D01*
X29207000Y62097928D01*
X29350991Y62112110D01*
X29489448Y62154110D01*
X29617051Y62222316D01*
X29728896Y62314104D01*
X29820684Y62425949D01*
X29888890Y62553552D01*
X29930890Y62692009D01*
X29945072Y62836000D01*
X29945072Y63036000D01*
X29930890Y63179991D01*
X29906316Y63261000D01*
X29930890Y63342009D01*
X29945072Y63486000D01*
X29945072Y63686000D01*
X31268928Y63686000D01*
X31268928Y63486000D01*
X31283110Y63342009D01*
X31307684Y63261000D01*
X31283110Y63179991D01*
X31268928Y63036000D01*
X31268928Y62836000D01*
X31283110Y62692009D01*
X31325110Y62553552D01*
X31393316Y62425949D01*
X31485104Y62314104D01*
X31596949Y62222316D01*
X31724552Y62154110D01*
X31863009Y62112110D01*
X32007000Y62097928D01*
X33432000Y62097928D01*
X33463190Y62101000D01*
X33963000Y62101000D01*
X33963001Y59096028D01*
X33958960Y59055000D01*
X33975082Y58891312D01*
X34022828Y58733914D01*
X34100364Y58588855D01*
X34123907Y58560168D01*
X34204710Y58461709D01*
X34236574Y58435559D01*
X35490928Y57181204D01*
X35490928Y56623000D01*
X35503188Y56498518D01*
X35536713Y56388000D01*
X35503188Y56277482D01*
X35490928Y56153000D01*
X35490928Y55353000D01*
X35503188Y55228518D01*
X35539498Y55108820D01*
X35598463Y54998506D01*
X35677815Y54901815D01*
X35774506Y54822463D01*
X35884820Y54763498D01*
X36004518Y54727188D01*
X36129000Y54714928D01*
X37429000Y54714928D01*
X37553482Y54727188D01*
X37673180Y54763498D01*
X37783494Y54822463D01*
X37880185Y54901815D01*
X37959537Y54998506D01*
X38018502Y55108820D01*
X38054812Y55228518D01*
X38067072Y55353000D01*
X38067072Y56153000D01*
X38054812Y56277482D01*
X38021287Y56388000D01*
X38054812Y56498518D01*
X38067072Y56623000D01*
X38067072Y57423000D01*
X38054812Y57547482D01*
X38018502Y57667180D01*
X37959537Y57777494D01*
X37880185Y57874185D01*
X37783494Y57953537D01*
X37673180Y58012502D01*
X37553482Y58048812D01*
X37429000Y58061072D01*
X36972797Y58061072D01*
X35633000Y59400867D01*
X35633000Y61381104D01*
X35703815Y61294815D01*
X35800506Y61215463D01*
X35910820Y61156498D01*
X36030518Y61120188D01*
X36155000Y61107928D01*
X37455000Y61107928D01*
X37579482Y61120188D01*
X37699180Y61156498D01*
X37809494Y61215463D01*
X37906185Y61294815D01*
X37985537Y61391506D01*
X38044502Y61501820D01*
X38080812Y61621518D01*
X38093072Y61746000D01*
X38093072Y62546000D01*
X38080812Y62670482D01*
X38047287Y62781000D01*
X38080812Y62891518D01*
X38093072Y63016000D01*
X38093072Y63816000D01*
X38080812Y63940482D01*
X38044502Y64060180D01*
X37985537Y64170494D01*
X37906185Y64267185D01*
X37809494Y64346537D01*
X37699180Y64405502D01*
X37579482Y64441812D01*
X37455000Y64454072D01*
X36155000Y64454072D01*
X36030518Y64441812D01*
X35961910Y64421000D01*
X33463190Y64421000D01*
X33432000Y64424072D01*
X32007000Y64424072D01*
X31863009Y64409890D01*
X31724552Y64367890D01*
X31596949Y64299684D01*
X31485104Y64207896D01*
X31393316Y64096051D01*
X31325110Y63968448D01*
X31283110Y63829991D01*
X31268928Y63686000D01*
X29945072Y63686000D01*
X29930890Y63829991D01*
X29888890Y63968448D01*
X29820684Y64096051D01*
X29728896Y64207896D01*
X29617051Y64299684D01*
X29489448Y64367890D01*
X29350991Y64409890D01*
X29207000Y64424072D01*
X27782000Y64424072D01*
X27750810Y64421000D01*
X25501703Y64421000D01*
X25486962Y64438962D01*
X25352386Y64549405D01*
X25198850Y64631472D01*
X25032254Y64682008D01*
X24859000Y64699072D01*
X23909000Y64699072D01*
X23735746Y64682008D01*
X23569150Y64631472D01*
X23415614Y64549405D01*
X23281038Y64438962D01*
X23170595Y64304386D01*
X23088528Y64150850D01*
X23037992Y63984254D01*
X23020928Y63811000D01*
X23020928Y63311000D01*
X23037992Y63137746D01*
X23088528Y62971150D01*
X23170595Y62817614D01*
X23281038Y62683038D01*
X23415614Y62572595D01*
X23569150Y62490528D01*
X23735746Y62439992D01*
X23909000Y62422928D01*
X24859000Y62422928D01*
X25032254Y62439992D01*
X25198850Y62490528D01*
X25352386Y62572595D01*
X25486962Y62683038D01*
X25542737Y62751000D01*
X25679802Y62751000D01*
X25640828Y62678086D01*
X25593082Y62520688D01*
X25576960Y62357000D01*
X25581000Y62315981D01*
X25581001Y60797869D01*
X25435132Y60652000D01*
X21447162Y60652000D01*
X21556405Y60785113D01*
X21638472Y60938649D01*
X21689008Y61105245D01*
X21706072Y61278499D01*
X21706072Y61903501D01*
X21689008Y62076755D01*
X21638472Y62243351D01*
X21556405Y62396887D01*
X21445962Y62531462D01*
X21311387Y62641905D01*
X21157851Y62723972D01*
X20991255Y62774508D01*
X20818001Y62791572D01*
X19567999Y62791572D01*
X19394745Y62774508D01*
X19228149Y62723972D01*
X19074613Y62641905D01*
X18940038Y62531462D01*
X18829595Y62396887D01*
X18747528Y62243351D01*
X18696992Y62076755D01*
X18679928Y61903501D01*
X18679928Y61278499D01*
X18696992Y61105245D01*
X18747528Y60938649D01*
X18829595Y60785113D01*
X18940038Y60650538D01*
X19074613Y60540095D01*
X19228149Y60458028D01*
X19308001Y60433805D01*
X19308001Y60183579D01*
X19089956Y59965534D01*
X19056183Y59937817D01*
X18945589Y59803058D01*
X18863411Y59649312D01*
X18852384Y59612960D01*
X18812805Y59482490D01*
X18812233Y59476686D01*
X18800000Y59352476D01*
X18800000Y59352469D01*
X18795719Y59309000D01*
X18800000Y59265531D01*
X18800000Y58594647D01*
X18784815Y58582185D01*
X18705463Y58485494D01*
X18646498Y58375180D01*
X18610188Y58255482D01*
X18597928Y58131000D01*
X18415000Y58131000D01*
X18415000Y63631000D01*
X18894521Y63631000D01*
X18940038Y63575538D01*
X19074613Y63465095D01*
X19228149Y63383028D01*
X19394745Y63332492D01*
X19567999Y63315428D01*
X20818001Y63315428D01*
X20991255Y63332492D01*
X21157851Y63383028D01*
X21311387Y63465095D01*
X21445962Y63575538D01*
X21556405Y63710113D01*
X21638472Y63863649D01*
X21689008Y64030245D01*
X21706072Y64203499D01*
X21706072Y64828501D01*
X21689008Y65001755D01*
X21638472Y65168351D01*
X21556405Y65321887D01*
X21445962Y65456462D01*
X21311387Y65566905D01*
X21157851Y65648972D01*
X20991255Y65699508D01*
X20818001Y65716572D01*
X19567999Y65716572D01*
X19394745Y65699508D01*
X19228149Y65648972D01*
X19074613Y65566905D01*
X18940038Y65456462D01*
X18894521Y65401000D01*
X18415000Y65401000D01*
X18415000Y65913000D01*
X38481000Y65913000D01*
X38481000Y52451000D01*
G37*
%TD.AperFunction*%
%TD*%
D34*
%TO.N,VSS*%
X77597000Y96139000D02*
X61468000Y96139000D01*
X61443224Y96136560D01*
X61419399Y96129333D01*
X61397443Y96117597D01*
X61378197Y96101803D01*
X61362403Y96082557D01*
X61350667Y96060601D01*
X61343440Y96036776D01*
X61341000Y96012000D01*
X61341000Y93468000D01*
X59777537Y93468000D01*
X59697962Y93564962D01*
X59563387Y93675405D01*
X59409851Y93757472D01*
X59243255Y93808008D01*
X59070001Y93825072D01*
X57769999Y93825072D01*
X57596745Y93808008D01*
X57430149Y93757472D01*
X57276613Y93675405D01*
X57142038Y93564962D01*
X57031595Y93430387D01*
X56949528Y93276851D01*
X56898992Y93110255D01*
X56881928Y92937001D01*
X56881928Y92286999D01*
X56898992Y92113745D01*
X56949528Y91947149D01*
X57031595Y91793613D01*
X57142038Y91659038D01*
X57276613Y91548595D01*
X57430149Y91466528D01*
X57596745Y91415992D01*
X57769999Y91398928D01*
X59070001Y91398928D01*
X59243255Y91415992D01*
X59409851Y91466528D01*
X59563387Y91548595D01*
X59697962Y91659038D01*
X59729937Y91698000D01*
X61341000Y91698000D01*
X61341000Y90509772D01*
X61260490Y90534195D01*
X61130477Y90547000D01*
X61130469Y90547000D01*
X61087000Y90551281D01*
X61043531Y90547000D01*
X59753737Y90547000D01*
X59697962Y90614962D01*
X59563387Y90725405D01*
X59409851Y90807472D01*
X59243255Y90858008D01*
X59070001Y90875072D01*
X57769999Y90875072D01*
X57596745Y90858008D01*
X57430149Y90807472D01*
X57276613Y90725405D01*
X57142038Y90614962D01*
X57031595Y90480387D01*
X56949528Y90326851D01*
X56898992Y90160255D01*
X56881928Y89987001D01*
X56881928Y89336999D01*
X56898992Y89163745D01*
X56949528Y88997149D01*
X57031595Y88843613D01*
X57142038Y88709038D01*
X57276613Y88598595D01*
X57430149Y88516528D01*
X57596745Y88465992D01*
X57769999Y88448928D01*
X59070001Y88448928D01*
X59243255Y88465992D01*
X59409851Y88516528D01*
X59563387Y88598595D01*
X59697962Y88709038D01*
X59753737Y88777000D01*
X60720422Y88777000D01*
X61341000Y88156422D01*
X61341000Y70989000D01*
X52100454Y70989000D01*
X52052256Y71021205D01*
X51863898Y71099226D01*
X51663939Y71139000D01*
X51460061Y71139000D01*
X51260102Y71099226D01*
X51071744Y71021205D01*
X50902226Y70907937D01*
X50758063Y70763774D01*
X50644795Y70594256D01*
X50566774Y70405898D01*
X50527000Y70205939D01*
X50527000Y70002061D01*
X50566774Y69802102D01*
X50644795Y69613744D01*
X50758063Y69444226D01*
X50902226Y69300063D01*
X51071744Y69186795D01*
X51260102Y69108774D01*
X51460061Y69069000D01*
X51663939Y69069000D01*
X51863898Y69108774D01*
X52052256Y69186795D01*
X52100454Y69219000D01*
X61341000Y69219000D01*
X61341000Y68703000D01*
X52100454Y68703000D01*
X52052256Y68735205D01*
X51863898Y68813226D01*
X51663939Y68853000D01*
X51460061Y68853000D01*
X51260102Y68813226D01*
X51071744Y68735205D01*
X50902226Y68621937D01*
X50758063Y68477774D01*
X50644795Y68308256D01*
X50566774Y68119898D01*
X50527000Y67919939D01*
X50527000Y67716061D01*
X50566774Y67516102D01*
X50644795Y67327744D01*
X50758063Y67158226D01*
X50902226Y67014063D01*
X51071744Y66900795D01*
X51260102Y66822774D01*
X51460061Y66783000D01*
X51663939Y66783000D01*
X51863898Y66822774D01*
X52052256Y66900795D01*
X52100454Y66933000D01*
X61341000Y66933000D01*
X61341000Y52451000D01*
X54479000Y52451000D01*
X54479000Y56230546D01*
X54511205Y56278744D01*
X54589226Y56467102D01*
X54629000Y56667061D01*
X54629000Y56870939D01*
X54589226Y57070898D01*
X54511205Y57259256D01*
X54397937Y57428774D01*
X54253774Y57572937D01*
X54084256Y57686205D01*
X53895898Y57764226D01*
X53695939Y57804000D01*
X53492061Y57804000D01*
X53292102Y57764226D01*
X53103744Y57686205D01*
X53048063Y57649000D01*
X51386386Y57649000D01*
X51260386Y57752405D01*
X51106850Y57834472D01*
X50940254Y57885008D01*
X50767000Y57902072D01*
X50141666Y57902072D01*
X50081477Y57908000D01*
X50081469Y57908000D01*
X50038000Y57912281D01*
X49994531Y57908000D01*
X47338981Y57908000D01*
X47283494Y57953537D01*
X47173180Y58012502D01*
X47053482Y58048812D01*
X46929000Y58061072D01*
X45629000Y58061072D01*
X45504518Y58048812D01*
X45384820Y58012502D01*
X45274506Y57953537D01*
X45177815Y57874185D01*
X45098463Y57777494D01*
X45039498Y57667180D01*
X45003188Y57547482D01*
X44990928Y57423000D01*
X44990928Y56828821D01*
X44878898Y56875226D01*
X44678939Y56915000D01*
X44475061Y56915000D01*
X44275102Y56875226D01*
X44086744Y56797205D01*
X43917226Y56683937D01*
X43773063Y56539774D01*
X43659795Y56370256D01*
X43581774Y56181898D01*
X43542000Y55981939D01*
X43542000Y55778061D01*
X43581774Y55578102D01*
X43659795Y55389744D01*
X43773063Y55220226D01*
X43917226Y55076063D01*
X44086744Y54962795D01*
X44275102Y54884774D01*
X44475061Y54845000D01*
X44678939Y54845000D01*
X44794569Y54868000D01*
X45219019Y54868000D01*
X45274506Y54822463D01*
X45384820Y54763498D01*
X45504518Y54727188D01*
X45629000Y54714928D01*
X46929000Y54714928D01*
X47053482Y54727188D01*
X47173180Y54763498D01*
X47283494Y54822463D01*
X47380185Y54901815D01*
X47459537Y54998506D01*
X47518502Y55108820D01*
X47554812Y55228518D01*
X47567072Y55353000D01*
X47567072Y56138000D01*
X49015851Y56138000D01*
X49078595Y56020614D01*
X49189038Y55886038D01*
X49323614Y55775595D01*
X49477150Y55693528D01*
X49643746Y55642992D01*
X49817000Y55625928D01*
X50767000Y55625928D01*
X50940254Y55642992D01*
X51106850Y55693528D01*
X51260386Y55775595D01*
X51386386Y55879000D01*
X52709001Y55879000D01*
X52709001Y52451000D01*
X42799000Y52451000D01*
X42799000Y64393000D01*
X43956422Y64393000D01*
X45016928Y63332493D01*
X45016928Y63168052D01*
X44878898Y63225226D01*
X44678939Y63265000D01*
X44475061Y63265000D01*
X44275102Y63225226D01*
X44086744Y63147205D01*
X43917226Y63033937D01*
X43773063Y62889774D01*
X43659795Y62720256D01*
X43581774Y62531898D01*
X43542000Y62331939D01*
X43542000Y62128061D01*
X43581774Y61928102D01*
X43659795Y61739744D01*
X43773063Y61570226D01*
X43917226Y61426063D01*
X44086744Y61312795D01*
X44275102Y61234774D01*
X44475061Y61195000D01*
X44678939Y61195000D01*
X44878898Y61234774D01*
X44942213Y61261000D01*
X45245019Y61261000D01*
X45300506Y61215463D01*
X45410820Y61156498D01*
X45530518Y61120188D01*
X45655000Y61107928D01*
X46955000Y61107928D01*
X47079482Y61120188D01*
X47199180Y61156498D01*
X47309494Y61215463D01*
X47406185Y61294815D01*
X47485537Y61391506D01*
X47544502Y61501820D01*
X47580812Y61621518D01*
X47593072Y61746000D01*
X47593072Y62531000D01*
X48995967Y62531000D01*
X48996528Y62529150D01*
X49078595Y62375614D01*
X49189038Y62241038D01*
X49323614Y62130595D01*
X49477150Y62048528D01*
X49643746Y61997992D01*
X49817000Y61980928D01*
X50767000Y61980928D01*
X50940254Y61997992D01*
X51106850Y62048528D01*
X51260386Y62130595D01*
X51386386Y62234000D01*
X51957422Y62234000D01*
X52587465Y61603956D01*
X52598774Y61547102D01*
X52676795Y61358744D01*
X52790063Y61189226D01*
X52934226Y61045063D01*
X53103744Y60931795D01*
X53292102Y60853774D01*
X53492061Y60814000D01*
X53695939Y60814000D01*
X53895898Y60853774D01*
X54084256Y60931795D01*
X54253774Y61045063D01*
X54397937Y61189226D01*
X54511205Y61358744D01*
X54589226Y61547102D01*
X54629000Y61747061D01*
X54629000Y61950939D01*
X54589226Y62150898D01*
X54511205Y62339256D01*
X54397937Y62508774D01*
X54253774Y62652937D01*
X54084256Y62766205D01*
X53895898Y62844226D01*
X53839044Y62855535D01*
X52980532Y63714046D01*
X52952817Y63747817D01*
X52818059Y63858411D01*
X52664313Y63940589D01*
X52497490Y63991195D01*
X52367477Y64004000D01*
X52367469Y64004000D01*
X52324000Y64008281D01*
X52280531Y64004000D01*
X51386386Y64004000D01*
X51260386Y64107405D01*
X51106850Y64189472D01*
X50940254Y64240008D01*
X50767000Y64257072D01*
X50271087Y64257072D01*
X50168490Y64288195D01*
X50038477Y64301000D01*
X50038469Y64301000D01*
X49995000Y64305281D01*
X49951531Y64301000D01*
X47364981Y64301000D01*
X47309494Y64346537D01*
X47199180Y64405502D01*
X47079482Y64441812D01*
X46955000Y64454072D01*
X46398507Y64454072D01*
X44979534Y65873044D01*
X44951817Y65906817D01*
X44817059Y66017411D01*
X44663313Y66099589D01*
X44496490Y66150195D01*
X44366477Y66163000D01*
X44366469Y66163000D01*
X44323000Y66167281D01*
X44279531Y66163000D01*
X42799000Y66163000D01*
X42799000Y66933000D01*
X46134046Y66933000D01*
X46182244Y66900795D01*
X46370602Y66822774D01*
X46570561Y66783000D01*
X46774439Y66783000D01*
X46974398Y66822774D01*
X47162756Y66900795D01*
X47332274Y67014063D01*
X47476437Y67158226D01*
X47589705Y67327744D01*
X47667726Y67516102D01*
X47707500Y67716061D01*
X47707500Y67919939D01*
X47667726Y68119898D01*
X47589705Y68308256D01*
X47476437Y68477774D01*
X47332274Y68621937D01*
X47162756Y68735205D01*
X46974398Y68813226D01*
X46774439Y68853000D01*
X46570561Y68853000D01*
X46370602Y68813226D01*
X46182244Y68735205D01*
X46134046Y68703000D01*
X42799000Y68703000D01*
X42799000Y69219000D01*
X46134046Y69219000D01*
X46182244Y69186795D01*
X46370602Y69108774D01*
X46570561Y69069000D01*
X46774439Y69069000D01*
X46974398Y69108774D01*
X47162756Y69186795D01*
X47332274Y69300063D01*
X47476437Y69444226D01*
X47589705Y69613744D01*
X47667726Y69802102D01*
X47707500Y70002061D01*
X47707500Y70205939D01*
X47667726Y70405898D01*
X47589705Y70594256D01*
X47476437Y70763774D01*
X47332274Y70907937D01*
X47162756Y71021205D01*
X46974398Y71099226D01*
X46774439Y71139000D01*
X46570561Y71139000D01*
X46370602Y71099226D01*
X46182244Y71021205D01*
X46134046Y70989000D01*
X36703000Y70989000D01*
X36703000Y81806421D01*
X38358000Y80151421D01*
X38358000Y80024696D01*
X38295463Y79948494D01*
X38236498Y79838180D01*
X38200188Y79718482D01*
X38187928Y79594000D01*
X38187928Y78394000D01*
X38200188Y78269518D01*
X38236498Y78149820D01*
X38295463Y78039506D01*
X38358000Y77963304D01*
X38358001Y74436697D01*
X38295463Y74360494D01*
X38236498Y74250180D01*
X38200188Y74130482D01*
X38187928Y74006000D01*
X38187928Y72806000D01*
X38200188Y72681518D01*
X38236498Y72561820D01*
X38295463Y72451506D01*
X38374815Y72354815D01*
X38471506Y72275463D01*
X38581820Y72216498D01*
X38701518Y72180188D01*
X38826000Y72167928D01*
X39726000Y72167928D01*
X39850482Y72180188D01*
X39970180Y72216498D01*
X40080494Y72275463D01*
X40177185Y72354815D01*
X40256537Y72451506D01*
X40315502Y72561820D01*
X40351812Y72681518D01*
X40364072Y72806000D01*
X40364072Y74006000D01*
X41487928Y74006000D01*
X41487928Y72806000D01*
X41500188Y72681518D01*
X41536498Y72561820D01*
X41595463Y72451506D01*
X41674815Y72354815D01*
X41771506Y72275463D01*
X41881820Y72216498D01*
X42001518Y72180188D01*
X42126000Y72167928D01*
X43026000Y72167928D01*
X43150482Y72180188D01*
X43270180Y72216498D01*
X43380494Y72275463D01*
X43477185Y72354815D01*
X43556537Y72451506D01*
X43593683Y72521000D01*
X53550531Y72521000D01*
X53594000Y72516719D01*
X53637469Y72521000D01*
X53637477Y72521000D01*
X53767490Y72533805D01*
X53934313Y72584411D01*
X54088059Y72666589D01*
X54222817Y72777183D01*
X54250534Y72810956D01*
X55967050Y74527471D01*
X56000817Y74555183D01*
X56033907Y74595502D01*
X56111411Y74689941D01*
X56171691Y74802719D01*
X56193589Y74843687D01*
X56244195Y75010510D01*
X56257000Y75140523D01*
X56257000Y75140531D01*
X56261281Y75184000D01*
X56257000Y75227469D01*
X56257000Y76429000D01*
X57435928Y76429000D01*
X57435928Y75529000D01*
X57448188Y75404518D01*
X57484498Y75284820D01*
X57543463Y75174506D01*
X57622815Y75077815D01*
X57719506Y74998463D01*
X57829820Y74939498D01*
X57949518Y74903188D01*
X58074000Y74890928D01*
X59274000Y74890928D01*
X59398482Y74903188D01*
X59518180Y74939498D01*
X59628494Y74998463D01*
X59725185Y75077815D01*
X59804537Y75174506D01*
X59863502Y75284820D01*
X59899812Y75404518D01*
X59912072Y75529000D01*
X59912072Y76429000D01*
X59899812Y76553482D01*
X59863502Y76673180D01*
X59804537Y76783494D01*
X59725185Y76880185D01*
X59628494Y76959537D01*
X59518180Y77018502D01*
X59398482Y77054812D01*
X59274000Y77067072D01*
X58074000Y77067072D01*
X57949518Y77054812D01*
X57829820Y77018502D01*
X57719506Y76959537D01*
X57622815Y76880185D01*
X57543463Y76783494D01*
X57484498Y76673180D01*
X57448188Y76553482D01*
X57435928Y76429000D01*
X56257000Y76429000D01*
X56257000Y78394000D01*
X57609532Y78394000D01*
X57622815Y78377815D01*
X57719506Y78298463D01*
X57829820Y78239498D01*
X57949518Y78203188D01*
X58074000Y78190928D01*
X59274000Y78190928D01*
X59398482Y78203188D01*
X59518180Y78239498D01*
X59628494Y78298463D01*
X59725185Y78377815D01*
X59804537Y78474506D01*
X59863502Y78584820D01*
X59899812Y78704518D01*
X59912072Y78829000D01*
X59912072Y79729000D01*
X59899812Y79853482D01*
X59863502Y79973180D01*
X59804537Y80083494D01*
X59725185Y80180185D01*
X59628494Y80259537D01*
X59518180Y80318502D01*
X59398482Y80354812D01*
X59274000Y80367072D01*
X58074000Y80367072D01*
X57949518Y80354812D01*
X57829820Y80318502D01*
X57719506Y80259537D01*
X57622815Y80180185D01*
X57609532Y80164000D01*
X54945578Y80164000D01*
X54631534Y80478044D01*
X54603817Y80511817D01*
X54469059Y80622411D01*
X54315313Y80704589D01*
X54148490Y80755195D01*
X54018477Y80768000D01*
X54018469Y80768000D01*
X53975000Y80772281D01*
X53931531Y80768000D01*
X53368479Y80768000D01*
X53322962Y80823462D01*
X53188387Y80933905D01*
X53034851Y81015972D01*
X52955000Y81040194D01*
X52955000Y81617535D01*
X52959281Y81661001D01*
X52955000Y81704467D01*
X52955000Y81704477D01*
X52942195Y81834490D01*
X52891589Y82001313D01*
X52809411Y82155059D01*
X52750931Y82226317D01*
X52726532Y82256047D01*
X52726530Y82256049D01*
X52698817Y82289817D01*
X52665049Y82317530D01*
X50595072Y84387506D01*
X50595072Y84902000D01*
X50579929Y85055745D01*
X50577141Y85064939D01*
X53321000Y85064939D01*
X53321000Y84861061D01*
X53360774Y84661102D01*
X53363928Y84653488D01*
X53363928Y84363000D01*
X53376188Y84238518D01*
X53412498Y84118820D01*
X53471463Y84008506D01*
X53550815Y83911815D01*
X53647506Y83832463D01*
X53757820Y83773498D01*
X53877518Y83737188D01*
X54002000Y83724928D01*
X54902000Y83724928D01*
X55026482Y83737188D01*
X55146180Y83773498D01*
X55256494Y83832463D01*
X55353185Y83911815D01*
X55432537Y84008506D01*
X55491502Y84118820D01*
X55527812Y84238518D01*
X55540072Y84363000D01*
X55540072Y85563000D01*
X56663928Y85563000D01*
X56663928Y84363000D01*
X56676188Y84238518D01*
X56712498Y84118820D01*
X56771463Y84008506D01*
X56850815Y83911815D01*
X56947506Y83832463D01*
X57057820Y83773498D01*
X57177518Y83737188D01*
X57302000Y83724928D01*
X58202000Y83724928D01*
X58326482Y83737188D01*
X58446180Y83773498D01*
X58556494Y83832463D01*
X58653185Y83911815D01*
X58732537Y84008506D01*
X58791502Y84118820D01*
X58827812Y84238518D01*
X58840072Y84363000D01*
X58840072Y85563000D01*
X58827812Y85687482D01*
X58791502Y85807180D01*
X58732537Y85917494D01*
X58653185Y86014185D01*
X58556494Y86093537D01*
X58446180Y86152502D01*
X58326482Y86188812D01*
X58202000Y86201072D01*
X57302000Y86201072D01*
X57177518Y86188812D01*
X57057820Y86152502D01*
X56947506Y86093537D01*
X56850815Y86014185D01*
X56771463Y85917494D01*
X56712498Y85807180D01*
X56676188Y85687482D01*
X56663928Y85563000D01*
X55540072Y85563000D01*
X55527812Y85687482D01*
X55491502Y85807180D01*
X55432537Y85917494D01*
X55353185Y86014185D01*
X55256494Y86093537D01*
X55146180Y86152502D01*
X55026482Y86188812D01*
X54902000Y86201072D01*
X54002000Y86201072D01*
X53877518Y86188812D01*
X53757820Y86152502D01*
X53647506Y86093537D01*
X53550815Y86014185D01*
X53471463Y85917494D01*
X53412498Y85807180D01*
X53376188Y85687482D01*
X53363928Y85563000D01*
X53363928Y85272512D01*
X53360774Y85264898D01*
X53321000Y85064939D01*
X50577141Y85064939D01*
X50535084Y85203582D01*
X50462258Y85339829D01*
X50364251Y85459251D01*
X50244829Y85557258D01*
X50108582Y85630084D01*
X49960745Y85674929D01*
X49807000Y85690072D01*
X49507000Y85690072D01*
X49353255Y85674929D01*
X49205418Y85630084D01*
X49069171Y85557258D01*
X48949749Y85459251D01*
X48851742Y85339829D01*
X48778916Y85203582D01*
X48734071Y85055745D01*
X48718928Y84902000D01*
X48718928Y83252000D01*
X48734071Y83098255D01*
X48778916Y82950418D01*
X48851742Y82814171D01*
X48949749Y82694749D01*
X49069171Y82596742D01*
X49205418Y82523916D01*
X49353255Y82479071D01*
X49507000Y82463928D01*
X49807000Y82463928D01*
X49960745Y82479071D01*
X49991133Y82488289D01*
X51185001Y81294420D01*
X51185001Y81040195D01*
X51105149Y81015972D01*
X50951613Y80933905D01*
X50817038Y80823462D01*
X50706595Y80688887D01*
X50624528Y80535351D01*
X50573992Y80368755D01*
X50556928Y80195501D01*
X50556928Y79570499D01*
X50573992Y79397245D01*
X50624528Y79230649D01*
X50706595Y79077113D01*
X50817038Y78942538D01*
X50951613Y78832095D01*
X51105149Y78750028D01*
X51271745Y78699492D01*
X51444999Y78682428D01*
X52695001Y78682428D01*
X52868255Y78699492D01*
X53034851Y78750028D01*
X53188387Y78832095D01*
X53322962Y78942538D01*
X53368479Y78998000D01*
X53608422Y78998000D01*
X53922466Y78683956D01*
X53950183Y78650183D01*
X53983954Y78622468D01*
X54487001Y78119420D01*
X54487000Y75550579D01*
X53227422Y74291000D01*
X43593683Y74291000D01*
X43556537Y74360494D01*
X43477185Y74457185D01*
X43380494Y74536537D01*
X43270180Y74595502D01*
X43150482Y74631812D01*
X43026000Y74644072D01*
X42126000Y74644072D01*
X42001518Y74631812D01*
X41881820Y74595502D01*
X41771506Y74536537D01*
X41674815Y74457185D01*
X41595463Y74360494D01*
X41536498Y74250180D01*
X41500188Y74130482D01*
X41487928Y74006000D01*
X40364072Y74006000D01*
X40351812Y74130482D01*
X40315502Y74250180D01*
X40256537Y74360494D01*
X40177185Y74457185D01*
X40128000Y74497550D01*
X40128000Y77902450D01*
X40177185Y77942815D01*
X40256537Y78039506D01*
X40315502Y78149820D01*
X40351812Y78269518D01*
X40364072Y78394000D01*
X40364072Y79594000D01*
X40351812Y79718482D01*
X40315502Y79838180D01*
X40256537Y79948494D01*
X40177185Y80045185D01*
X40128000Y80085550D01*
X40128000Y80474535D01*
X40132281Y80518001D01*
X40128000Y80561467D01*
X40128000Y80561477D01*
X40115195Y80691490D01*
X40064589Y80858313D01*
X39982411Y81012059D01*
X39871817Y81146817D01*
X39838045Y81174533D01*
X39645537Y81367041D01*
X39645532Y81367047D01*
X33651000Y87361578D01*
X33651000Y87873217D01*
X33688929Y87998255D01*
X33704072Y88152000D01*
X33704072Y89902000D01*
X33688929Y90055745D01*
X33644084Y90203582D01*
X33571258Y90339829D01*
X33473251Y90459251D01*
X33356580Y90555000D01*
X40654422Y90555000D01*
X40659502Y90549919D01*
X40512613Y90471405D01*
X40378038Y90360962D01*
X40267595Y90226387D01*
X40185528Y90072851D01*
X40134992Y89906255D01*
X40117928Y89733001D01*
X40117928Y89082999D01*
X40134992Y88909745D01*
X40185528Y88743149D01*
X40267595Y88589613D01*
X40378038Y88455038D01*
X40512613Y88344595D01*
X40666149Y88262528D01*
X40832745Y88211992D01*
X41005999Y88194928D01*
X42306001Y88194928D01*
X42479255Y88211992D01*
X42645851Y88262528D01*
X42799387Y88344595D01*
X42835329Y88374092D01*
X44962000Y86247421D01*
X44962001Y85180784D01*
X44924071Y85055745D01*
X44908928Y84902000D01*
X44908928Y83252000D01*
X44924071Y83098255D01*
X44968916Y82950418D01*
X45041742Y82814171D01*
X45139749Y82694749D01*
X45259171Y82596742D01*
X45395418Y82523916D01*
X45543255Y82479071D01*
X45697000Y82463928D01*
X45997000Y82463928D01*
X46150745Y82479071D01*
X46232000Y82503719D01*
X46232000Y82212469D01*
X46227719Y82169000D01*
X46232000Y82125531D01*
X46232000Y82125524D01*
X46243212Y82011686D01*
X46244234Y82001313D01*
X46244805Y81995511D01*
X46295411Y81828688D01*
X46377589Y81674942D01*
X46488183Y81540183D01*
X46521956Y81512466D01*
X46681965Y81352457D01*
X46693274Y81295602D01*
X46771295Y81107244D01*
X46824675Y81027355D01*
X46787149Y81015972D01*
X46633613Y80933905D01*
X46499038Y80823462D01*
X46453521Y80768000D01*
X45382469Y80768000D01*
X45339000Y80772281D01*
X45295531Y80768000D01*
X45295523Y80768000D01*
X45165510Y80755195D01*
X44998687Y80704589D01*
X44953236Y80680295D01*
X44844941Y80622411D01*
X44743953Y80539532D01*
X44743951Y80539530D01*
X44710183Y80511817D01*
X44682470Y80478049D01*
X44083422Y79879000D01*
X43593683Y79879000D01*
X43556537Y79948494D01*
X43477185Y80045185D01*
X43380494Y80124537D01*
X43270180Y80183502D01*
X43150482Y80219812D01*
X43026000Y80232072D01*
X42126000Y80232072D01*
X42001518Y80219812D01*
X41881820Y80183502D01*
X41771506Y80124537D01*
X41674815Y80045185D01*
X41595463Y79948494D01*
X41536498Y79838180D01*
X41500188Y79718482D01*
X41487928Y79594000D01*
X41487928Y78394000D01*
X41500188Y78269518D01*
X41536498Y78149820D01*
X41595463Y78039506D01*
X41674815Y77942815D01*
X41771506Y77863463D01*
X41881820Y77804498D01*
X42001518Y77768188D01*
X42126000Y77755928D01*
X43026000Y77755928D01*
X43150482Y77768188D01*
X43270180Y77804498D01*
X43380494Y77863463D01*
X43477185Y77942815D01*
X43556537Y78039506D01*
X43593683Y78109000D01*
X44406531Y78109000D01*
X44450000Y78104719D01*
X44493469Y78109000D01*
X44493477Y78109000D01*
X44623490Y78121805D01*
X44790313Y78172411D01*
X44944059Y78254589D01*
X45078817Y78365183D01*
X45106534Y78398956D01*
X45705579Y78998000D01*
X46453521Y78998000D01*
X46499038Y78942538D01*
X46633613Y78832095D01*
X46787149Y78750028D01*
X46953745Y78699492D01*
X47126999Y78682428D01*
X48377001Y78682428D01*
X48550255Y78699492D01*
X48716851Y78750028D01*
X48870387Y78832095D01*
X49004962Y78942538D01*
X49115405Y79077113D01*
X49197472Y79230649D01*
X49248008Y79397245D01*
X49265072Y79570499D01*
X49265072Y80195501D01*
X49248008Y80368755D01*
X49197472Y80535351D01*
X49115405Y80688887D01*
X49004962Y80823462D01*
X48870387Y80933905D01*
X48716851Y81015972D01*
X48637000Y81040194D01*
X48637000Y81182796D01*
X48683726Y81295602D01*
X48723500Y81495561D01*
X48723500Y81699439D01*
X48683726Y81899398D01*
X48605705Y82087756D01*
X48492437Y82257274D01*
X48348274Y82401437D01*
X48178756Y82514705D01*
X48002000Y82587920D01*
X48002000Y82973217D01*
X48039929Y83098255D01*
X48055072Y83252000D01*
X48055072Y84902000D01*
X48039929Y85055745D01*
X47995084Y85203582D01*
X47922258Y85339829D01*
X47824251Y85459251D01*
X47704829Y85557258D01*
X47568582Y85630084D01*
X47420745Y85674929D01*
X47267000Y85690072D01*
X46967000Y85690072D01*
X46813255Y85674929D01*
X46732000Y85650281D01*
X46732000Y85729000D01*
X47708531Y85729000D01*
X47752000Y85724719D01*
X47795469Y85729000D01*
X47795477Y85729000D01*
X47925490Y85741805D01*
X48092313Y85792411D01*
X48246059Y85874589D01*
X48380817Y85985183D01*
X48408534Y86018956D01*
X48982049Y86592470D01*
X49015817Y86620183D01*
X49126411Y86754941D01*
X49143809Y86787490D01*
X49208589Y86908686D01*
X49259195Y87075510D01*
X49272000Y87205523D01*
X49272000Y87205531D01*
X49276281Y87249000D01*
X49272000Y87292469D01*
X49272000Y87453719D01*
X49353255Y87429071D01*
X49507000Y87413928D01*
X49807000Y87413928D01*
X49960745Y87429071D01*
X50108582Y87473916D01*
X50244829Y87546742D01*
X50364251Y87644749D01*
X50462258Y87764171D01*
X50535084Y87900418D01*
X50579929Y88048255D01*
X50595072Y88202000D01*
X50595072Y89852000D01*
X50579929Y90005745D01*
X50559074Y90074496D01*
X51522050Y91037471D01*
X51555817Y91065183D01*
X51666411Y91199941D01*
X51748589Y91353687D01*
X51799195Y91520510D01*
X51812000Y91650523D01*
X51812000Y91650533D01*
X51816281Y91693999D01*
X51812000Y91737465D01*
X51812000Y92300521D01*
X51867462Y92346038D01*
X51977905Y92480613D01*
X52059972Y92634149D01*
X52110508Y92800745D01*
X52127572Y92973999D01*
X52127572Y94224001D01*
X52651428Y94224001D01*
X52651428Y92973999D01*
X52668492Y92800745D01*
X52719028Y92634149D01*
X52801095Y92480613D01*
X52911538Y92346038D01*
X53046113Y92235595D01*
X53199649Y92153528D01*
X53366245Y92102992D01*
X53539499Y92085928D01*
X54164501Y92085928D01*
X54337755Y92102992D01*
X54504351Y92153528D01*
X54657887Y92235595D01*
X54792462Y92346038D01*
X54902905Y92480613D01*
X54984972Y92634149D01*
X55009194Y92714000D01*
X55201531Y92714000D01*
X55245000Y92709719D01*
X55288469Y92714000D01*
X55288477Y92714000D01*
X55418490Y92726805D01*
X55585313Y92777411D01*
X55739059Y92859589D01*
X55873817Y92970183D01*
X55901534Y93003956D01*
X61834579Y98937000D01*
X61865928Y98937000D01*
X61865928Y97572000D01*
X61878188Y97447518D01*
X61914498Y97327820D01*
X61973463Y97217506D01*
X62052815Y97120815D01*
X62149506Y97041463D01*
X62259820Y96982498D01*
X62379518Y96946188D01*
X62504000Y96933928D01*
X65004000Y96933928D01*
X65128482Y96946188D01*
X65248180Y96982498D01*
X65358494Y97041463D01*
X65455185Y97120815D01*
X65534537Y97217506D01*
X65593502Y97327820D01*
X65629812Y97447518D01*
X65642072Y97572000D01*
X65642072Y100914596D01*
X67319000Y100914596D01*
X67319001Y98729403D01*
X67346276Y98452476D01*
X67454062Y98097152D01*
X67629098Y97769683D01*
X67864656Y97482655D01*
X68151684Y97247097D01*
X68479153Y97072061D01*
X68834477Y96964275D01*
X69204000Y96927880D01*
X69573524Y96964275D01*
X69928848Y97072061D01*
X70256317Y97247097D01*
X70543345Y97482655D01*
X70778903Y97769683D01*
X70953939Y98097152D01*
X71061725Y98452476D01*
X71089000Y98729403D01*
X71089000Y100914597D01*
X71061725Y101191524D01*
X70953939Y101546848D01*
X70778903Y101874317D01*
X70543345Y102161345D01*
X70256317Y102396903D01*
X69928847Y102571939D01*
X69573523Y102679725D01*
X69204000Y102716120D01*
X68834476Y102679725D01*
X68479152Y102571939D01*
X68151683Y102396903D01*
X67864655Y102161345D01*
X67629097Y101874317D01*
X67454061Y101546847D01*
X67346275Y101191523D01*
X67319000Y100914596D01*
X65642072Y100914596D01*
X65642072Y102072000D01*
X65629812Y102196482D01*
X65593502Y102316180D01*
X65534537Y102426494D01*
X65455185Y102523185D01*
X65358494Y102602537D01*
X65248180Y102661502D01*
X65128482Y102697812D01*
X65004000Y102710072D01*
X62504000Y102710072D01*
X62379518Y102697812D01*
X62259820Y102661502D01*
X62149506Y102602537D01*
X62052815Y102523185D01*
X61973463Y102426494D01*
X61914498Y102316180D01*
X61878188Y102196482D01*
X61865928Y102072000D01*
X61865928Y100707000D01*
X61511469Y100707000D01*
X61468000Y100711281D01*
X61424531Y100707000D01*
X61424523Y100707000D01*
X61309306Y100695652D01*
X61294509Y100694195D01*
X61243903Y100678843D01*
X61127687Y100643589D01*
X60973941Y100561411D01*
X60973939Y100561410D01*
X60973940Y100561410D01*
X60872953Y100478532D01*
X60872951Y100478530D01*
X60839183Y100450817D01*
X60811470Y100417049D01*
X54975672Y94581250D01*
X54902905Y94717387D01*
X54792462Y94851962D01*
X54657887Y94962405D01*
X54504351Y95044472D01*
X54337755Y95095008D01*
X54164501Y95112072D01*
X53539499Y95112072D01*
X53366245Y95095008D01*
X53199649Y95044472D01*
X53046113Y94962405D01*
X52911538Y94851962D01*
X52801095Y94717387D01*
X52719028Y94563851D01*
X52668492Y94397255D01*
X52651428Y94224001D01*
X52127572Y94224001D01*
X52110508Y94397255D01*
X52059972Y94563851D01*
X51977905Y94717387D01*
X51867462Y94851962D01*
X51732887Y94962405D01*
X51579351Y95044472D01*
X51412755Y95095008D01*
X51239501Y95112072D01*
X50614499Y95112072D01*
X50441245Y95095008D01*
X50274649Y95044472D01*
X50121113Y94962405D01*
X49986538Y94851962D01*
X49876095Y94717387D01*
X49794028Y94563851D01*
X49743492Y94397255D01*
X49726428Y94224001D01*
X49726428Y92973999D01*
X49743492Y92800745D01*
X49794028Y92634149D01*
X49876095Y92480613D01*
X49986538Y92346038D01*
X50042000Y92300521D01*
X50042000Y92060579D01*
X49061951Y91080529D01*
X49028184Y91052817D01*
X49000471Y91019049D01*
X49000468Y91019046D01*
X48917590Y90918059D01*
X48835412Y90764313D01*
X48784805Y90597490D01*
X48784700Y90596428D01*
X48690745Y90624929D01*
X48537000Y90640072D01*
X48237000Y90640072D01*
X48083255Y90624929D01*
X48002000Y90600281D01*
X48002000Y92297239D01*
X48061462Y92346038D01*
X48171905Y92480613D01*
X48253972Y92634149D01*
X48304508Y92800745D01*
X48321572Y92973999D01*
X48321572Y94224001D01*
X48304508Y94397255D01*
X48253972Y94563851D01*
X48171905Y94717387D01*
X48061462Y94851962D01*
X47926887Y94962405D01*
X47773351Y95044472D01*
X47606755Y95095008D01*
X47433501Y95112072D01*
X46808499Y95112072D01*
X46635245Y95095008D01*
X46468649Y95044472D01*
X46315113Y94962405D01*
X46180538Y94851962D01*
X46070095Y94717387D01*
X45988028Y94563851D01*
X45937492Y94397255D01*
X45920428Y94224001D01*
X45920428Y92973999D01*
X45937492Y92800745D01*
X45988028Y92634149D01*
X46070095Y92480613D01*
X46180538Y92346038D01*
X46232001Y92303804D01*
X46232000Y90600281D01*
X46150745Y90624929D01*
X45997000Y90640072D01*
X45697000Y90640072D01*
X45543255Y90624929D01*
X45395418Y90580084D01*
X45259171Y90507258D01*
X45139749Y90409251D01*
X45041742Y90289829D01*
X44968916Y90153582D01*
X44924071Y90005745D01*
X44908928Y89852000D01*
X44908928Y88803651D01*
X43011036Y90701542D01*
X43011032Y90701547D01*
X43011027Y90701552D01*
X42983317Y90735317D01*
X42949552Y90763027D01*
X41677534Y92035044D01*
X41649817Y92068817D01*
X41515059Y92179411D01*
X41361313Y92261589D01*
X41194490Y92312195D01*
X41064477Y92325000D01*
X41064469Y92325000D01*
X41021000Y92329281D01*
X40977531Y92325000D01*
X32381000Y92325000D01*
X32381000Y92377614D01*
X32484405Y92503614D01*
X32566472Y92657150D01*
X32617008Y92823746D01*
X32634072Y92997000D01*
X32634072Y93947000D01*
X32617008Y94120254D01*
X32566472Y94286850D01*
X32484405Y94440386D01*
X32373962Y94574962D01*
X32239386Y94685405D01*
X32085850Y94767472D01*
X31919254Y94818008D01*
X31746000Y94835072D01*
X31246000Y94835072D01*
X31072746Y94818008D01*
X30906150Y94767472D01*
X30752614Y94685405D01*
X30618038Y94574962D01*
X30507595Y94440386D01*
X30425528Y94286850D01*
X30374992Y94120254D01*
X30357928Y93947000D01*
X30357928Y92997000D01*
X30374992Y92823746D01*
X30425528Y92657150D01*
X30507595Y92503614D01*
X30611000Y92377613D01*
X30611000Y91483477D01*
X30606718Y91440000D01*
X30611000Y91396524D01*
X30611000Y91269524D01*
X30611001Y91269514D01*
X30611001Y90650281D01*
X30529745Y90674929D01*
X30376000Y90690072D01*
X30099000Y90690072D01*
X30099000Y94869000D01*
X41148000Y94869000D01*
X41172776Y94871440D01*
X41196601Y94878667D01*
X41218557Y94890403D01*
X41237803Y94906197D01*
X41253597Y94925443D01*
X41265333Y94947399D01*
X41272560Y94971224D01*
X41275000Y94996000D01*
X41275000Y102072000D01*
X42307928Y102072000D01*
X42307928Y97572000D01*
X42320188Y97447518D01*
X42356498Y97327820D01*
X42415463Y97217506D01*
X42494815Y97120815D01*
X42591506Y97041463D01*
X42701820Y96982498D01*
X42821518Y96946188D01*
X42946000Y96933928D01*
X43311001Y96933928D01*
X43311000Y94897479D01*
X43255538Y94851962D01*
X43145095Y94717387D01*
X43063028Y94563851D01*
X43012492Y94397255D01*
X42995428Y94224001D01*
X42995428Y92973999D01*
X43012492Y92800745D01*
X43063028Y92634149D01*
X43145095Y92480613D01*
X43255538Y92346038D01*
X43390113Y92235595D01*
X43543649Y92153528D01*
X43710245Y92102992D01*
X43883499Y92085928D01*
X44508501Y92085928D01*
X44681755Y92102992D01*
X44848351Y92153528D01*
X45001887Y92235595D01*
X45136462Y92346038D01*
X45246905Y92480613D01*
X45328972Y92634149D01*
X45379508Y92800745D01*
X45396572Y92973999D01*
X45396572Y94224001D01*
X45379508Y94397255D01*
X45328972Y94563851D01*
X45246905Y94717387D01*
X45136462Y94851962D01*
X45081000Y94897479D01*
X45081000Y96933928D01*
X45446000Y96933928D01*
X45570482Y96946188D01*
X45690180Y96982498D01*
X45800494Y97041463D01*
X45897185Y97120815D01*
X45976537Y97217506D01*
X46035502Y97327820D01*
X46071812Y97447518D01*
X46084072Y97572000D01*
X46084072Y100914596D01*
X47761000Y100914596D01*
X47761001Y98729403D01*
X47788276Y98452476D01*
X47896062Y98097152D01*
X48071098Y97769683D01*
X48306656Y97482655D01*
X48593684Y97247097D01*
X48921153Y97072061D01*
X49276477Y96964275D01*
X49646000Y96927880D01*
X50015524Y96964275D01*
X50370848Y97072061D01*
X50698317Y97247097D01*
X50985345Y97482655D01*
X51220903Y97769683D01*
X51395939Y98097152D01*
X51503725Y98452476D01*
X51531000Y98729403D01*
X51531000Y100914597D01*
X51503725Y101191524D01*
X51395939Y101546848D01*
X51220903Y101874317D01*
X50985345Y102161345D01*
X50698317Y102396903D01*
X50370847Y102571939D01*
X50015523Y102679725D01*
X49646000Y102716120D01*
X49276476Y102679725D01*
X48921152Y102571939D01*
X48593683Y102396903D01*
X48306655Y102161345D01*
X48071097Y101874317D01*
X47896061Y101546847D01*
X47788275Y101191523D01*
X47761000Y100914596D01*
X46084072Y100914596D01*
X46084072Y102072000D01*
X46071812Y102196482D01*
X46035502Y102316180D01*
X45976537Y102426494D01*
X45897185Y102523185D01*
X45800494Y102602537D01*
X45690180Y102661502D01*
X45570482Y102697812D01*
X45446000Y102710072D01*
X42946000Y102710072D01*
X42821518Y102697812D01*
X42701820Y102661502D01*
X42591506Y102602537D01*
X42494815Y102523185D01*
X42415463Y102426494D01*
X42356498Y102316180D01*
X42320188Y102196482D01*
X42307928Y102072000D01*
X41275000Y102072000D01*
X41275000Y103505000D01*
X77597000Y103505000D01*
X77597000Y96139000D01*
%TA.AperFunction,Conductor*%
D35*
G36*
X77597000Y96139000D02*
G01*
X61468000Y96139000D01*
X61443224Y96136560D01*
X61419399Y96129333D01*
X61397443Y96117597D01*
X61378197Y96101803D01*
X61362403Y96082557D01*
X61350667Y96060601D01*
X61343440Y96036776D01*
X61341000Y96012000D01*
X61341000Y93468000D01*
X59777537Y93468000D01*
X59697962Y93564962D01*
X59563387Y93675405D01*
X59409851Y93757472D01*
X59243255Y93808008D01*
X59070001Y93825072D01*
X57769999Y93825072D01*
X57596745Y93808008D01*
X57430149Y93757472D01*
X57276613Y93675405D01*
X57142038Y93564962D01*
X57031595Y93430387D01*
X56949528Y93276851D01*
X56898992Y93110255D01*
X56881928Y92937001D01*
X56881928Y92286999D01*
X56898992Y92113745D01*
X56949528Y91947149D01*
X57031595Y91793613D01*
X57142038Y91659038D01*
X57276613Y91548595D01*
X57430149Y91466528D01*
X57596745Y91415992D01*
X57769999Y91398928D01*
X59070001Y91398928D01*
X59243255Y91415992D01*
X59409851Y91466528D01*
X59563387Y91548595D01*
X59697962Y91659038D01*
X59729937Y91698000D01*
X61341000Y91698000D01*
X61341000Y90509772D01*
X61260490Y90534195D01*
X61130477Y90547000D01*
X61130469Y90547000D01*
X61087000Y90551281D01*
X61043531Y90547000D01*
X59753737Y90547000D01*
X59697962Y90614962D01*
X59563387Y90725405D01*
X59409851Y90807472D01*
X59243255Y90858008D01*
X59070001Y90875072D01*
X57769999Y90875072D01*
X57596745Y90858008D01*
X57430149Y90807472D01*
X57276613Y90725405D01*
X57142038Y90614962D01*
X57031595Y90480387D01*
X56949528Y90326851D01*
X56898992Y90160255D01*
X56881928Y89987001D01*
X56881928Y89336999D01*
X56898992Y89163745D01*
X56949528Y88997149D01*
X57031595Y88843613D01*
X57142038Y88709038D01*
X57276613Y88598595D01*
X57430149Y88516528D01*
X57596745Y88465992D01*
X57769999Y88448928D01*
X59070001Y88448928D01*
X59243255Y88465992D01*
X59409851Y88516528D01*
X59563387Y88598595D01*
X59697962Y88709038D01*
X59753737Y88777000D01*
X60720422Y88777000D01*
X61341000Y88156422D01*
X61341000Y70989000D01*
X52100454Y70989000D01*
X52052256Y71021205D01*
X51863898Y71099226D01*
X51663939Y71139000D01*
X51460061Y71139000D01*
X51260102Y71099226D01*
X51071744Y71021205D01*
X50902226Y70907937D01*
X50758063Y70763774D01*
X50644795Y70594256D01*
X50566774Y70405898D01*
X50527000Y70205939D01*
X50527000Y70002061D01*
X50566774Y69802102D01*
X50644795Y69613744D01*
X50758063Y69444226D01*
X50902226Y69300063D01*
X51071744Y69186795D01*
X51260102Y69108774D01*
X51460061Y69069000D01*
X51663939Y69069000D01*
X51863898Y69108774D01*
X52052256Y69186795D01*
X52100454Y69219000D01*
X61341000Y69219000D01*
X61341000Y68703000D01*
X52100454Y68703000D01*
X52052256Y68735205D01*
X51863898Y68813226D01*
X51663939Y68853000D01*
X51460061Y68853000D01*
X51260102Y68813226D01*
X51071744Y68735205D01*
X50902226Y68621937D01*
X50758063Y68477774D01*
X50644795Y68308256D01*
X50566774Y68119898D01*
X50527000Y67919939D01*
X50527000Y67716061D01*
X50566774Y67516102D01*
X50644795Y67327744D01*
X50758063Y67158226D01*
X50902226Y67014063D01*
X51071744Y66900795D01*
X51260102Y66822774D01*
X51460061Y66783000D01*
X51663939Y66783000D01*
X51863898Y66822774D01*
X52052256Y66900795D01*
X52100454Y66933000D01*
X61341000Y66933000D01*
X61341000Y52451000D01*
X54479000Y52451000D01*
X54479000Y56230546D01*
X54511205Y56278744D01*
X54589226Y56467102D01*
X54629000Y56667061D01*
X54629000Y56870939D01*
X54589226Y57070898D01*
X54511205Y57259256D01*
X54397937Y57428774D01*
X54253774Y57572937D01*
X54084256Y57686205D01*
X53895898Y57764226D01*
X53695939Y57804000D01*
X53492061Y57804000D01*
X53292102Y57764226D01*
X53103744Y57686205D01*
X53048063Y57649000D01*
X51386386Y57649000D01*
X51260386Y57752405D01*
X51106850Y57834472D01*
X50940254Y57885008D01*
X50767000Y57902072D01*
X50141666Y57902072D01*
X50081477Y57908000D01*
X50081469Y57908000D01*
X50038000Y57912281D01*
X49994531Y57908000D01*
X47338981Y57908000D01*
X47283494Y57953537D01*
X47173180Y58012502D01*
X47053482Y58048812D01*
X46929000Y58061072D01*
X45629000Y58061072D01*
X45504518Y58048812D01*
X45384820Y58012502D01*
X45274506Y57953537D01*
X45177815Y57874185D01*
X45098463Y57777494D01*
X45039498Y57667180D01*
X45003188Y57547482D01*
X44990928Y57423000D01*
X44990928Y56828821D01*
X44878898Y56875226D01*
X44678939Y56915000D01*
X44475061Y56915000D01*
X44275102Y56875226D01*
X44086744Y56797205D01*
X43917226Y56683937D01*
X43773063Y56539774D01*
X43659795Y56370256D01*
X43581774Y56181898D01*
X43542000Y55981939D01*
X43542000Y55778061D01*
X43581774Y55578102D01*
X43659795Y55389744D01*
X43773063Y55220226D01*
X43917226Y55076063D01*
X44086744Y54962795D01*
X44275102Y54884774D01*
X44475061Y54845000D01*
X44678939Y54845000D01*
X44794569Y54868000D01*
X45219019Y54868000D01*
X45274506Y54822463D01*
X45384820Y54763498D01*
X45504518Y54727188D01*
X45629000Y54714928D01*
X46929000Y54714928D01*
X47053482Y54727188D01*
X47173180Y54763498D01*
X47283494Y54822463D01*
X47380185Y54901815D01*
X47459537Y54998506D01*
X47518502Y55108820D01*
X47554812Y55228518D01*
X47567072Y55353000D01*
X47567072Y56138000D01*
X49015851Y56138000D01*
X49078595Y56020614D01*
X49189038Y55886038D01*
X49323614Y55775595D01*
X49477150Y55693528D01*
X49643746Y55642992D01*
X49817000Y55625928D01*
X50767000Y55625928D01*
X50940254Y55642992D01*
X51106850Y55693528D01*
X51260386Y55775595D01*
X51386386Y55879000D01*
X52709001Y55879000D01*
X52709001Y52451000D01*
X42799000Y52451000D01*
X42799000Y64393000D01*
X43956422Y64393000D01*
X45016928Y63332493D01*
X45016928Y63168052D01*
X44878898Y63225226D01*
X44678939Y63265000D01*
X44475061Y63265000D01*
X44275102Y63225226D01*
X44086744Y63147205D01*
X43917226Y63033937D01*
X43773063Y62889774D01*
X43659795Y62720256D01*
X43581774Y62531898D01*
X43542000Y62331939D01*
X43542000Y62128061D01*
X43581774Y61928102D01*
X43659795Y61739744D01*
X43773063Y61570226D01*
X43917226Y61426063D01*
X44086744Y61312795D01*
X44275102Y61234774D01*
X44475061Y61195000D01*
X44678939Y61195000D01*
X44878898Y61234774D01*
X44942213Y61261000D01*
X45245019Y61261000D01*
X45300506Y61215463D01*
X45410820Y61156498D01*
X45530518Y61120188D01*
X45655000Y61107928D01*
X46955000Y61107928D01*
X47079482Y61120188D01*
X47199180Y61156498D01*
X47309494Y61215463D01*
X47406185Y61294815D01*
X47485537Y61391506D01*
X47544502Y61501820D01*
X47580812Y61621518D01*
X47593072Y61746000D01*
X47593072Y62531000D01*
X48995967Y62531000D01*
X48996528Y62529150D01*
X49078595Y62375614D01*
X49189038Y62241038D01*
X49323614Y62130595D01*
X49477150Y62048528D01*
X49643746Y61997992D01*
X49817000Y61980928D01*
X50767000Y61980928D01*
X50940254Y61997992D01*
X51106850Y62048528D01*
X51260386Y62130595D01*
X51386386Y62234000D01*
X51957422Y62234000D01*
X52587465Y61603956D01*
X52598774Y61547102D01*
X52676795Y61358744D01*
X52790063Y61189226D01*
X52934226Y61045063D01*
X53103744Y60931795D01*
X53292102Y60853774D01*
X53492061Y60814000D01*
X53695939Y60814000D01*
X53895898Y60853774D01*
X54084256Y60931795D01*
X54253774Y61045063D01*
X54397937Y61189226D01*
X54511205Y61358744D01*
X54589226Y61547102D01*
X54629000Y61747061D01*
X54629000Y61950939D01*
X54589226Y62150898D01*
X54511205Y62339256D01*
X54397937Y62508774D01*
X54253774Y62652937D01*
X54084256Y62766205D01*
X53895898Y62844226D01*
X53839044Y62855535D01*
X52980532Y63714046D01*
X52952817Y63747817D01*
X52818059Y63858411D01*
X52664313Y63940589D01*
X52497490Y63991195D01*
X52367477Y64004000D01*
X52367469Y64004000D01*
X52324000Y64008281D01*
X52280531Y64004000D01*
X51386386Y64004000D01*
X51260386Y64107405D01*
X51106850Y64189472D01*
X50940254Y64240008D01*
X50767000Y64257072D01*
X50271087Y64257072D01*
X50168490Y64288195D01*
X50038477Y64301000D01*
X50038469Y64301000D01*
X49995000Y64305281D01*
X49951531Y64301000D01*
X47364981Y64301000D01*
X47309494Y64346537D01*
X47199180Y64405502D01*
X47079482Y64441812D01*
X46955000Y64454072D01*
X46398507Y64454072D01*
X44979534Y65873044D01*
X44951817Y65906817D01*
X44817059Y66017411D01*
X44663313Y66099589D01*
X44496490Y66150195D01*
X44366477Y66163000D01*
X44366469Y66163000D01*
X44323000Y66167281D01*
X44279531Y66163000D01*
X42799000Y66163000D01*
X42799000Y66933000D01*
X46134046Y66933000D01*
X46182244Y66900795D01*
X46370602Y66822774D01*
X46570561Y66783000D01*
X46774439Y66783000D01*
X46974398Y66822774D01*
X47162756Y66900795D01*
X47332274Y67014063D01*
X47476437Y67158226D01*
X47589705Y67327744D01*
X47667726Y67516102D01*
X47707500Y67716061D01*
X47707500Y67919939D01*
X47667726Y68119898D01*
X47589705Y68308256D01*
X47476437Y68477774D01*
X47332274Y68621937D01*
X47162756Y68735205D01*
X46974398Y68813226D01*
X46774439Y68853000D01*
X46570561Y68853000D01*
X46370602Y68813226D01*
X46182244Y68735205D01*
X46134046Y68703000D01*
X42799000Y68703000D01*
X42799000Y69219000D01*
X46134046Y69219000D01*
X46182244Y69186795D01*
X46370602Y69108774D01*
X46570561Y69069000D01*
X46774439Y69069000D01*
X46974398Y69108774D01*
X47162756Y69186795D01*
X47332274Y69300063D01*
X47476437Y69444226D01*
X47589705Y69613744D01*
X47667726Y69802102D01*
X47707500Y70002061D01*
X47707500Y70205939D01*
X47667726Y70405898D01*
X47589705Y70594256D01*
X47476437Y70763774D01*
X47332274Y70907937D01*
X47162756Y71021205D01*
X46974398Y71099226D01*
X46774439Y71139000D01*
X46570561Y71139000D01*
X46370602Y71099226D01*
X46182244Y71021205D01*
X46134046Y70989000D01*
X36703000Y70989000D01*
X36703000Y81806421D01*
X38358000Y80151421D01*
X38358000Y80024696D01*
X38295463Y79948494D01*
X38236498Y79838180D01*
X38200188Y79718482D01*
X38187928Y79594000D01*
X38187928Y78394000D01*
X38200188Y78269518D01*
X38236498Y78149820D01*
X38295463Y78039506D01*
X38358000Y77963304D01*
X38358001Y74436697D01*
X38295463Y74360494D01*
X38236498Y74250180D01*
X38200188Y74130482D01*
X38187928Y74006000D01*
X38187928Y72806000D01*
X38200188Y72681518D01*
X38236498Y72561820D01*
X38295463Y72451506D01*
X38374815Y72354815D01*
X38471506Y72275463D01*
X38581820Y72216498D01*
X38701518Y72180188D01*
X38826000Y72167928D01*
X39726000Y72167928D01*
X39850482Y72180188D01*
X39970180Y72216498D01*
X40080494Y72275463D01*
X40177185Y72354815D01*
X40256537Y72451506D01*
X40315502Y72561820D01*
X40351812Y72681518D01*
X40364072Y72806000D01*
X40364072Y74006000D01*
X41487928Y74006000D01*
X41487928Y72806000D01*
X41500188Y72681518D01*
X41536498Y72561820D01*
X41595463Y72451506D01*
X41674815Y72354815D01*
X41771506Y72275463D01*
X41881820Y72216498D01*
X42001518Y72180188D01*
X42126000Y72167928D01*
X43026000Y72167928D01*
X43150482Y72180188D01*
X43270180Y72216498D01*
X43380494Y72275463D01*
X43477185Y72354815D01*
X43556537Y72451506D01*
X43593683Y72521000D01*
X53550531Y72521000D01*
X53594000Y72516719D01*
X53637469Y72521000D01*
X53637477Y72521000D01*
X53767490Y72533805D01*
X53934313Y72584411D01*
X54088059Y72666589D01*
X54222817Y72777183D01*
X54250534Y72810956D01*
X55967050Y74527471D01*
X56000817Y74555183D01*
X56033907Y74595502D01*
X56111411Y74689941D01*
X56171691Y74802719D01*
X56193589Y74843687D01*
X56244195Y75010510D01*
X56257000Y75140523D01*
X56257000Y75140531D01*
X56261281Y75184000D01*
X56257000Y75227469D01*
X56257000Y76429000D01*
X57435928Y76429000D01*
X57435928Y75529000D01*
X57448188Y75404518D01*
X57484498Y75284820D01*
X57543463Y75174506D01*
X57622815Y75077815D01*
X57719506Y74998463D01*
X57829820Y74939498D01*
X57949518Y74903188D01*
X58074000Y74890928D01*
X59274000Y74890928D01*
X59398482Y74903188D01*
X59518180Y74939498D01*
X59628494Y74998463D01*
X59725185Y75077815D01*
X59804537Y75174506D01*
X59863502Y75284820D01*
X59899812Y75404518D01*
X59912072Y75529000D01*
X59912072Y76429000D01*
X59899812Y76553482D01*
X59863502Y76673180D01*
X59804537Y76783494D01*
X59725185Y76880185D01*
X59628494Y76959537D01*
X59518180Y77018502D01*
X59398482Y77054812D01*
X59274000Y77067072D01*
X58074000Y77067072D01*
X57949518Y77054812D01*
X57829820Y77018502D01*
X57719506Y76959537D01*
X57622815Y76880185D01*
X57543463Y76783494D01*
X57484498Y76673180D01*
X57448188Y76553482D01*
X57435928Y76429000D01*
X56257000Y76429000D01*
X56257000Y78394000D01*
X57609532Y78394000D01*
X57622815Y78377815D01*
X57719506Y78298463D01*
X57829820Y78239498D01*
X57949518Y78203188D01*
X58074000Y78190928D01*
X59274000Y78190928D01*
X59398482Y78203188D01*
X59518180Y78239498D01*
X59628494Y78298463D01*
X59725185Y78377815D01*
X59804537Y78474506D01*
X59863502Y78584820D01*
X59899812Y78704518D01*
X59912072Y78829000D01*
X59912072Y79729000D01*
X59899812Y79853482D01*
X59863502Y79973180D01*
X59804537Y80083494D01*
X59725185Y80180185D01*
X59628494Y80259537D01*
X59518180Y80318502D01*
X59398482Y80354812D01*
X59274000Y80367072D01*
X58074000Y80367072D01*
X57949518Y80354812D01*
X57829820Y80318502D01*
X57719506Y80259537D01*
X57622815Y80180185D01*
X57609532Y80164000D01*
X54945578Y80164000D01*
X54631534Y80478044D01*
X54603817Y80511817D01*
X54469059Y80622411D01*
X54315313Y80704589D01*
X54148490Y80755195D01*
X54018477Y80768000D01*
X54018469Y80768000D01*
X53975000Y80772281D01*
X53931531Y80768000D01*
X53368479Y80768000D01*
X53322962Y80823462D01*
X53188387Y80933905D01*
X53034851Y81015972D01*
X52955000Y81040194D01*
X52955000Y81617535D01*
X52959281Y81661001D01*
X52955000Y81704467D01*
X52955000Y81704477D01*
X52942195Y81834490D01*
X52891589Y82001313D01*
X52809411Y82155059D01*
X52750931Y82226317D01*
X52726532Y82256047D01*
X52726530Y82256049D01*
X52698817Y82289817D01*
X52665049Y82317530D01*
X50595072Y84387506D01*
X50595072Y84902000D01*
X50579929Y85055745D01*
X50577141Y85064939D01*
X53321000Y85064939D01*
X53321000Y84861061D01*
X53360774Y84661102D01*
X53363928Y84653488D01*
X53363928Y84363000D01*
X53376188Y84238518D01*
X53412498Y84118820D01*
X53471463Y84008506D01*
X53550815Y83911815D01*
X53647506Y83832463D01*
X53757820Y83773498D01*
X53877518Y83737188D01*
X54002000Y83724928D01*
X54902000Y83724928D01*
X55026482Y83737188D01*
X55146180Y83773498D01*
X55256494Y83832463D01*
X55353185Y83911815D01*
X55432537Y84008506D01*
X55491502Y84118820D01*
X55527812Y84238518D01*
X55540072Y84363000D01*
X55540072Y85563000D01*
X56663928Y85563000D01*
X56663928Y84363000D01*
X56676188Y84238518D01*
X56712498Y84118820D01*
X56771463Y84008506D01*
X56850815Y83911815D01*
X56947506Y83832463D01*
X57057820Y83773498D01*
X57177518Y83737188D01*
X57302000Y83724928D01*
X58202000Y83724928D01*
X58326482Y83737188D01*
X58446180Y83773498D01*
X58556494Y83832463D01*
X58653185Y83911815D01*
X58732537Y84008506D01*
X58791502Y84118820D01*
X58827812Y84238518D01*
X58840072Y84363000D01*
X58840072Y85563000D01*
X58827812Y85687482D01*
X58791502Y85807180D01*
X58732537Y85917494D01*
X58653185Y86014185D01*
X58556494Y86093537D01*
X58446180Y86152502D01*
X58326482Y86188812D01*
X58202000Y86201072D01*
X57302000Y86201072D01*
X57177518Y86188812D01*
X57057820Y86152502D01*
X56947506Y86093537D01*
X56850815Y86014185D01*
X56771463Y85917494D01*
X56712498Y85807180D01*
X56676188Y85687482D01*
X56663928Y85563000D01*
X55540072Y85563000D01*
X55527812Y85687482D01*
X55491502Y85807180D01*
X55432537Y85917494D01*
X55353185Y86014185D01*
X55256494Y86093537D01*
X55146180Y86152502D01*
X55026482Y86188812D01*
X54902000Y86201072D01*
X54002000Y86201072D01*
X53877518Y86188812D01*
X53757820Y86152502D01*
X53647506Y86093537D01*
X53550815Y86014185D01*
X53471463Y85917494D01*
X53412498Y85807180D01*
X53376188Y85687482D01*
X53363928Y85563000D01*
X53363928Y85272512D01*
X53360774Y85264898D01*
X53321000Y85064939D01*
X50577141Y85064939D01*
X50535084Y85203582D01*
X50462258Y85339829D01*
X50364251Y85459251D01*
X50244829Y85557258D01*
X50108582Y85630084D01*
X49960745Y85674929D01*
X49807000Y85690072D01*
X49507000Y85690072D01*
X49353255Y85674929D01*
X49205418Y85630084D01*
X49069171Y85557258D01*
X48949749Y85459251D01*
X48851742Y85339829D01*
X48778916Y85203582D01*
X48734071Y85055745D01*
X48718928Y84902000D01*
X48718928Y83252000D01*
X48734071Y83098255D01*
X48778916Y82950418D01*
X48851742Y82814171D01*
X48949749Y82694749D01*
X49069171Y82596742D01*
X49205418Y82523916D01*
X49353255Y82479071D01*
X49507000Y82463928D01*
X49807000Y82463928D01*
X49960745Y82479071D01*
X49991133Y82488289D01*
X51185001Y81294420D01*
X51185001Y81040195D01*
X51105149Y81015972D01*
X50951613Y80933905D01*
X50817038Y80823462D01*
X50706595Y80688887D01*
X50624528Y80535351D01*
X50573992Y80368755D01*
X50556928Y80195501D01*
X50556928Y79570499D01*
X50573992Y79397245D01*
X50624528Y79230649D01*
X50706595Y79077113D01*
X50817038Y78942538D01*
X50951613Y78832095D01*
X51105149Y78750028D01*
X51271745Y78699492D01*
X51444999Y78682428D01*
X52695001Y78682428D01*
X52868255Y78699492D01*
X53034851Y78750028D01*
X53188387Y78832095D01*
X53322962Y78942538D01*
X53368479Y78998000D01*
X53608422Y78998000D01*
X53922466Y78683956D01*
X53950183Y78650183D01*
X53983954Y78622468D01*
X54487001Y78119420D01*
X54487000Y75550579D01*
X53227422Y74291000D01*
X43593683Y74291000D01*
X43556537Y74360494D01*
X43477185Y74457185D01*
X43380494Y74536537D01*
X43270180Y74595502D01*
X43150482Y74631812D01*
X43026000Y74644072D01*
X42126000Y74644072D01*
X42001518Y74631812D01*
X41881820Y74595502D01*
X41771506Y74536537D01*
X41674815Y74457185D01*
X41595463Y74360494D01*
X41536498Y74250180D01*
X41500188Y74130482D01*
X41487928Y74006000D01*
X40364072Y74006000D01*
X40351812Y74130482D01*
X40315502Y74250180D01*
X40256537Y74360494D01*
X40177185Y74457185D01*
X40128000Y74497550D01*
X40128000Y77902450D01*
X40177185Y77942815D01*
X40256537Y78039506D01*
X40315502Y78149820D01*
X40351812Y78269518D01*
X40364072Y78394000D01*
X40364072Y79594000D01*
X40351812Y79718482D01*
X40315502Y79838180D01*
X40256537Y79948494D01*
X40177185Y80045185D01*
X40128000Y80085550D01*
X40128000Y80474535D01*
X40132281Y80518001D01*
X40128000Y80561467D01*
X40128000Y80561477D01*
X40115195Y80691490D01*
X40064589Y80858313D01*
X39982411Y81012059D01*
X39871817Y81146817D01*
X39838045Y81174533D01*
X39645537Y81367041D01*
X39645532Y81367047D01*
X33651000Y87361578D01*
X33651000Y87873217D01*
X33688929Y87998255D01*
X33704072Y88152000D01*
X33704072Y89902000D01*
X33688929Y90055745D01*
X33644084Y90203582D01*
X33571258Y90339829D01*
X33473251Y90459251D01*
X33356580Y90555000D01*
X40654422Y90555000D01*
X40659502Y90549919D01*
X40512613Y90471405D01*
X40378038Y90360962D01*
X40267595Y90226387D01*
X40185528Y90072851D01*
X40134992Y89906255D01*
X40117928Y89733001D01*
X40117928Y89082999D01*
X40134992Y88909745D01*
X40185528Y88743149D01*
X40267595Y88589613D01*
X40378038Y88455038D01*
X40512613Y88344595D01*
X40666149Y88262528D01*
X40832745Y88211992D01*
X41005999Y88194928D01*
X42306001Y88194928D01*
X42479255Y88211992D01*
X42645851Y88262528D01*
X42799387Y88344595D01*
X42835329Y88374092D01*
X44962000Y86247421D01*
X44962001Y85180784D01*
X44924071Y85055745D01*
X44908928Y84902000D01*
X44908928Y83252000D01*
X44924071Y83098255D01*
X44968916Y82950418D01*
X45041742Y82814171D01*
X45139749Y82694749D01*
X45259171Y82596742D01*
X45395418Y82523916D01*
X45543255Y82479071D01*
X45697000Y82463928D01*
X45997000Y82463928D01*
X46150745Y82479071D01*
X46232000Y82503719D01*
X46232000Y82212469D01*
X46227719Y82169000D01*
X46232000Y82125531D01*
X46232000Y82125524D01*
X46243212Y82011686D01*
X46244234Y82001313D01*
X46244805Y81995511D01*
X46295411Y81828688D01*
X46377589Y81674942D01*
X46488183Y81540183D01*
X46521956Y81512466D01*
X46681965Y81352457D01*
X46693274Y81295602D01*
X46771295Y81107244D01*
X46824675Y81027355D01*
X46787149Y81015972D01*
X46633613Y80933905D01*
X46499038Y80823462D01*
X46453521Y80768000D01*
X45382469Y80768000D01*
X45339000Y80772281D01*
X45295531Y80768000D01*
X45295523Y80768000D01*
X45165510Y80755195D01*
X44998687Y80704589D01*
X44953236Y80680295D01*
X44844941Y80622411D01*
X44743953Y80539532D01*
X44743951Y80539530D01*
X44710183Y80511817D01*
X44682470Y80478049D01*
X44083422Y79879000D01*
X43593683Y79879000D01*
X43556537Y79948494D01*
X43477185Y80045185D01*
X43380494Y80124537D01*
X43270180Y80183502D01*
X43150482Y80219812D01*
X43026000Y80232072D01*
X42126000Y80232072D01*
X42001518Y80219812D01*
X41881820Y80183502D01*
X41771506Y80124537D01*
X41674815Y80045185D01*
X41595463Y79948494D01*
X41536498Y79838180D01*
X41500188Y79718482D01*
X41487928Y79594000D01*
X41487928Y78394000D01*
X41500188Y78269518D01*
X41536498Y78149820D01*
X41595463Y78039506D01*
X41674815Y77942815D01*
X41771506Y77863463D01*
X41881820Y77804498D01*
X42001518Y77768188D01*
X42126000Y77755928D01*
X43026000Y77755928D01*
X43150482Y77768188D01*
X43270180Y77804498D01*
X43380494Y77863463D01*
X43477185Y77942815D01*
X43556537Y78039506D01*
X43593683Y78109000D01*
X44406531Y78109000D01*
X44450000Y78104719D01*
X44493469Y78109000D01*
X44493477Y78109000D01*
X44623490Y78121805D01*
X44790313Y78172411D01*
X44944059Y78254589D01*
X45078817Y78365183D01*
X45106534Y78398956D01*
X45705579Y78998000D01*
X46453521Y78998000D01*
X46499038Y78942538D01*
X46633613Y78832095D01*
X46787149Y78750028D01*
X46953745Y78699492D01*
X47126999Y78682428D01*
X48377001Y78682428D01*
X48550255Y78699492D01*
X48716851Y78750028D01*
X48870387Y78832095D01*
X49004962Y78942538D01*
X49115405Y79077113D01*
X49197472Y79230649D01*
X49248008Y79397245D01*
X49265072Y79570499D01*
X49265072Y80195501D01*
X49248008Y80368755D01*
X49197472Y80535351D01*
X49115405Y80688887D01*
X49004962Y80823462D01*
X48870387Y80933905D01*
X48716851Y81015972D01*
X48637000Y81040194D01*
X48637000Y81182796D01*
X48683726Y81295602D01*
X48723500Y81495561D01*
X48723500Y81699439D01*
X48683726Y81899398D01*
X48605705Y82087756D01*
X48492437Y82257274D01*
X48348274Y82401437D01*
X48178756Y82514705D01*
X48002000Y82587920D01*
X48002000Y82973217D01*
X48039929Y83098255D01*
X48055072Y83252000D01*
X48055072Y84902000D01*
X48039929Y85055745D01*
X47995084Y85203582D01*
X47922258Y85339829D01*
X47824251Y85459251D01*
X47704829Y85557258D01*
X47568582Y85630084D01*
X47420745Y85674929D01*
X47267000Y85690072D01*
X46967000Y85690072D01*
X46813255Y85674929D01*
X46732000Y85650281D01*
X46732000Y85729000D01*
X47708531Y85729000D01*
X47752000Y85724719D01*
X47795469Y85729000D01*
X47795477Y85729000D01*
X47925490Y85741805D01*
X48092313Y85792411D01*
X48246059Y85874589D01*
X48380817Y85985183D01*
X48408534Y86018956D01*
X48982049Y86592470D01*
X49015817Y86620183D01*
X49126411Y86754941D01*
X49143809Y86787490D01*
X49208589Y86908686D01*
X49259195Y87075510D01*
X49272000Y87205523D01*
X49272000Y87205531D01*
X49276281Y87249000D01*
X49272000Y87292469D01*
X49272000Y87453719D01*
X49353255Y87429071D01*
X49507000Y87413928D01*
X49807000Y87413928D01*
X49960745Y87429071D01*
X50108582Y87473916D01*
X50244829Y87546742D01*
X50364251Y87644749D01*
X50462258Y87764171D01*
X50535084Y87900418D01*
X50579929Y88048255D01*
X50595072Y88202000D01*
X50595072Y89852000D01*
X50579929Y90005745D01*
X50559074Y90074496D01*
X51522050Y91037471D01*
X51555817Y91065183D01*
X51666411Y91199941D01*
X51748589Y91353687D01*
X51799195Y91520510D01*
X51812000Y91650523D01*
X51812000Y91650533D01*
X51816281Y91693999D01*
X51812000Y91737465D01*
X51812000Y92300521D01*
X51867462Y92346038D01*
X51977905Y92480613D01*
X52059972Y92634149D01*
X52110508Y92800745D01*
X52127572Y92973999D01*
X52127572Y94224001D01*
X52651428Y94224001D01*
X52651428Y92973999D01*
X52668492Y92800745D01*
X52719028Y92634149D01*
X52801095Y92480613D01*
X52911538Y92346038D01*
X53046113Y92235595D01*
X53199649Y92153528D01*
X53366245Y92102992D01*
X53539499Y92085928D01*
X54164501Y92085928D01*
X54337755Y92102992D01*
X54504351Y92153528D01*
X54657887Y92235595D01*
X54792462Y92346038D01*
X54902905Y92480613D01*
X54984972Y92634149D01*
X55009194Y92714000D01*
X55201531Y92714000D01*
X55245000Y92709719D01*
X55288469Y92714000D01*
X55288477Y92714000D01*
X55418490Y92726805D01*
X55585313Y92777411D01*
X55739059Y92859589D01*
X55873817Y92970183D01*
X55901534Y93003956D01*
X61834579Y98937000D01*
X61865928Y98937000D01*
X61865928Y97572000D01*
X61878188Y97447518D01*
X61914498Y97327820D01*
X61973463Y97217506D01*
X62052815Y97120815D01*
X62149506Y97041463D01*
X62259820Y96982498D01*
X62379518Y96946188D01*
X62504000Y96933928D01*
X65004000Y96933928D01*
X65128482Y96946188D01*
X65248180Y96982498D01*
X65358494Y97041463D01*
X65455185Y97120815D01*
X65534537Y97217506D01*
X65593502Y97327820D01*
X65629812Y97447518D01*
X65642072Y97572000D01*
X65642072Y100914596D01*
X67319000Y100914596D01*
X67319001Y98729403D01*
X67346276Y98452476D01*
X67454062Y98097152D01*
X67629098Y97769683D01*
X67864656Y97482655D01*
X68151684Y97247097D01*
X68479153Y97072061D01*
X68834477Y96964275D01*
X69204000Y96927880D01*
X69573524Y96964275D01*
X69928848Y97072061D01*
X70256317Y97247097D01*
X70543345Y97482655D01*
X70778903Y97769683D01*
X70953939Y98097152D01*
X71061725Y98452476D01*
X71089000Y98729403D01*
X71089000Y100914597D01*
X71061725Y101191524D01*
X70953939Y101546848D01*
X70778903Y101874317D01*
X70543345Y102161345D01*
X70256317Y102396903D01*
X69928847Y102571939D01*
X69573523Y102679725D01*
X69204000Y102716120D01*
X68834476Y102679725D01*
X68479152Y102571939D01*
X68151683Y102396903D01*
X67864655Y102161345D01*
X67629097Y101874317D01*
X67454061Y101546847D01*
X67346275Y101191523D01*
X67319000Y100914596D01*
X65642072Y100914596D01*
X65642072Y102072000D01*
X65629812Y102196482D01*
X65593502Y102316180D01*
X65534537Y102426494D01*
X65455185Y102523185D01*
X65358494Y102602537D01*
X65248180Y102661502D01*
X65128482Y102697812D01*
X65004000Y102710072D01*
X62504000Y102710072D01*
X62379518Y102697812D01*
X62259820Y102661502D01*
X62149506Y102602537D01*
X62052815Y102523185D01*
X61973463Y102426494D01*
X61914498Y102316180D01*
X61878188Y102196482D01*
X61865928Y102072000D01*
X61865928Y100707000D01*
X61511469Y100707000D01*
X61468000Y100711281D01*
X61424531Y100707000D01*
X61424523Y100707000D01*
X61309306Y100695652D01*
X61294509Y100694195D01*
X61243903Y100678843D01*
X61127687Y100643589D01*
X60973941Y100561411D01*
X60973939Y100561410D01*
X60973940Y100561410D01*
X60872953Y100478532D01*
X60872951Y100478530D01*
X60839183Y100450817D01*
X60811470Y100417049D01*
X54975672Y94581250D01*
X54902905Y94717387D01*
X54792462Y94851962D01*
X54657887Y94962405D01*
X54504351Y95044472D01*
X54337755Y95095008D01*
X54164501Y95112072D01*
X53539499Y95112072D01*
X53366245Y95095008D01*
X53199649Y95044472D01*
X53046113Y94962405D01*
X52911538Y94851962D01*
X52801095Y94717387D01*
X52719028Y94563851D01*
X52668492Y94397255D01*
X52651428Y94224001D01*
X52127572Y94224001D01*
X52110508Y94397255D01*
X52059972Y94563851D01*
X51977905Y94717387D01*
X51867462Y94851962D01*
X51732887Y94962405D01*
X51579351Y95044472D01*
X51412755Y95095008D01*
X51239501Y95112072D01*
X50614499Y95112072D01*
X50441245Y95095008D01*
X50274649Y95044472D01*
X50121113Y94962405D01*
X49986538Y94851962D01*
X49876095Y94717387D01*
X49794028Y94563851D01*
X49743492Y94397255D01*
X49726428Y94224001D01*
X49726428Y92973999D01*
X49743492Y92800745D01*
X49794028Y92634149D01*
X49876095Y92480613D01*
X49986538Y92346038D01*
X50042000Y92300521D01*
X50042000Y92060579D01*
X49061951Y91080529D01*
X49028184Y91052817D01*
X49000471Y91019049D01*
X49000468Y91019046D01*
X48917590Y90918059D01*
X48835412Y90764313D01*
X48784805Y90597490D01*
X48784700Y90596428D01*
X48690745Y90624929D01*
X48537000Y90640072D01*
X48237000Y90640072D01*
X48083255Y90624929D01*
X48002000Y90600281D01*
X48002000Y92297239D01*
X48061462Y92346038D01*
X48171905Y92480613D01*
X48253972Y92634149D01*
X48304508Y92800745D01*
X48321572Y92973999D01*
X48321572Y94224001D01*
X48304508Y94397255D01*
X48253972Y94563851D01*
X48171905Y94717387D01*
X48061462Y94851962D01*
X47926887Y94962405D01*
X47773351Y95044472D01*
X47606755Y95095008D01*
X47433501Y95112072D01*
X46808499Y95112072D01*
X46635245Y95095008D01*
X46468649Y95044472D01*
X46315113Y94962405D01*
X46180538Y94851962D01*
X46070095Y94717387D01*
X45988028Y94563851D01*
X45937492Y94397255D01*
X45920428Y94224001D01*
X45920428Y92973999D01*
X45937492Y92800745D01*
X45988028Y92634149D01*
X46070095Y92480613D01*
X46180538Y92346038D01*
X46232001Y92303804D01*
X46232000Y90600281D01*
X46150745Y90624929D01*
X45997000Y90640072D01*
X45697000Y90640072D01*
X45543255Y90624929D01*
X45395418Y90580084D01*
X45259171Y90507258D01*
X45139749Y90409251D01*
X45041742Y90289829D01*
X44968916Y90153582D01*
X44924071Y90005745D01*
X44908928Y89852000D01*
X44908928Y88803651D01*
X43011036Y90701542D01*
X43011032Y90701547D01*
X43011027Y90701552D01*
X42983317Y90735317D01*
X42949552Y90763027D01*
X41677534Y92035044D01*
X41649817Y92068817D01*
X41515059Y92179411D01*
X41361313Y92261589D01*
X41194490Y92312195D01*
X41064477Y92325000D01*
X41064469Y92325000D01*
X41021000Y92329281D01*
X40977531Y92325000D01*
X32381000Y92325000D01*
X32381000Y92377614D01*
X32484405Y92503614D01*
X32566472Y92657150D01*
X32617008Y92823746D01*
X32634072Y92997000D01*
X32634072Y93947000D01*
X32617008Y94120254D01*
X32566472Y94286850D01*
X32484405Y94440386D01*
X32373962Y94574962D01*
X32239386Y94685405D01*
X32085850Y94767472D01*
X31919254Y94818008D01*
X31746000Y94835072D01*
X31246000Y94835072D01*
X31072746Y94818008D01*
X30906150Y94767472D01*
X30752614Y94685405D01*
X30618038Y94574962D01*
X30507595Y94440386D01*
X30425528Y94286850D01*
X30374992Y94120254D01*
X30357928Y93947000D01*
X30357928Y92997000D01*
X30374992Y92823746D01*
X30425528Y92657150D01*
X30507595Y92503614D01*
X30611000Y92377613D01*
X30611000Y91483477D01*
X30606718Y91440000D01*
X30611000Y91396524D01*
X30611000Y91269524D01*
X30611001Y91269514D01*
X30611001Y90650281D01*
X30529745Y90674929D01*
X30376000Y90690072D01*
X30099000Y90690072D01*
X30099000Y94869000D01*
X41148000Y94869000D01*
X41172776Y94871440D01*
X41196601Y94878667D01*
X41218557Y94890403D01*
X41237803Y94906197D01*
X41253597Y94925443D01*
X41265333Y94947399D01*
X41272560Y94971224D01*
X41275000Y94996000D01*
X41275000Y102072000D01*
X42307928Y102072000D01*
X42307928Y97572000D01*
X42320188Y97447518D01*
X42356498Y97327820D01*
X42415463Y97217506D01*
X42494815Y97120815D01*
X42591506Y97041463D01*
X42701820Y96982498D01*
X42821518Y96946188D01*
X42946000Y96933928D01*
X43311001Y96933928D01*
X43311000Y94897479D01*
X43255538Y94851962D01*
X43145095Y94717387D01*
X43063028Y94563851D01*
X43012492Y94397255D01*
X42995428Y94224001D01*
X42995428Y92973999D01*
X43012492Y92800745D01*
X43063028Y92634149D01*
X43145095Y92480613D01*
X43255538Y92346038D01*
X43390113Y92235595D01*
X43543649Y92153528D01*
X43710245Y92102992D01*
X43883499Y92085928D01*
X44508501Y92085928D01*
X44681755Y92102992D01*
X44848351Y92153528D01*
X45001887Y92235595D01*
X45136462Y92346038D01*
X45246905Y92480613D01*
X45328972Y92634149D01*
X45379508Y92800745D01*
X45396572Y92973999D01*
X45396572Y94224001D01*
X45379508Y94397255D01*
X45328972Y94563851D01*
X45246905Y94717387D01*
X45136462Y94851962D01*
X45081000Y94897479D01*
X45081000Y96933928D01*
X45446000Y96933928D01*
X45570482Y96946188D01*
X45690180Y96982498D01*
X45800494Y97041463D01*
X45897185Y97120815D01*
X45976537Y97217506D01*
X46035502Y97327820D01*
X46071812Y97447518D01*
X46084072Y97572000D01*
X46084072Y100914596D01*
X47761000Y100914596D01*
X47761001Y98729403D01*
X47788276Y98452476D01*
X47896062Y98097152D01*
X48071098Y97769683D01*
X48306656Y97482655D01*
X48593684Y97247097D01*
X48921153Y97072061D01*
X49276477Y96964275D01*
X49646000Y96927880D01*
X50015524Y96964275D01*
X50370848Y97072061D01*
X50698317Y97247097D01*
X50985345Y97482655D01*
X51220903Y97769683D01*
X51395939Y98097152D01*
X51503725Y98452476D01*
X51531000Y98729403D01*
X51531000Y100914597D01*
X51503725Y101191524D01*
X51395939Y101546848D01*
X51220903Y101874317D01*
X50985345Y102161345D01*
X50698317Y102396903D01*
X50370847Y102571939D01*
X50015523Y102679725D01*
X49646000Y102716120D01*
X49276476Y102679725D01*
X48921152Y102571939D01*
X48593683Y102396903D01*
X48306655Y102161345D01*
X48071097Y101874317D01*
X47896061Y101546847D01*
X47788275Y101191523D01*
X47761000Y100914596D01*
X46084072Y100914596D01*
X46084072Y102072000D01*
X46071812Y102196482D01*
X46035502Y102316180D01*
X45976537Y102426494D01*
X45897185Y102523185D01*
X45800494Y102602537D01*
X45690180Y102661502D01*
X45570482Y102697812D01*
X45446000Y102710072D01*
X42946000Y102710072D01*
X42821518Y102697812D01*
X42701820Y102661502D01*
X42591506Y102602537D01*
X42494815Y102523185D01*
X42415463Y102426494D01*
X42356498Y102316180D01*
X42320188Y102196482D01*
X42307928Y102072000D01*
X41275000Y102072000D01*
X41275000Y103505000D01*
X77597000Y103505000D01*
X77597000Y96139000D01*
G37*
%TD.AperFunction*%
%TD*%
D34*
%TO.N,GND*%
X38481000Y96139000D02*
X28956000Y96139000D01*
X28931224Y96136560D01*
X28907399Y96129333D01*
X28885443Y96117597D01*
X28866197Y96101803D01*
X28850403Y96082557D01*
X28838667Y96060601D01*
X28831440Y96036776D01*
X28829000Y96012000D01*
X28829000Y90690072D01*
X28806000Y90690072D01*
X28652255Y90674929D01*
X28504418Y90630084D01*
X28368171Y90557258D01*
X28248749Y90459251D01*
X28150742Y90339829D01*
X28077916Y90203582D01*
X28033071Y90055745D01*
X28017928Y89902000D01*
X28017928Y88152000D01*
X28033071Y87998255D01*
X28077916Y87850418D01*
X28150742Y87714171D01*
X28248749Y87594749D01*
X28368171Y87496742D01*
X28504418Y87423916D01*
X28652255Y87379071D01*
X28806000Y87363928D01*
X28829000Y87363928D01*
X28829000Y85979000D01*
X28831440Y85954224D01*
X28838667Y85930399D01*
X28850403Y85908443D01*
X28873749Y85882234D01*
X31413749Y83723234D01*
X31434207Y83709047D01*
X31457041Y83699123D01*
X31481371Y83693845D01*
X31496000Y83693000D01*
X33983394Y83693000D01*
X35433000Y82243394D01*
X35433000Y72771000D01*
X24634000Y72771000D01*
X24634000Y75917000D01*
X25048928Y75917000D01*
X25048928Y75467000D01*
X25065512Y75298623D01*
X25114625Y75136717D01*
X25194382Y74987503D01*
X25301716Y74856716D01*
X25432503Y74749382D01*
X25581717Y74669625D01*
X25743623Y74620512D01*
X25912000Y74603928D01*
X26412000Y74603928D01*
X26580377Y74620512D01*
X26742283Y74669625D01*
X26891497Y74749382D01*
X26961705Y74807000D01*
X28889555Y74807000D01*
X28894038Y74801538D01*
X29028613Y74691095D01*
X29182149Y74609028D01*
X29348745Y74558492D01*
X29521999Y74541428D01*
X30422001Y74541428D01*
X30595255Y74558492D01*
X30761851Y74609028D01*
X30915387Y74691095D01*
X31049962Y74801538D01*
X31160405Y74936113D01*
X31242472Y75089649D01*
X31293008Y75256245D01*
X31310072Y75429499D01*
X31310072Y75778494D01*
X32091050Y76559471D01*
X32124817Y76587183D01*
X32163747Y76634618D01*
X32235410Y76721940D01*
X32235411Y76721941D01*
X32317589Y76875687D01*
X32368195Y77042510D01*
X32381000Y77172523D01*
X32381000Y77172533D01*
X32385281Y77215999D01*
X32381000Y77259465D01*
X32381000Y78103719D01*
X32462255Y78079071D01*
X32616000Y78063928D01*
X32916000Y78063928D01*
X33069745Y78079071D01*
X33151001Y78103719D01*
X33151000Y76724976D01*
X33067614Y76680405D01*
X32933038Y76569962D01*
X32822595Y76435386D01*
X32740528Y76281850D01*
X32689992Y76115254D01*
X32672928Y75942000D01*
X32672928Y75442000D01*
X32689992Y75268746D01*
X32740528Y75102150D01*
X32822595Y74948614D01*
X32933038Y74814038D01*
X33067614Y74703595D01*
X33221150Y74621528D01*
X33387746Y74570992D01*
X33561000Y74553928D01*
X34511000Y74553928D01*
X34684254Y74570992D01*
X34850850Y74621528D01*
X35004386Y74703595D01*
X35138962Y74814038D01*
X35249405Y74948614D01*
X35331472Y75102150D01*
X35382008Y75268746D01*
X35399072Y75442000D01*
X35399072Y75942000D01*
X35382008Y76115254D01*
X35331472Y76281850D01*
X35249405Y76435386D01*
X35138962Y76569962D01*
X35004386Y76680405D01*
X34921000Y76724976D01*
X34921000Y78573217D01*
X34958929Y78698255D01*
X34974072Y78852000D01*
X34974072Y80602000D01*
X34958929Y80755745D01*
X34921000Y80880783D01*
X34921000Y81490531D01*
X34925281Y81534000D01*
X34921000Y81577469D01*
X34921000Y81577477D01*
X34908195Y81707490D01*
X34871430Y81828687D01*
X34857589Y81874314D01*
X34775411Y82028059D01*
X34692532Y82129047D01*
X34692530Y82129049D01*
X34664817Y82162817D01*
X34631049Y82190530D01*
X34407535Y82414044D01*
X34396226Y82470898D01*
X34318205Y82659256D01*
X34204937Y82828774D01*
X34060774Y82972937D01*
X33891256Y83086205D01*
X33702898Y83164226D01*
X33502939Y83204000D01*
X33299061Y83204000D01*
X33099102Y83164226D01*
X32910744Y83086205D01*
X32741226Y82972937D01*
X32597063Y82828774D01*
X32483795Y82659256D01*
X32405774Y82470898D01*
X32366000Y82270939D01*
X32366000Y82067061D01*
X32405774Y81867102D01*
X32483795Y81678744D01*
X32597063Y81509226D01*
X32716217Y81390072D01*
X32616000Y81390072D01*
X32462255Y81374929D01*
X32314418Y81330084D01*
X32178171Y81257258D01*
X32131000Y81218546D01*
X32083829Y81257258D01*
X31947582Y81330084D01*
X31799745Y81374929D01*
X31646000Y81390072D01*
X31346000Y81390072D01*
X31192255Y81374929D01*
X31044418Y81330084D01*
X30908171Y81257258D01*
X30861000Y81218546D01*
X30813829Y81257258D01*
X30677582Y81330084D01*
X30529745Y81374929D01*
X30376000Y81390072D01*
X30076000Y81390072D01*
X29922255Y81374929D01*
X29774418Y81330084D01*
X29638171Y81257258D01*
X29518749Y81159251D01*
X29420742Y81039829D01*
X29347916Y80903582D01*
X29303071Y80755745D01*
X29287928Y80602000D01*
X29287928Y78852000D01*
X29303071Y78698255D01*
X29341000Y78573216D01*
X29341000Y78477156D01*
X29315470Y78446048D01*
X29315468Y78446046D01*
X29293374Y78419124D01*
X29232589Y78345059D01*
X29150411Y78191313D01*
X29101543Y78030220D01*
X29054795Y77960256D01*
X28976774Y77771898D01*
X28937000Y77571939D01*
X28937000Y77368061D01*
X28976774Y77168102D01*
X29054795Y76979744D01*
X29168063Y76810226D01*
X29198390Y76779899D01*
X29182149Y76774972D01*
X29028613Y76692905D01*
X28894038Y76582462D01*
X28889555Y76577000D01*
X26961705Y76577000D01*
X26891497Y76634618D01*
X26742283Y76714375D01*
X26580377Y76763488D01*
X26412000Y76780072D01*
X25912000Y76780072D01*
X25743623Y76763488D01*
X25581717Y76714375D01*
X25432503Y76634618D01*
X25301716Y76527284D01*
X25194382Y76396497D01*
X25114625Y76247283D01*
X25065512Y76085377D01*
X25048928Y75917000D01*
X24634000Y75917000D01*
X24634000Y77963422D01*
X24771202Y78100624D01*
X24842255Y78079071D01*
X24996000Y78063928D01*
X25296000Y78063928D01*
X25449745Y78079071D01*
X25597582Y78123916D01*
X25733829Y78196742D01*
X25781000Y78235454D01*
X25828171Y78196742D01*
X25964418Y78123916D01*
X26112255Y78079071D01*
X26266000Y78063928D01*
X26566000Y78063928D01*
X26719745Y78079071D01*
X26867582Y78123916D01*
X27003829Y78196742D01*
X27051000Y78235454D01*
X27098171Y78196742D01*
X27234418Y78123916D01*
X27382255Y78079071D01*
X27536000Y78063928D01*
X27836000Y78063928D01*
X27989745Y78079071D01*
X28137582Y78123916D01*
X28273829Y78196742D01*
X28393251Y78294749D01*
X28491258Y78414171D01*
X28564084Y78550418D01*
X28608929Y78698255D01*
X28624072Y78852000D01*
X28624072Y80602000D01*
X28608929Y80755745D01*
X28571000Y80880783D01*
X28571000Y81630546D01*
X28603205Y81678744D01*
X28681226Y81867102D01*
X28721000Y82067061D01*
X28721000Y82270939D01*
X28681226Y82470898D01*
X28603205Y82659256D01*
X28489937Y82828774D01*
X28345774Y82972937D01*
X28176256Y83086205D01*
X27987898Y83164226D01*
X27931044Y83175535D01*
X26031000Y85075578D01*
X26031000Y87403719D01*
X26112255Y87379071D01*
X26266000Y87363928D01*
X26566000Y87363928D01*
X26719745Y87379071D01*
X26867582Y87423916D01*
X27003829Y87496742D01*
X27123251Y87594749D01*
X27221258Y87714171D01*
X27294084Y87850418D01*
X27338929Y87998255D01*
X27354072Y88152000D01*
X27354072Y89902000D01*
X27338929Y90055745D01*
X27301000Y90180783D01*
X27301000Y90634531D01*
X27305281Y90678000D01*
X27301000Y90721469D01*
X27301000Y90721477D01*
X27288195Y90851490D01*
X27237589Y91018313D01*
X27155411Y91172059D01*
X27125431Y91208589D01*
X27072532Y91273047D01*
X27072530Y91273049D01*
X27044817Y91306817D01*
X27011049Y91334530D01*
X26310532Y92035046D01*
X26282817Y92068817D01*
X26148059Y92179411D01*
X25994313Y92261589D01*
X25827490Y92312195D01*
X25697477Y92325000D01*
X25697469Y92325000D01*
X25654000Y92329281D01*
X25610531Y92325000D01*
X25552827Y92325000D01*
X25578462Y92346038D01*
X25688905Y92480613D01*
X25770972Y92634149D01*
X25821508Y92800745D01*
X25838572Y92973999D01*
X25838572Y94224001D01*
X25821508Y94397255D01*
X25770972Y94563851D01*
X25688905Y94717387D01*
X25578462Y94851962D01*
X25523000Y94897479D01*
X25523000Y96933928D01*
X25888000Y96933928D01*
X26012482Y96946188D01*
X26132180Y96982498D01*
X26242494Y97041463D01*
X26339185Y97120815D01*
X26418537Y97217506D01*
X26477502Y97327820D01*
X26513812Y97447518D01*
X26526072Y97572000D01*
X26526072Y100914596D01*
X28203000Y100914596D01*
X28203001Y98729403D01*
X28230276Y98452476D01*
X28338062Y98097152D01*
X28513098Y97769683D01*
X28748656Y97482655D01*
X29035684Y97247097D01*
X29363153Y97072061D01*
X29718477Y96964275D01*
X30088000Y96927880D01*
X30457524Y96964275D01*
X30812848Y97072061D01*
X31140317Y97247097D01*
X31427345Y97482655D01*
X31662903Y97769683D01*
X31837939Y98097152D01*
X31945725Y98452476D01*
X31973000Y98729403D01*
X31973000Y100914597D01*
X31945725Y101191524D01*
X31837939Y101546848D01*
X31662903Y101874317D01*
X31427345Y102161345D01*
X31140317Y102396903D01*
X30812847Y102571939D01*
X30457523Y102679725D01*
X30088000Y102716120D01*
X29718476Y102679725D01*
X29363152Y102571939D01*
X29035683Y102396903D01*
X28748655Y102161345D01*
X28513097Y101874317D01*
X28338061Y101546847D01*
X28230275Y101191523D01*
X28203000Y100914596D01*
X26526072Y100914596D01*
X26526072Y102072000D01*
X26513812Y102196482D01*
X26477502Y102316180D01*
X26418537Y102426494D01*
X26339185Y102523185D01*
X26242494Y102602537D01*
X26132180Y102661502D01*
X26012482Y102697812D01*
X25888000Y102710072D01*
X23388000Y102710072D01*
X23263518Y102697812D01*
X23143820Y102661502D01*
X23033506Y102602537D01*
X22936815Y102523185D01*
X22857463Y102426494D01*
X22798498Y102316180D01*
X22762188Y102196482D01*
X22749928Y102072000D01*
X22749928Y97572000D01*
X22762188Y97447518D01*
X22798498Y97327820D01*
X22857463Y97217506D01*
X22936815Y97120815D01*
X23033506Y97041463D01*
X23143820Y96982498D01*
X23263518Y96946188D01*
X23388000Y96933928D01*
X23753001Y96933928D01*
X23753000Y94897479D01*
X23697538Y94851962D01*
X23587095Y94717387D01*
X23505028Y94563851D01*
X23454492Y94397255D01*
X23437428Y94224001D01*
X23437428Y92973999D01*
X23454492Y92800745D01*
X23505028Y92634149D01*
X23587095Y92480613D01*
X23697538Y92346038D01*
X23723173Y92325000D01*
X22627827Y92325000D01*
X22653462Y92346038D01*
X22763905Y92480613D01*
X22845972Y92634149D01*
X22896508Y92800745D01*
X22913572Y92973999D01*
X22913572Y94224001D01*
X22896508Y94397255D01*
X22845972Y94563851D01*
X22763905Y94717387D01*
X22653462Y94851962D01*
X22518887Y94962405D01*
X22365351Y95044472D01*
X22198755Y95095008D01*
X22025501Y95112072D01*
X21400499Y95112072D01*
X21227245Y95095008D01*
X21060649Y95044472D01*
X20907113Y94962405D01*
X20772538Y94851962D01*
X20662095Y94717387D01*
X20580028Y94563851D01*
X20555806Y94484000D01*
X19064194Y94484000D01*
X19039972Y94563851D01*
X18957905Y94717387D01*
X18847462Y94851962D01*
X18712887Y94962405D01*
X18559351Y95044472D01*
X18392755Y95095008D01*
X18219501Y95112072D01*
X17594499Y95112072D01*
X17421245Y95095008D01*
X17254649Y95044472D01*
X17101113Y94962405D01*
X16966538Y94851962D01*
X16856095Y94717387D01*
X16774028Y94563851D01*
X16723492Y94397255D01*
X16706428Y94224001D01*
X16706428Y92973999D01*
X16723492Y92800745D01*
X16774028Y92634149D01*
X16856095Y92480613D01*
X16966538Y92346038D01*
X17101113Y92235595D01*
X17254649Y92153528D01*
X17421245Y92102992D01*
X17594499Y92085928D01*
X18219501Y92085928D01*
X18392755Y92102992D01*
X18559351Y92153528D01*
X18712887Y92235595D01*
X18847462Y92346038D01*
X18957905Y92480613D01*
X19039972Y92634149D01*
X19064194Y92714000D01*
X20555806Y92714000D01*
X20580028Y92634149D01*
X20662095Y92480613D01*
X20772538Y92346038D01*
X20832000Y92297239D01*
X20832000Y91991469D01*
X20827719Y91948000D01*
X20832000Y91904531D01*
X20832000Y91904524D01*
X20841599Y91807059D01*
X20844234Y91780313D01*
X20844805Y91774511D01*
X20895411Y91607688D01*
X20977589Y91453942D01*
X21088183Y91319183D01*
X21121956Y91291466D01*
X21568466Y90844956D01*
X21596183Y90811183D01*
X21730941Y90700589D01*
X21884687Y90618411D01*
X22051510Y90567805D01*
X22181523Y90555000D01*
X22181533Y90555000D01*
X22224999Y90550719D01*
X22268465Y90555000D01*
X24555420Y90555000D01*
X24438749Y90459251D01*
X24340742Y90339829D01*
X24267916Y90203582D01*
X24223071Y90055745D01*
X24208913Y89912000D01*
X22161737Y89912000D01*
X22105962Y89979962D01*
X21971387Y90090405D01*
X21817851Y90172472D01*
X21651255Y90223008D01*
X21478001Y90240072D01*
X20177999Y90240072D01*
X20004745Y90223008D01*
X19838149Y90172472D01*
X19684613Y90090405D01*
X19550038Y89979962D01*
X19439595Y89845387D01*
X19357528Y89691851D01*
X19306992Y89525255D01*
X19289928Y89352001D01*
X19289928Y88701999D01*
X19306992Y88528745D01*
X19357528Y88362149D01*
X19439595Y88208613D01*
X19550038Y88074038D01*
X19684613Y87963595D01*
X19838149Y87881528D01*
X20004745Y87830992D01*
X20177999Y87813928D01*
X21478001Y87813928D01*
X21651255Y87830992D01*
X21817851Y87881528D01*
X21971387Y87963595D01*
X22105962Y88074038D01*
X22161737Y88142000D01*
X24208913Y88142000D01*
X24223071Y87998255D01*
X24261000Y87873217D01*
X24261001Y84752479D01*
X24256719Y84709000D01*
X24273805Y84535510D01*
X24324412Y84368687D01*
X24406590Y84214941D01*
X24489468Y84113954D01*
X24489471Y84113951D01*
X24517184Y84080183D01*
X24550951Y84052471D01*
X26679465Y81923956D01*
X26690774Y81867102D01*
X26768795Y81678744D01*
X26801000Y81630545D01*
X26801000Y81350281D01*
X26719745Y81374929D01*
X26566000Y81390072D01*
X26266000Y81390072D01*
X26112255Y81374929D01*
X25964418Y81330084D01*
X25828171Y81257258D01*
X25781000Y81218546D01*
X25733829Y81257258D01*
X25597582Y81330084D01*
X25449745Y81374929D01*
X25296000Y81390072D01*
X24996000Y81390072D01*
X24842255Y81374929D01*
X24694418Y81330084D01*
X24558171Y81257258D01*
X24438749Y81159251D01*
X24340742Y81039829D01*
X24267916Y80903582D01*
X24223071Y80755745D01*
X24207928Y80602000D01*
X24207928Y80040507D01*
X23153951Y78986529D01*
X23120184Y78958817D01*
X23092471Y78925049D01*
X23092468Y78925046D01*
X23009590Y78824059D01*
X22927412Y78670313D01*
X22876805Y78503490D01*
X22859719Y78330000D01*
X22864001Y78286521D01*
X22864000Y72771000D01*
X18415000Y72771000D01*
X18415000Y90932000D01*
X18412560Y90956776D01*
X18405333Y90980601D01*
X18393597Y91002557D01*
X18377803Y91021803D01*
X18358557Y91037597D01*
X18336601Y91049333D01*
X18312776Y91056560D01*
X18288000Y91059000D01*
X2667000Y91059000D01*
X2667000Y102072000D01*
X3191928Y102072000D01*
X3191928Y97572000D01*
X3204188Y97447518D01*
X3240498Y97327820D01*
X3299463Y97217506D01*
X3378815Y97120815D01*
X3475506Y97041463D01*
X3585820Y96982498D01*
X3705518Y96946188D01*
X3830000Y96933928D01*
X4684494Y96933928D01*
X8614470Y93003951D01*
X8642183Y92970183D01*
X8675951Y92942470D01*
X8675953Y92942468D01*
X8747452Y92883790D01*
X8776941Y92859589D01*
X8930687Y92777411D01*
X9097510Y92726805D01*
X9227523Y92714000D01*
X9227533Y92714000D01*
X9270999Y92709719D01*
X9314466Y92714000D01*
X13824806Y92714000D01*
X13849028Y92634149D01*
X13931095Y92480613D01*
X14041538Y92346038D01*
X14176113Y92235595D01*
X14329649Y92153528D01*
X14496245Y92102992D01*
X14669499Y92085928D01*
X15294501Y92085928D01*
X15467755Y92102992D01*
X15634351Y92153528D01*
X15787887Y92235595D01*
X15922462Y92346038D01*
X16032905Y92480613D01*
X16114972Y92634149D01*
X16165508Y92800745D01*
X16182572Y92973999D01*
X16182572Y94224001D01*
X16165508Y94397255D01*
X16114972Y94563851D01*
X16032905Y94717387D01*
X15922462Y94851962D01*
X15787887Y94962405D01*
X15634351Y95044472D01*
X15467755Y95095008D01*
X15294501Y95112072D01*
X14669499Y95112072D01*
X14496245Y95095008D01*
X14329649Y95044472D01*
X14176113Y94962405D01*
X14041538Y94851962D01*
X13931095Y94717387D01*
X13849028Y94563851D01*
X13824806Y94484000D01*
X9637579Y94484000D01*
X6875702Y97245877D01*
X6919502Y97327820D01*
X6955812Y97447518D01*
X6968072Y97572000D01*
X6968072Y100914596D01*
X8645000Y100914596D01*
X8645001Y98729403D01*
X8672276Y98452476D01*
X8780062Y98097152D01*
X8955098Y97769683D01*
X9190656Y97482655D01*
X9477684Y97247097D01*
X9805153Y97072061D01*
X10160477Y96964275D01*
X10530000Y96927880D01*
X10899524Y96964275D01*
X11254848Y97072061D01*
X11582317Y97247097D01*
X11869345Y97482655D01*
X12104903Y97769683D01*
X12279939Y98097152D01*
X12387725Y98452476D01*
X12415000Y98729403D01*
X12415000Y100914597D01*
X12387725Y101191524D01*
X12279939Y101546848D01*
X12104903Y101874317D01*
X11869345Y102161345D01*
X11582317Y102396903D01*
X11254847Y102571939D01*
X10899523Y102679725D01*
X10530000Y102716120D01*
X10160476Y102679725D01*
X9805152Y102571939D01*
X9477683Y102396903D01*
X9190655Y102161345D01*
X8955097Y101874317D01*
X8780061Y101546847D01*
X8672275Y101191523D01*
X8645000Y100914596D01*
X6968072Y100914596D01*
X6968072Y102072000D01*
X6955812Y102196482D01*
X6919502Y102316180D01*
X6860537Y102426494D01*
X6781185Y102523185D01*
X6684494Y102602537D01*
X6574180Y102661502D01*
X6454482Y102697812D01*
X6330000Y102710072D01*
X3830000Y102710072D01*
X3705518Y102697812D01*
X3585820Y102661502D01*
X3475506Y102602537D01*
X3378815Y102523185D01*
X3299463Y102426494D01*
X3240498Y102316180D01*
X3204188Y102196482D01*
X3191928Y102072000D01*
X2667000Y102072000D01*
X2667000Y103505000D01*
X38481000Y103505000D01*
X38481000Y96139000D01*
%TA.AperFunction,Conductor*%
D35*
G36*
X38481000Y96139000D02*
G01*
X28956000Y96139000D01*
X28931224Y96136560D01*
X28907399Y96129333D01*
X28885443Y96117597D01*
X28866197Y96101803D01*
X28850403Y96082557D01*
X28838667Y96060601D01*
X28831440Y96036776D01*
X28829000Y96012000D01*
X28829000Y90690072D01*
X28806000Y90690072D01*
X28652255Y90674929D01*
X28504418Y90630084D01*
X28368171Y90557258D01*
X28248749Y90459251D01*
X28150742Y90339829D01*
X28077916Y90203582D01*
X28033071Y90055745D01*
X28017928Y89902000D01*
X28017928Y88152000D01*
X28033071Y87998255D01*
X28077916Y87850418D01*
X28150742Y87714171D01*
X28248749Y87594749D01*
X28368171Y87496742D01*
X28504418Y87423916D01*
X28652255Y87379071D01*
X28806000Y87363928D01*
X28829000Y87363928D01*
X28829000Y85979000D01*
X28831440Y85954224D01*
X28838667Y85930399D01*
X28850403Y85908443D01*
X28873749Y85882234D01*
X31413749Y83723234D01*
X31434207Y83709047D01*
X31457041Y83699123D01*
X31481371Y83693845D01*
X31496000Y83693000D01*
X33983394Y83693000D01*
X35433000Y82243394D01*
X35433000Y72771000D01*
X24634000Y72771000D01*
X24634000Y75917000D01*
X25048928Y75917000D01*
X25048928Y75467000D01*
X25065512Y75298623D01*
X25114625Y75136717D01*
X25194382Y74987503D01*
X25301716Y74856716D01*
X25432503Y74749382D01*
X25581717Y74669625D01*
X25743623Y74620512D01*
X25912000Y74603928D01*
X26412000Y74603928D01*
X26580377Y74620512D01*
X26742283Y74669625D01*
X26891497Y74749382D01*
X26961705Y74807000D01*
X28889555Y74807000D01*
X28894038Y74801538D01*
X29028613Y74691095D01*
X29182149Y74609028D01*
X29348745Y74558492D01*
X29521999Y74541428D01*
X30422001Y74541428D01*
X30595255Y74558492D01*
X30761851Y74609028D01*
X30915387Y74691095D01*
X31049962Y74801538D01*
X31160405Y74936113D01*
X31242472Y75089649D01*
X31293008Y75256245D01*
X31310072Y75429499D01*
X31310072Y75778494D01*
X32091050Y76559471D01*
X32124817Y76587183D01*
X32163747Y76634618D01*
X32235410Y76721940D01*
X32235411Y76721941D01*
X32317589Y76875687D01*
X32368195Y77042510D01*
X32381000Y77172523D01*
X32381000Y77172533D01*
X32385281Y77215999D01*
X32381000Y77259465D01*
X32381000Y78103719D01*
X32462255Y78079071D01*
X32616000Y78063928D01*
X32916000Y78063928D01*
X33069745Y78079071D01*
X33151001Y78103719D01*
X33151000Y76724976D01*
X33067614Y76680405D01*
X32933038Y76569962D01*
X32822595Y76435386D01*
X32740528Y76281850D01*
X32689992Y76115254D01*
X32672928Y75942000D01*
X32672928Y75442000D01*
X32689992Y75268746D01*
X32740528Y75102150D01*
X32822595Y74948614D01*
X32933038Y74814038D01*
X33067614Y74703595D01*
X33221150Y74621528D01*
X33387746Y74570992D01*
X33561000Y74553928D01*
X34511000Y74553928D01*
X34684254Y74570992D01*
X34850850Y74621528D01*
X35004386Y74703595D01*
X35138962Y74814038D01*
X35249405Y74948614D01*
X35331472Y75102150D01*
X35382008Y75268746D01*
X35399072Y75442000D01*
X35399072Y75942000D01*
X35382008Y76115254D01*
X35331472Y76281850D01*
X35249405Y76435386D01*
X35138962Y76569962D01*
X35004386Y76680405D01*
X34921000Y76724976D01*
X34921000Y78573217D01*
X34958929Y78698255D01*
X34974072Y78852000D01*
X34974072Y80602000D01*
X34958929Y80755745D01*
X34921000Y80880783D01*
X34921000Y81490531D01*
X34925281Y81534000D01*
X34921000Y81577469D01*
X34921000Y81577477D01*
X34908195Y81707490D01*
X34871430Y81828687D01*
X34857589Y81874314D01*
X34775411Y82028059D01*
X34692532Y82129047D01*
X34692530Y82129049D01*
X34664817Y82162817D01*
X34631049Y82190530D01*
X34407535Y82414044D01*
X34396226Y82470898D01*
X34318205Y82659256D01*
X34204937Y82828774D01*
X34060774Y82972937D01*
X33891256Y83086205D01*
X33702898Y83164226D01*
X33502939Y83204000D01*
X33299061Y83204000D01*
X33099102Y83164226D01*
X32910744Y83086205D01*
X32741226Y82972937D01*
X32597063Y82828774D01*
X32483795Y82659256D01*
X32405774Y82470898D01*
X32366000Y82270939D01*
X32366000Y82067061D01*
X32405774Y81867102D01*
X32483795Y81678744D01*
X32597063Y81509226D01*
X32716217Y81390072D01*
X32616000Y81390072D01*
X32462255Y81374929D01*
X32314418Y81330084D01*
X32178171Y81257258D01*
X32131000Y81218546D01*
X32083829Y81257258D01*
X31947582Y81330084D01*
X31799745Y81374929D01*
X31646000Y81390072D01*
X31346000Y81390072D01*
X31192255Y81374929D01*
X31044418Y81330084D01*
X30908171Y81257258D01*
X30861000Y81218546D01*
X30813829Y81257258D01*
X30677582Y81330084D01*
X30529745Y81374929D01*
X30376000Y81390072D01*
X30076000Y81390072D01*
X29922255Y81374929D01*
X29774418Y81330084D01*
X29638171Y81257258D01*
X29518749Y81159251D01*
X29420742Y81039829D01*
X29347916Y80903582D01*
X29303071Y80755745D01*
X29287928Y80602000D01*
X29287928Y78852000D01*
X29303071Y78698255D01*
X29341000Y78573216D01*
X29341000Y78477156D01*
X29315470Y78446048D01*
X29315468Y78446046D01*
X29293374Y78419124D01*
X29232589Y78345059D01*
X29150411Y78191313D01*
X29101543Y78030220D01*
X29054795Y77960256D01*
X28976774Y77771898D01*
X28937000Y77571939D01*
X28937000Y77368061D01*
X28976774Y77168102D01*
X29054795Y76979744D01*
X29168063Y76810226D01*
X29198390Y76779899D01*
X29182149Y76774972D01*
X29028613Y76692905D01*
X28894038Y76582462D01*
X28889555Y76577000D01*
X26961705Y76577000D01*
X26891497Y76634618D01*
X26742283Y76714375D01*
X26580377Y76763488D01*
X26412000Y76780072D01*
X25912000Y76780072D01*
X25743623Y76763488D01*
X25581717Y76714375D01*
X25432503Y76634618D01*
X25301716Y76527284D01*
X25194382Y76396497D01*
X25114625Y76247283D01*
X25065512Y76085377D01*
X25048928Y75917000D01*
X24634000Y75917000D01*
X24634000Y77963422D01*
X24771202Y78100624D01*
X24842255Y78079071D01*
X24996000Y78063928D01*
X25296000Y78063928D01*
X25449745Y78079071D01*
X25597582Y78123916D01*
X25733829Y78196742D01*
X25781000Y78235454D01*
X25828171Y78196742D01*
X25964418Y78123916D01*
X26112255Y78079071D01*
X26266000Y78063928D01*
X26566000Y78063928D01*
X26719745Y78079071D01*
X26867582Y78123916D01*
X27003829Y78196742D01*
X27051000Y78235454D01*
X27098171Y78196742D01*
X27234418Y78123916D01*
X27382255Y78079071D01*
X27536000Y78063928D01*
X27836000Y78063928D01*
X27989745Y78079071D01*
X28137582Y78123916D01*
X28273829Y78196742D01*
X28393251Y78294749D01*
X28491258Y78414171D01*
X28564084Y78550418D01*
X28608929Y78698255D01*
X28624072Y78852000D01*
X28624072Y80602000D01*
X28608929Y80755745D01*
X28571000Y80880783D01*
X28571000Y81630546D01*
X28603205Y81678744D01*
X28681226Y81867102D01*
X28721000Y82067061D01*
X28721000Y82270939D01*
X28681226Y82470898D01*
X28603205Y82659256D01*
X28489937Y82828774D01*
X28345774Y82972937D01*
X28176256Y83086205D01*
X27987898Y83164226D01*
X27931044Y83175535D01*
X26031000Y85075578D01*
X26031000Y87403719D01*
X26112255Y87379071D01*
X26266000Y87363928D01*
X26566000Y87363928D01*
X26719745Y87379071D01*
X26867582Y87423916D01*
X27003829Y87496742D01*
X27123251Y87594749D01*
X27221258Y87714171D01*
X27294084Y87850418D01*
X27338929Y87998255D01*
X27354072Y88152000D01*
X27354072Y89902000D01*
X27338929Y90055745D01*
X27301000Y90180783D01*
X27301000Y90634531D01*
X27305281Y90678000D01*
X27301000Y90721469D01*
X27301000Y90721477D01*
X27288195Y90851490D01*
X27237589Y91018313D01*
X27155411Y91172059D01*
X27125431Y91208589D01*
X27072532Y91273047D01*
X27072530Y91273049D01*
X27044817Y91306817D01*
X27011049Y91334530D01*
X26310532Y92035046D01*
X26282817Y92068817D01*
X26148059Y92179411D01*
X25994313Y92261589D01*
X25827490Y92312195D01*
X25697477Y92325000D01*
X25697469Y92325000D01*
X25654000Y92329281D01*
X25610531Y92325000D01*
X25552827Y92325000D01*
X25578462Y92346038D01*
X25688905Y92480613D01*
X25770972Y92634149D01*
X25821508Y92800745D01*
X25838572Y92973999D01*
X25838572Y94224001D01*
X25821508Y94397255D01*
X25770972Y94563851D01*
X25688905Y94717387D01*
X25578462Y94851962D01*
X25523000Y94897479D01*
X25523000Y96933928D01*
X25888000Y96933928D01*
X26012482Y96946188D01*
X26132180Y96982498D01*
X26242494Y97041463D01*
X26339185Y97120815D01*
X26418537Y97217506D01*
X26477502Y97327820D01*
X26513812Y97447518D01*
X26526072Y97572000D01*
X26526072Y100914596D01*
X28203000Y100914596D01*
X28203001Y98729403D01*
X28230276Y98452476D01*
X28338062Y98097152D01*
X28513098Y97769683D01*
X28748656Y97482655D01*
X29035684Y97247097D01*
X29363153Y97072061D01*
X29718477Y96964275D01*
X30088000Y96927880D01*
X30457524Y96964275D01*
X30812848Y97072061D01*
X31140317Y97247097D01*
X31427345Y97482655D01*
X31662903Y97769683D01*
X31837939Y98097152D01*
X31945725Y98452476D01*
X31973000Y98729403D01*
X31973000Y100914597D01*
X31945725Y101191524D01*
X31837939Y101546848D01*
X31662903Y101874317D01*
X31427345Y102161345D01*
X31140317Y102396903D01*
X30812847Y102571939D01*
X30457523Y102679725D01*
X30088000Y102716120D01*
X29718476Y102679725D01*
X29363152Y102571939D01*
X29035683Y102396903D01*
X28748655Y102161345D01*
X28513097Y101874317D01*
X28338061Y101546847D01*
X28230275Y101191523D01*
X28203000Y100914596D01*
X26526072Y100914596D01*
X26526072Y102072000D01*
X26513812Y102196482D01*
X26477502Y102316180D01*
X26418537Y102426494D01*
X26339185Y102523185D01*
X26242494Y102602537D01*
X26132180Y102661502D01*
X26012482Y102697812D01*
X25888000Y102710072D01*
X23388000Y102710072D01*
X23263518Y102697812D01*
X23143820Y102661502D01*
X23033506Y102602537D01*
X22936815Y102523185D01*
X22857463Y102426494D01*
X22798498Y102316180D01*
X22762188Y102196482D01*
X22749928Y102072000D01*
X22749928Y97572000D01*
X22762188Y97447518D01*
X22798498Y97327820D01*
X22857463Y97217506D01*
X22936815Y97120815D01*
X23033506Y97041463D01*
X23143820Y96982498D01*
X23263518Y96946188D01*
X23388000Y96933928D01*
X23753001Y96933928D01*
X23753000Y94897479D01*
X23697538Y94851962D01*
X23587095Y94717387D01*
X23505028Y94563851D01*
X23454492Y94397255D01*
X23437428Y94224001D01*
X23437428Y92973999D01*
X23454492Y92800745D01*
X23505028Y92634149D01*
X23587095Y92480613D01*
X23697538Y92346038D01*
X23723173Y92325000D01*
X22627827Y92325000D01*
X22653462Y92346038D01*
X22763905Y92480613D01*
X22845972Y92634149D01*
X22896508Y92800745D01*
X22913572Y92973999D01*
X22913572Y94224001D01*
X22896508Y94397255D01*
X22845972Y94563851D01*
X22763905Y94717387D01*
X22653462Y94851962D01*
X22518887Y94962405D01*
X22365351Y95044472D01*
X22198755Y95095008D01*
X22025501Y95112072D01*
X21400499Y95112072D01*
X21227245Y95095008D01*
X21060649Y95044472D01*
X20907113Y94962405D01*
X20772538Y94851962D01*
X20662095Y94717387D01*
X20580028Y94563851D01*
X20555806Y94484000D01*
X19064194Y94484000D01*
X19039972Y94563851D01*
X18957905Y94717387D01*
X18847462Y94851962D01*
X18712887Y94962405D01*
X18559351Y95044472D01*
X18392755Y95095008D01*
X18219501Y95112072D01*
X17594499Y95112072D01*
X17421245Y95095008D01*
X17254649Y95044472D01*
X17101113Y94962405D01*
X16966538Y94851962D01*
X16856095Y94717387D01*
X16774028Y94563851D01*
X16723492Y94397255D01*
X16706428Y94224001D01*
X16706428Y92973999D01*
X16723492Y92800745D01*
X16774028Y92634149D01*
X16856095Y92480613D01*
X16966538Y92346038D01*
X17101113Y92235595D01*
X17254649Y92153528D01*
X17421245Y92102992D01*
X17594499Y92085928D01*
X18219501Y92085928D01*
X18392755Y92102992D01*
X18559351Y92153528D01*
X18712887Y92235595D01*
X18847462Y92346038D01*
X18957905Y92480613D01*
X19039972Y92634149D01*
X19064194Y92714000D01*
X20555806Y92714000D01*
X20580028Y92634149D01*
X20662095Y92480613D01*
X20772538Y92346038D01*
X20832000Y92297239D01*
X20832000Y91991469D01*
X20827719Y91948000D01*
X20832000Y91904531D01*
X20832000Y91904524D01*
X20841599Y91807059D01*
X20844234Y91780313D01*
X20844805Y91774511D01*
X20895411Y91607688D01*
X20977589Y91453942D01*
X21088183Y91319183D01*
X21121956Y91291466D01*
X21568466Y90844956D01*
X21596183Y90811183D01*
X21730941Y90700589D01*
X21884687Y90618411D01*
X22051510Y90567805D01*
X22181523Y90555000D01*
X22181533Y90555000D01*
X22224999Y90550719D01*
X22268465Y90555000D01*
X24555420Y90555000D01*
X24438749Y90459251D01*
X24340742Y90339829D01*
X24267916Y90203582D01*
X24223071Y90055745D01*
X24208913Y89912000D01*
X22161737Y89912000D01*
X22105962Y89979962D01*
X21971387Y90090405D01*
X21817851Y90172472D01*
X21651255Y90223008D01*
X21478001Y90240072D01*
X20177999Y90240072D01*
X20004745Y90223008D01*
X19838149Y90172472D01*
X19684613Y90090405D01*
X19550038Y89979962D01*
X19439595Y89845387D01*
X19357528Y89691851D01*
X19306992Y89525255D01*
X19289928Y89352001D01*
X19289928Y88701999D01*
X19306992Y88528745D01*
X19357528Y88362149D01*
X19439595Y88208613D01*
X19550038Y88074038D01*
X19684613Y87963595D01*
X19838149Y87881528D01*
X20004745Y87830992D01*
X20177999Y87813928D01*
X21478001Y87813928D01*
X21651255Y87830992D01*
X21817851Y87881528D01*
X21971387Y87963595D01*
X22105962Y88074038D01*
X22161737Y88142000D01*
X24208913Y88142000D01*
X24223071Y87998255D01*
X24261000Y87873217D01*
X24261001Y84752479D01*
X24256719Y84709000D01*
X24273805Y84535510D01*
X24324412Y84368687D01*
X24406590Y84214941D01*
X24489468Y84113954D01*
X24489471Y84113951D01*
X24517184Y84080183D01*
X24550951Y84052471D01*
X26679465Y81923956D01*
X26690774Y81867102D01*
X26768795Y81678744D01*
X26801000Y81630545D01*
X26801000Y81350281D01*
X26719745Y81374929D01*
X26566000Y81390072D01*
X26266000Y81390072D01*
X26112255Y81374929D01*
X25964418Y81330084D01*
X25828171Y81257258D01*
X25781000Y81218546D01*
X25733829Y81257258D01*
X25597582Y81330084D01*
X25449745Y81374929D01*
X25296000Y81390072D01*
X24996000Y81390072D01*
X24842255Y81374929D01*
X24694418Y81330084D01*
X24558171Y81257258D01*
X24438749Y81159251D01*
X24340742Y81039829D01*
X24267916Y80903582D01*
X24223071Y80755745D01*
X24207928Y80602000D01*
X24207928Y80040507D01*
X23153951Y78986529D01*
X23120184Y78958817D01*
X23092471Y78925049D01*
X23092468Y78925046D01*
X23009590Y78824059D01*
X22927412Y78670313D01*
X22876805Y78503490D01*
X22859719Y78330000D01*
X22864001Y78286521D01*
X22864000Y72771000D01*
X18415000Y72771000D01*
X18415000Y90932000D01*
X18412560Y90956776D01*
X18405333Y90980601D01*
X18393597Y91002557D01*
X18377803Y91021803D01*
X18358557Y91037597D01*
X18336601Y91049333D01*
X18312776Y91056560D01*
X18288000Y91059000D01*
X2667000Y91059000D01*
X2667000Y102072000D01*
X3191928Y102072000D01*
X3191928Y97572000D01*
X3204188Y97447518D01*
X3240498Y97327820D01*
X3299463Y97217506D01*
X3378815Y97120815D01*
X3475506Y97041463D01*
X3585820Y96982498D01*
X3705518Y96946188D01*
X3830000Y96933928D01*
X4684494Y96933928D01*
X8614470Y93003951D01*
X8642183Y92970183D01*
X8675951Y92942470D01*
X8675953Y92942468D01*
X8747452Y92883790D01*
X8776941Y92859589D01*
X8930687Y92777411D01*
X9097510Y92726805D01*
X9227523Y92714000D01*
X9227533Y92714000D01*
X9270999Y92709719D01*
X9314466Y92714000D01*
X13824806Y92714000D01*
X13849028Y92634149D01*
X13931095Y92480613D01*
X14041538Y92346038D01*
X14176113Y92235595D01*
X14329649Y92153528D01*
X14496245Y92102992D01*
X14669499Y92085928D01*
X15294501Y92085928D01*
X15467755Y92102992D01*
X15634351Y92153528D01*
X15787887Y92235595D01*
X15922462Y92346038D01*
X16032905Y92480613D01*
X16114972Y92634149D01*
X16165508Y92800745D01*
X16182572Y92973999D01*
X16182572Y94224001D01*
X16165508Y94397255D01*
X16114972Y94563851D01*
X16032905Y94717387D01*
X15922462Y94851962D01*
X15787887Y94962405D01*
X15634351Y95044472D01*
X15467755Y95095008D01*
X15294501Y95112072D01*
X14669499Y95112072D01*
X14496245Y95095008D01*
X14329649Y95044472D01*
X14176113Y94962405D01*
X14041538Y94851962D01*
X13931095Y94717387D01*
X13849028Y94563851D01*
X13824806Y94484000D01*
X9637579Y94484000D01*
X6875702Y97245877D01*
X6919502Y97327820D01*
X6955812Y97447518D01*
X6968072Y97572000D01*
X6968072Y100914596D01*
X8645000Y100914596D01*
X8645001Y98729403D01*
X8672276Y98452476D01*
X8780062Y98097152D01*
X8955098Y97769683D01*
X9190656Y97482655D01*
X9477684Y97247097D01*
X9805153Y97072061D01*
X10160477Y96964275D01*
X10530000Y96927880D01*
X10899524Y96964275D01*
X11254848Y97072061D01*
X11582317Y97247097D01*
X11869345Y97482655D01*
X12104903Y97769683D01*
X12279939Y98097152D01*
X12387725Y98452476D01*
X12415000Y98729403D01*
X12415000Y100914597D01*
X12387725Y101191524D01*
X12279939Y101546848D01*
X12104903Y101874317D01*
X11869345Y102161345D01*
X11582317Y102396903D01*
X11254847Y102571939D01*
X10899523Y102679725D01*
X10530000Y102716120D01*
X10160476Y102679725D01*
X9805152Y102571939D01*
X9477683Y102396903D01*
X9190655Y102161345D01*
X8955097Y101874317D01*
X8780061Y101546847D01*
X8672275Y101191523D01*
X8645000Y100914596D01*
X6968072Y100914596D01*
X6968072Y102072000D01*
X6955812Y102196482D01*
X6919502Y102316180D01*
X6860537Y102426494D01*
X6781185Y102523185D01*
X6684494Y102602537D01*
X6574180Y102661502D01*
X6454482Y102697812D01*
X6330000Y102710072D01*
X3830000Y102710072D01*
X3705518Y102697812D01*
X3585820Y102661502D01*
X3475506Y102602537D01*
X3378815Y102523185D01*
X3299463Y102426494D01*
X3240498Y102316180D01*
X3204188Y102196482D01*
X3191928Y102072000D01*
X2667000Y102072000D01*
X2667000Y103505000D01*
X38481000Y103505000D01*
X38481000Y96139000D01*
G37*
%TD.AperFunction*%
%TD*%
D34*
%TO.N,GND*%
X108585000Y90424000D02*
X108587440Y90399224D01*
X108594667Y90375399D01*
X108606403Y90353443D01*
X108622197Y90334197D01*
X108641443Y90318403D01*
X108663399Y90306667D01*
X108687224Y90299440D01*
X108712000Y90297000D01*
X115697000Y90297000D01*
X115697000Y88869213D01*
X115631962Y88948462D01*
X115497387Y89058905D01*
X115343851Y89140972D01*
X115177255Y89191508D01*
X115004001Y89208572D01*
X114103999Y89208572D01*
X113930745Y89191508D01*
X113764149Y89140972D01*
X113610613Y89058905D01*
X113476038Y88948462D01*
X113432983Y88896000D01*
X111611017Y88896000D01*
X111567962Y88948462D01*
X111433387Y89058905D01*
X111279851Y89140972D01*
X111113255Y89191508D01*
X110940001Y89208572D01*
X110039999Y89208572D01*
X109866745Y89191508D01*
X109729911Y89150000D01*
X106930000Y89150000D01*
X106930000Y89203845D01*
X106933482Y89204188D01*
X107053180Y89240498D01*
X107163494Y89299463D01*
X107260185Y89378815D01*
X107339537Y89475506D01*
X107398502Y89585820D01*
X107434812Y89705518D01*
X107447072Y89830000D01*
X107447072Y91830000D01*
X107434812Y91954482D01*
X107398502Y92074180D01*
X107339537Y92184494D01*
X107260185Y92281185D01*
X107163494Y92360537D01*
X107053180Y92419502D01*
X106933482Y92455812D01*
X106809000Y92468072D01*
X105309000Y92468072D01*
X105184518Y92455812D01*
X105064820Y92419502D01*
X104954506Y92360537D01*
X104857815Y92281185D01*
X104778463Y92184494D01*
X104719498Y92074180D01*
X104683188Y91954482D01*
X104670928Y91830000D01*
X104670928Y89830000D01*
X104683188Y89705518D01*
X104719498Y89585820D01*
X104778463Y89475506D01*
X104857815Y89378815D01*
X104954506Y89299463D01*
X105064820Y89240498D01*
X105160000Y89211625D01*
X105160000Y88631579D01*
X103900422Y87372000D01*
X101489976Y87372000D01*
X101445405Y87455386D01*
X101334962Y87589962D01*
X101200386Y87700405D01*
X101046850Y87782472D01*
X100880254Y87833008D01*
X100707000Y87850072D01*
X100207000Y87850072D01*
X100033746Y87833008D01*
X99867150Y87782472D01*
X99713614Y87700405D01*
X99579038Y87589962D01*
X99468595Y87455386D01*
X99386528Y87301850D01*
X99335992Y87135254D01*
X99318928Y86962000D01*
X99318928Y86012000D01*
X99335992Y85838746D01*
X99386528Y85672150D01*
X99468595Y85518614D01*
X99572000Y85392614D01*
X99572001Y83616854D01*
X99546815Y83596185D01*
X99467463Y83499494D01*
X99408498Y83389180D01*
X99372188Y83269482D01*
X99359928Y83145000D01*
X99359928Y80645000D01*
X99372188Y80520518D01*
X99398714Y80433072D01*
X98098000Y80433072D01*
X97973518Y80420812D01*
X97853820Y80384502D01*
X97743506Y80325537D01*
X97646815Y80246185D01*
X97567463Y80149494D01*
X97508498Y80039180D01*
X97472188Y79919482D01*
X97459928Y79795000D01*
X97459928Y78795000D01*
X97472188Y78670518D01*
X97508498Y78550820D01*
X97567463Y78440506D01*
X97646815Y78343815D01*
X97706296Y78295000D01*
X97646815Y78246185D01*
X97567463Y78149494D01*
X97508498Y78039180D01*
X97472188Y77919482D01*
X97459928Y77795000D01*
X97459928Y76795000D01*
X97472188Y76670518D01*
X97508498Y76550820D01*
X97567463Y76440506D01*
X97646815Y76343815D01*
X97706296Y76295000D01*
X97646815Y76246185D01*
X97567463Y76149494D01*
X97508498Y76039180D01*
X97472188Y75919482D01*
X97459928Y75795000D01*
X97459928Y74795000D01*
X97472188Y74670518D01*
X97508498Y74550820D01*
X97567463Y74440506D01*
X97646815Y74343815D01*
X97706296Y74295000D01*
X97646815Y74246185D01*
X97567463Y74149494D01*
X97508498Y74039180D01*
X97472188Y73919482D01*
X97459928Y73795000D01*
X97459928Y72795000D01*
X97472188Y72670518D01*
X97508498Y72550820D01*
X97567463Y72440506D01*
X97646815Y72343815D01*
X97706296Y72295000D01*
X97646815Y72246185D01*
X97567463Y72149494D01*
X97508498Y72039180D01*
X97472188Y71919482D01*
X97459928Y71795000D01*
X97459928Y70795000D01*
X97472188Y70670518D01*
X97508498Y70550820D01*
X97567463Y70440506D01*
X97646815Y70343815D01*
X97706296Y70295000D01*
X97646815Y70246185D01*
X97567463Y70149494D01*
X97508498Y70039180D01*
X97472188Y69919482D01*
X97459928Y69795000D01*
X97459928Y68795000D01*
X97472188Y68670518D01*
X97508498Y68550820D01*
X97567463Y68440506D01*
X97646815Y68343815D01*
X97743506Y68264463D01*
X97853820Y68205498D01*
X97973518Y68169188D01*
X98098000Y68156928D01*
X99898000Y68156928D01*
X100022482Y68169188D01*
X100142180Y68205498D01*
X100252494Y68264463D01*
X100349185Y68343815D01*
X100428537Y68440506D01*
X100487502Y68550820D01*
X100523812Y68670518D01*
X100536072Y68795000D01*
X100536072Y69795000D01*
X100523812Y69919482D01*
X100487502Y70039180D01*
X100428537Y70149494D01*
X100349185Y70246185D01*
X100289704Y70295000D01*
X100349185Y70343815D01*
X100428537Y70440506D01*
X100487502Y70550820D01*
X100523812Y70670518D01*
X100536072Y70795000D01*
X100536072Y71795000D01*
X100523812Y71919482D01*
X100487502Y72039180D01*
X100428537Y72149494D01*
X100349185Y72246185D01*
X100289704Y72295000D01*
X100349185Y72343815D01*
X100428537Y72440506D01*
X100487502Y72550820D01*
X100523812Y72670518D01*
X100536072Y72795000D01*
X100536072Y73795000D01*
X100523812Y73919482D01*
X100487502Y74039180D01*
X100428537Y74149494D01*
X100349185Y74246185D01*
X100289704Y74295000D01*
X100349185Y74343815D01*
X100428537Y74440506D01*
X100487502Y74550820D01*
X100523812Y74670518D01*
X100536072Y74795000D01*
X100536072Y75795000D01*
X100523812Y75919482D01*
X100487502Y76039180D01*
X100428537Y76149494D01*
X100349185Y76246185D01*
X100289704Y76295000D01*
X100349185Y76343815D01*
X100428537Y76440506D01*
X100487502Y76550820D01*
X100523812Y76670518D01*
X100536072Y76795000D01*
X100536072Y77795000D01*
X100523812Y77919482D01*
X100487502Y78039180D01*
X100428537Y78149494D01*
X100349185Y78246185D01*
X100289704Y78295000D01*
X100349185Y78343815D01*
X100428537Y78440506D01*
X100487502Y78550820D01*
X100523812Y78670518D01*
X100536072Y78795000D01*
X100536072Y79795000D01*
X100523812Y79919482D01*
X100497286Y80006928D01*
X100998000Y80006928D01*
X101122482Y80019188D01*
X101242180Y80055498D01*
X101352494Y80114463D01*
X101449185Y80193815D01*
X101498000Y80253296D01*
X101546815Y80193815D01*
X101643506Y80114463D01*
X101753820Y80055498D01*
X101873518Y80019188D01*
X101998000Y80006928D01*
X102998000Y80006928D01*
X103122482Y80019188D01*
X103242180Y80055498D01*
X103352494Y80114463D01*
X103449185Y80193815D01*
X103498000Y80253296D01*
X103546815Y80193815D01*
X103613000Y80139498D01*
X103613001Y77686580D01*
X101481957Y75555535D01*
X101425102Y75544226D01*
X101236744Y75466205D01*
X101067226Y75352937D01*
X100923063Y75208774D01*
X100809795Y75039256D01*
X100731774Y74850898D01*
X100692000Y74650939D01*
X100692000Y74447061D01*
X100731774Y74247102D01*
X100809795Y74058744D01*
X100923063Y73889226D01*
X101067226Y73745063D01*
X101236744Y73631795D01*
X101425102Y73553774D01*
X101625061Y73514000D01*
X101828939Y73514000D01*
X102028898Y73553774D01*
X102217256Y73631795D01*
X102386774Y73745063D01*
X102530937Y73889226D01*
X102644205Y74058744D01*
X102722226Y74247102D01*
X102733535Y74303957D01*
X105093049Y76663470D01*
X105126817Y76691183D01*
X105237411Y76825941D01*
X105319589Y76979687D01*
X105370195Y77146510D01*
X105383000Y77276523D01*
X105383000Y77276531D01*
X105387281Y77320000D01*
X105383000Y77363469D01*
X105383000Y80139499D01*
X105449185Y80193815D01*
X105498000Y80253296D01*
X105546815Y80193815D01*
X105613000Y80139498D01*
X105613001Y76892580D01*
X101481957Y72761535D01*
X101425102Y72750226D01*
X101236744Y72672205D01*
X101067226Y72558937D01*
X100923063Y72414774D01*
X100809795Y72245256D01*
X100731774Y72056898D01*
X100692000Y71856939D01*
X100692000Y71653061D01*
X100731774Y71453102D01*
X100809795Y71264744D01*
X100923063Y71095226D01*
X101067226Y70951063D01*
X101236744Y70837795D01*
X101425102Y70759774D01*
X101625061Y70720000D01*
X101828939Y70720000D01*
X102028898Y70759774D01*
X102217256Y70837795D01*
X102386774Y70951063D01*
X102530937Y71095226D01*
X102644205Y71264744D01*
X102722226Y71453102D01*
X102733535Y71509957D01*
X107093049Y75869470D01*
X107126817Y75897183D01*
X107237411Y76031941D01*
X107319589Y76185687D01*
X107370195Y76352510D01*
X107383000Y76482523D01*
X107383000Y76482531D01*
X107387281Y76526000D01*
X107383000Y76569469D01*
X107383000Y80139499D01*
X107449185Y80193815D01*
X107498000Y80253296D01*
X107546815Y80193815D01*
X107643506Y80114463D01*
X107753820Y80055498D01*
X107873518Y80019188D01*
X107998000Y80006928D01*
X108998000Y80006928D01*
X109122482Y80019188D01*
X109242180Y80055498D01*
X109352494Y80114463D01*
X109449185Y80193815D01*
X109498000Y80253296D01*
X109546815Y80193815D01*
X109643506Y80114463D01*
X109753820Y80055498D01*
X109873518Y80019188D01*
X109998000Y80006928D01*
X110998000Y80006928D01*
X111122482Y80019188D01*
X111242180Y80055498D01*
X111352494Y80114463D01*
X111449185Y80193815D01*
X111498000Y80253296D01*
X111546815Y80193815D01*
X111643506Y80114463D01*
X111753820Y80055498D01*
X111873518Y80019188D01*
X111998000Y80006928D01*
X112998000Y80006928D01*
X113122482Y80019188D01*
X113242180Y80055498D01*
X113352494Y80114463D01*
X113449185Y80193815D01*
X113498000Y80253296D01*
X113546815Y80193815D01*
X113643506Y80114463D01*
X113753820Y80055498D01*
X113873518Y80019188D01*
X113998000Y80006928D01*
X114998000Y80006928D01*
X115122482Y80019188D01*
X115242180Y80055498D01*
X115352494Y80114463D01*
X115449185Y80193815D01*
X115528537Y80290506D01*
X115587502Y80400820D01*
X115623812Y80520518D01*
X115636072Y80645000D01*
X115636072Y83145000D01*
X115623812Y83269482D01*
X115587502Y83389180D01*
X115528537Y83499494D01*
X115449185Y83596185D01*
X115383000Y83650501D01*
X115383000Y85170954D01*
X115497387Y85232095D01*
X115631962Y85342538D01*
X115697000Y85421787D01*
X115697000Y58039000D01*
X96647000Y58039000D01*
X96647000Y62619501D01*
X98102928Y62619501D01*
X98102928Y62094499D01*
X98119992Y61921245D01*
X98170528Y61754649D01*
X98252595Y61601113D01*
X98363038Y61466538D01*
X98497613Y61356095D01*
X98651149Y61274028D01*
X98817745Y61223492D01*
X98990999Y61206428D01*
X99891001Y61206428D01*
X100064255Y61223492D01*
X100230851Y61274028D01*
X100384387Y61356095D01*
X100518962Y61466538D01*
X100629405Y61601113D01*
X100711472Y61754649D01*
X100762008Y61921245D01*
X100779072Y62094499D01*
X100779072Y62443494D01*
X103084050Y64748471D01*
X103117817Y64776183D01*
X103163263Y64831559D01*
X103242180Y64855498D01*
X103352494Y64914463D01*
X103449185Y64993815D01*
X103498000Y65053296D01*
X103546815Y64993815D01*
X103613001Y64939498D01*
X103613001Y63716580D01*
X103403993Y63507572D01*
X103054999Y63507572D01*
X102881745Y63490508D01*
X102715149Y63439972D01*
X102561613Y63357905D01*
X102427038Y63247462D01*
X102316595Y63112887D01*
X102234528Y62959351D01*
X102183992Y62792755D01*
X102166928Y62619501D01*
X102166928Y62094499D01*
X102183992Y61921245D01*
X102234528Y61754649D01*
X102316595Y61601113D01*
X102427038Y61466538D01*
X102453891Y61444500D01*
X102427038Y61422462D01*
X102316595Y61287887D01*
X102234528Y61134351D01*
X102183992Y60967755D01*
X102166928Y60794501D01*
X102166928Y60269499D01*
X102183992Y60096245D01*
X102234528Y59929649D01*
X102316595Y59776113D01*
X102427038Y59641538D01*
X102561613Y59531095D01*
X102715149Y59449028D01*
X102881745Y59398492D01*
X103054999Y59381428D01*
X103955001Y59381428D01*
X104128255Y59398492D01*
X104294851Y59449028D01*
X104448387Y59531095D01*
X104582962Y59641538D01*
X104587445Y59647000D01*
X106359555Y59647000D01*
X106364038Y59641538D01*
X106498613Y59531095D01*
X106652149Y59449028D01*
X106818745Y59398492D01*
X106991999Y59381428D01*
X107892001Y59381428D01*
X108065255Y59398492D01*
X108231851Y59449028D01*
X108385387Y59531095D01*
X108519962Y59641538D01*
X108630405Y59776113D01*
X108712472Y59929649D01*
X108763008Y60096245D01*
X108780072Y60269499D01*
X108780072Y60794501D01*
X108763008Y60967755D01*
X108712472Y61134351D01*
X108630405Y61287887D01*
X108519962Y61422462D01*
X108493109Y61444500D01*
X108519962Y61466538D01*
X108630405Y61601113D01*
X108712472Y61754649D01*
X108763008Y61921245D01*
X108780072Y62094499D01*
X108780072Y62619501D01*
X108763008Y62792755D01*
X108712472Y62959351D01*
X108630405Y63112887D01*
X108519962Y63247462D01*
X108385387Y63357905D01*
X108231851Y63439972D01*
X108065255Y63490508D01*
X107892001Y63507572D01*
X107543006Y63507572D01*
X107438000Y63612578D01*
X107438000Y64984636D01*
X107449185Y64993815D01*
X107498000Y65053296D01*
X107546815Y64993815D01*
X107643506Y64914463D01*
X107753820Y64855498D01*
X107873518Y64819188D01*
X107998000Y64806928D01*
X108998000Y64806928D01*
X109122482Y64819188D01*
X109242180Y64855498D01*
X109352494Y64914463D01*
X109449185Y64993815D01*
X109498000Y65053296D01*
X109546815Y64993815D01*
X109643506Y64914463D01*
X109753820Y64855498D01*
X109873518Y64819188D01*
X109998000Y64806928D01*
X110998000Y64806928D01*
X111122482Y64819188D01*
X111242180Y64855498D01*
X111352494Y64914463D01*
X111449185Y64993815D01*
X111498000Y65053296D01*
X111546815Y64993815D01*
X111643506Y64914463D01*
X111753820Y64855498D01*
X111873518Y64819188D01*
X111998000Y64806928D01*
X112998000Y64806928D01*
X113122482Y64819188D01*
X113242180Y64855498D01*
X113352494Y64914463D01*
X113449185Y64993815D01*
X113498000Y65053296D01*
X113546815Y64993815D01*
X113643506Y64914463D01*
X113753820Y64855498D01*
X113873518Y64819188D01*
X113998000Y64806928D01*
X114998000Y64806928D01*
X115122482Y64819188D01*
X115242180Y64855498D01*
X115352494Y64914463D01*
X115449185Y64993815D01*
X115528537Y65090506D01*
X115587502Y65200820D01*
X115623812Y65320518D01*
X115636072Y65445000D01*
X115636072Y67945000D01*
X115623812Y68069482D01*
X115587502Y68189180D01*
X115528537Y68299494D01*
X115449185Y68396185D01*
X115352494Y68475537D01*
X115242180Y68534502D01*
X115122482Y68570812D01*
X114998000Y68583072D01*
X113998000Y68583072D01*
X113873518Y68570812D01*
X113753820Y68534502D01*
X113643506Y68475537D01*
X113546815Y68396185D01*
X113498000Y68336704D01*
X113449185Y68396185D01*
X113352494Y68475537D01*
X113242180Y68534502D01*
X113122482Y68570812D01*
X112998000Y68583072D01*
X111998000Y68583072D01*
X111873518Y68570812D01*
X111753820Y68534502D01*
X111643506Y68475537D01*
X111546815Y68396185D01*
X111498000Y68336704D01*
X111449185Y68396185D01*
X111352494Y68475537D01*
X111242180Y68534502D01*
X111122482Y68570812D01*
X110998000Y68583072D01*
X109998000Y68583072D01*
X109873518Y68570812D01*
X109753820Y68534502D01*
X109643506Y68475537D01*
X109546815Y68396185D01*
X109498000Y68336704D01*
X109449185Y68396185D01*
X109352494Y68475537D01*
X109242180Y68534502D01*
X109122482Y68570812D01*
X108998000Y68583072D01*
X107998000Y68583072D01*
X107873518Y68570812D01*
X107753820Y68534502D01*
X107643506Y68475537D01*
X107546815Y68396185D01*
X107498000Y68336704D01*
X107449185Y68396185D01*
X107352494Y68475537D01*
X107242180Y68534502D01*
X107122482Y68570812D01*
X106998000Y68583072D01*
X105998000Y68583072D01*
X105873518Y68570812D01*
X105753820Y68534502D01*
X105643506Y68475537D01*
X105546815Y68396185D01*
X105498000Y68336704D01*
X105449185Y68396185D01*
X105352494Y68475537D01*
X105242180Y68534502D01*
X105122482Y68570812D01*
X104998000Y68583072D01*
X103998000Y68583072D01*
X103873518Y68570812D01*
X103753820Y68534502D01*
X103643506Y68475537D01*
X103546815Y68396185D01*
X103498000Y68336704D01*
X103449185Y68396185D01*
X103352494Y68475537D01*
X103242180Y68534502D01*
X103122482Y68570812D01*
X102998000Y68583072D01*
X101998000Y68583072D01*
X101873518Y68570812D01*
X101753820Y68534502D01*
X101643506Y68475537D01*
X101546815Y68396185D01*
X101467463Y68299494D01*
X101408498Y68189180D01*
X101372188Y68069482D01*
X101359928Y67945000D01*
X101359928Y65527507D01*
X99339994Y63507572D01*
X98990999Y63507572D01*
X98817745Y63490508D01*
X98651149Y63439972D01*
X98497613Y63357905D01*
X98363038Y63247462D01*
X98252595Y63112887D01*
X98170528Y62959351D01*
X98119992Y62792755D01*
X98102928Y62619501D01*
X96647000Y62619501D01*
X96647000Y93980000D01*
X96644560Y94004776D01*
X96637333Y94028601D01*
X96625597Y94050557D01*
X96609803Y94069803D01*
X96590557Y94085597D01*
X96568601Y94097333D01*
X96544776Y94104560D01*
X96520000Y94107000D01*
X94107000Y94107000D01*
X94107000Y96868000D01*
X96397928Y96868000D01*
X96397928Y95918000D01*
X96414992Y95744746D01*
X96465528Y95578150D01*
X96547595Y95424614D01*
X96658038Y95290038D01*
X96792614Y95179595D01*
X96946150Y95097528D01*
X97112746Y95046992D01*
X97286000Y95029928D01*
X97647494Y95029928D01*
X100333842Y92343579D01*
X100257815Y92281185D01*
X100178463Y92184494D01*
X100119498Y92074180D01*
X100083188Y91954482D01*
X100070928Y91830000D01*
X100070928Y89830000D01*
X100083188Y89705518D01*
X100119498Y89585820D01*
X100178463Y89475506D01*
X100257815Y89378815D01*
X100354506Y89299463D01*
X100464820Y89240498D01*
X100584518Y89204188D01*
X100709000Y89191928D01*
X102209000Y89191928D01*
X102333482Y89204188D01*
X102453180Y89240498D01*
X102563494Y89299463D01*
X102660185Y89378815D01*
X102739537Y89475506D01*
X102798502Y89585820D01*
X102834812Y89705518D01*
X102847072Y89830000D01*
X102847072Y91830000D01*
X102834812Y91954482D01*
X102798502Y92074180D01*
X102739537Y92184494D01*
X102660185Y92281185D01*
X102563494Y92360537D01*
X102453180Y92419502D01*
X102346495Y92451865D01*
X102348281Y92470000D01*
X102344000Y92513469D01*
X102344000Y92513477D01*
X102331195Y92643490D01*
X102280589Y92810313D01*
X102198411Y92964059D01*
X102087817Y93098817D01*
X102054049Y93126530D01*
X98674072Y96506506D01*
X98674072Y96868000D01*
X98657008Y97041254D01*
X98606472Y97207850D01*
X98524405Y97361386D01*
X98413962Y97495962D01*
X98279386Y97606405D01*
X98125850Y97688472D01*
X97959254Y97739008D01*
X97786000Y97756072D01*
X97286000Y97756072D01*
X97112746Y97739008D01*
X96946150Y97688472D01*
X96792614Y97606405D01*
X96658038Y97495962D01*
X96547595Y97361386D01*
X96465528Y97207850D01*
X96414992Y97041254D01*
X96397928Y96868000D01*
X94107000Y96868000D01*
X94107000Y98933000D01*
X108585000Y98933000D01*
X108585000Y90424000D01*
%TA.AperFunction,Conductor*%
D35*
G36*
X108585000Y90424000D02*
G01*
X108587440Y90399224D01*
X108594667Y90375399D01*
X108606403Y90353443D01*
X108622197Y90334197D01*
X108641443Y90318403D01*
X108663399Y90306667D01*
X108687224Y90299440D01*
X108712000Y90297000D01*
X115697000Y90297000D01*
X115697000Y88869213D01*
X115631962Y88948462D01*
X115497387Y89058905D01*
X115343851Y89140972D01*
X115177255Y89191508D01*
X115004001Y89208572D01*
X114103999Y89208572D01*
X113930745Y89191508D01*
X113764149Y89140972D01*
X113610613Y89058905D01*
X113476038Y88948462D01*
X113432983Y88896000D01*
X111611017Y88896000D01*
X111567962Y88948462D01*
X111433387Y89058905D01*
X111279851Y89140972D01*
X111113255Y89191508D01*
X110940001Y89208572D01*
X110039999Y89208572D01*
X109866745Y89191508D01*
X109729911Y89150000D01*
X106930000Y89150000D01*
X106930000Y89203845D01*
X106933482Y89204188D01*
X107053180Y89240498D01*
X107163494Y89299463D01*
X107260185Y89378815D01*
X107339537Y89475506D01*
X107398502Y89585820D01*
X107434812Y89705518D01*
X107447072Y89830000D01*
X107447072Y91830000D01*
X107434812Y91954482D01*
X107398502Y92074180D01*
X107339537Y92184494D01*
X107260185Y92281185D01*
X107163494Y92360537D01*
X107053180Y92419502D01*
X106933482Y92455812D01*
X106809000Y92468072D01*
X105309000Y92468072D01*
X105184518Y92455812D01*
X105064820Y92419502D01*
X104954506Y92360537D01*
X104857815Y92281185D01*
X104778463Y92184494D01*
X104719498Y92074180D01*
X104683188Y91954482D01*
X104670928Y91830000D01*
X104670928Y89830000D01*
X104683188Y89705518D01*
X104719498Y89585820D01*
X104778463Y89475506D01*
X104857815Y89378815D01*
X104954506Y89299463D01*
X105064820Y89240498D01*
X105160000Y89211625D01*
X105160000Y88631579D01*
X103900422Y87372000D01*
X101489976Y87372000D01*
X101445405Y87455386D01*
X101334962Y87589962D01*
X101200386Y87700405D01*
X101046850Y87782472D01*
X100880254Y87833008D01*
X100707000Y87850072D01*
X100207000Y87850072D01*
X100033746Y87833008D01*
X99867150Y87782472D01*
X99713614Y87700405D01*
X99579038Y87589962D01*
X99468595Y87455386D01*
X99386528Y87301850D01*
X99335992Y87135254D01*
X99318928Y86962000D01*
X99318928Y86012000D01*
X99335992Y85838746D01*
X99386528Y85672150D01*
X99468595Y85518614D01*
X99572000Y85392614D01*
X99572001Y83616854D01*
X99546815Y83596185D01*
X99467463Y83499494D01*
X99408498Y83389180D01*
X99372188Y83269482D01*
X99359928Y83145000D01*
X99359928Y80645000D01*
X99372188Y80520518D01*
X99398714Y80433072D01*
X98098000Y80433072D01*
X97973518Y80420812D01*
X97853820Y80384502D01*
X97743506Y80325537D01*
X97646815Y80246185D01*
X97567463Y80149494D01*
X97508498Y80039180D01*
X97472188Y79919482D01*
X97459928Y79795000D01*
X97459928Y78795000D01*
X97472188Y78670518D01*
X97508498Y78550820D01*
X97567463Y78440506D01*
X97646815Y78343815D01*
X97706296Y78295000D01*
X97646815Y78246185D01*
X97567463Y78149494D01*
X97508498Y78039180D01*
X97472188Y77919482D01*
X97459928Y77795000D01*
X97459928Y76795000D01*
X97472188Y76670518D01*
X97508498Y76550820D01*
X97567463Y76440506D01*
X97646815Y76343815D01*
X97706296Y76295000D01*
X97646815Y76246185D01*
X97567463Y76149494D01*
X97508498Y76039180D01*
X97472188Y75919482D01*
X97459928Y75795000D01*
X97459928Y74795000D01*
X97472188Y74670518D01*
X97508498Y74550820D01*
X97567463Y74440506D01*
X97646815Y74343815D01*
X97706296Y74295000D01*
X97646815Y74246185D01*
X97567463Y74149494D01*
X97508498Y74039180D01*
X97472188Y73919482D01*
X97459928Y73795000D01*
X97459928Y72795000D01*
X97472188Y72670518D01*
X97508498Y72550820D01*
X97567463Y72440506D01*
X97646815Y72343815D01*
X97706296Y72295000D01*
X97646815Y72246185D01*
X97567463Y72149494D01*
X97508498Y72039180D01*
X97472188Y71919482D01*
X97459928Y71795000D01*
X97459928Y70795000D01*
X97472188Y70670518D01*
X97508498Y70550820D01*
X97567463Y70440506D01*
X97646815Y70343815D01*
X97706296Y70295000D01*
X97646815Y70246185D01*
X97567463Y70149494D01*
X97508498Y70039180D01*
X97472188Y69919482D01*
X97459928Y69795000D01*
X97459928Y68795000D01*
X97472188Y68670518D01*
X97508498Y68550820D01*
X97567463Y68440506D01*
X97646815Y68343815D01*
X97743506Y68264463D01*
X97853820Y68205498D01*
X97973518Y68169188D01*
X98098000Y68156928D01*
X99898000Y68156928D01*
X100022482Y68169188D01*
X100142180Y68205498D01*
X100252494Y68264463D01*
X100349185Y68343815D01*
X100428537Y68440506D01*
X100487502Y68550820D01*
X100523812Y68670518D01*
X100536072Y68795000D01*
X100536072Y69795000D01*
X100523812Y69919482D01*
X100487502Y70039180D01*
X100428537Y70149494D01*
X100349185Y70246185D01*
X100289704Y70295000D01*
X100349185Y70343815D01*
X100428537Y70440506D01*
X100487502Y70550820D01*
X100523812Y70670518D01*
X100536072Y70795000D01*
X100536072Y71795000D01*
X100523812Y71919482D01*
X100487502Y72039180D01*
X100428537Y72149494D01*
X100349185Y72246185D01*
X100289704Y72295000D01*
X100349185Y72343815D01*
X100428537Y72440506D01*
X100487502Y72550820D01*
X100523812Y72670518D01*
X100536072Y72795000D01*
X100536072Y73795000D01*
X100523812Y73919482D01*
X100487502Y74039180D01*
X100428537Y74149494D01*
X100349185Y74246185D01*
X100289704Y74295000D01*
X100349185Y74343815D01*
X100428537Y74440506D01*
X100487502Y74550820D01*
X100523812Y74670518D01*
X100536072Y74795000D01*
X100536072Y75795000D01*
X100523812Y75919482D01*
X100487502Y76039180D01*
X100428537Y76149494D01*
X100349185Y76246185D01*
X100289704Y76295000D01*
X100349185Y76343815D01*
X100428537Y76440506D01*
X100487502Y76550820D01*
X100523812Y76670518D01*
X100536072Y76795000D01*
X100536072Y77795000D01*
X100523812Y77919482D01*
X100487502Y78039180D01*
X100428537Y78149494D01*
X100349185Y78246185D01*
X100289704Y78295000D01*
X100349185Y78343815D01*
X100428537Y78440506D01*
X100487502Y78550820D01*
X100523812Y78670518D01*
X100536072Y78795000D01*
X100536072Y79795000D01*
X100523812Y79919482D01*
X100497286Y80006928D01*
X100998000Y80006928D01*
X101122482Y80019188D01*
X101242180Y80055498D01*
X101352494Y80114463D01*
X101449185Y80193815D01*
X101498000Y80253296D01*
X101546815Y80193815D01*
X101643506Y80114463D01*
X101753820Y80055498D01*
X101873518Y80019188D01*
X101998000Y80006928D01*
X102998000Y80006928D01*
X103122482Y80019188D01*
X103242180Y80055498D01*
X103352494Y80114463D01*
X103449185Y80193815D01*
X103498000Y80253296D01*
X103546815Y80193815D01*
X103613000Y80139498D01*
X103613001Y77686580D01*
X101481957Y75555535D01*
X101425102Y75544226D01*
X101236744Y75466205D01*
X101067226Y75352937D01*
X100923063Y75208774D01*
X100809795Y75039256D01*
X100731774Y74850898D01*
X100692000Y74650939D01*
X100692000Y74447061D01*
X100731774Y74247102D01*
X100809795Y74058744D01*
X100923063Y73889226D01*
X101067226Y73745063D01*
X101236744Y73631795D01*
X101425102Y73553774D01*
X101625061Y73514000D01*
X101828939Y73514000D01*
X102028898Y73553774D01*
X102217256Y73631795D01*
X102386774Y73745063D01*
X102530937Y73889226D01*
X102644205Y74058744D01*
X102722226Y74247102D01*
X102733535Y74303957D01*
X105093049Y76663470D01*
X105126817Y76691183D01*
X105237411Y76825941D01*
X105319589Y76979687D01*
X105370195Y77146510D01*
X105383000Y77276523D01*
X105383000Y77276531D01*
X105387281Y77320000D01*
X105383000Y77363469D01*
X105383000Y80139499D01*
X105449185Y80193815D01*
X105498000Y80253296D01*
X105546815Y80193815D01*
X105613000Y80139498D01*
X105613001Y76892580D01*
X101481957Y72761535D01*
X101425102Y72750226D01*
X101236744Y72672205D01*
X101067226Y72558937D01*
X100923063Y72414774D01*
X100809795Y72245256D01*
X100731774Y72056898D01*
X100692000Y71856939D01*
X100692000Y71653061D01*
X100731774Y71453102D01*
X100809795Y71264744D01*
X100923063Y71095226D01*
X101067226Y70951063D01*
X101236744Y70837795D01*
X101425102Y70759774D01*
X101625061Y70720000D01*
X101828939Y70720000D01*
X102028898Y70759774D01*
X102217256Y70837795D01*
X102386774Y70951063D01*
X102530937Y71095226D01*
X102644205Y71264744D01*
X102722226Y71453102D01*
X102733535Y71509957D01*
X107093049Y75869470D01*
X107126817Y75897183D01*
X107237411Y76031941D01*
X107319589Y76185687D01*
X107370195Y76352510D01*
X107383000Y76482523D01*
X107383000Y76482531D01*
X107387281Y76526000D01*
X107383000Y76569469D01*
X107383000Y80139499D01*
X107449185Y80193815D01*
X107498000Y80253296D01*
X107546815Y80193815D01*
X107643506Y80114463D01*
X107753820Y80055498D01*
X107873518Y80019188D01*
X107998000Y80006928D01*
X108998000Y80006928D01*
X109122482Y80019188D01*
X109242180Y80055498D01*
X109352494Y80114463D01*
X109449185Y80193815D01*
X109498000Y80253296D01*
X109546815Y80193815D01*
X109643506Y80114463D01*
X109753820Y80055498D01*
X109873518Y80019188D01*
X109998000Y80006928D01*
X110998000Y80006928D01*
X111122482Y80019188D01*
X111242180Y80055498D01*
X111352494Y80114463D01*
X111449185Y80193815D01*
X111498000Y80253296D01*
X111546815Y80193815D01*
X111643506Y80114463D01*
X111753820Y80055498D01*
X111873518Y80019188D01*
X111998000Y80006928D01*
X112998000Y80006928D01*
X113122482Y80019188D01*
X113242180Y80055498D01*
X113352494Y80114463D01*
X113449185Y80193815D01*
X113498000Y80253296D01*
X113546815Y80193815D01*
X113643506Y80114463D01*
X113753820Y80055498D01*
X113873518Y80019188D01*
X113998000Y80006928D01*
X114998000Y80006928D01*
X115122482Y80019188D01*
X115242180Y80055498D01*
X115352494Y80114463D01*
X115449185Y80193815D01*
X115528537Y80290506D01*
X115587502Y80400820D01*
X115623812Y80520518D01*
X115636072Y80645000D01*
X115636072Y83145000D01*
X115623812Y83269482D01*
X115587502Y83389180D01*
X115528537Y83499494D01*
X115449185Y83596185D01*
X115383000Y83650501D01*
X115383000Y85170954D01*
X115497387Y85232095D01*
X115631962Y85342538D01*
X115697000Y85421787D01*
X115697000Y58039000D01*
X96647000Y58039000D01*
X96647000Y62619501D01*
X98102928Y62619501D01*
X98102928Y62094499D01*
X98119992Y61921245D01*
X98170528Y61754649D01*
X98252595Y61601113D01*
X98363038Y61466538D01*
X98497613Y61356095D01*
X98651149Y61274028D01*
X98817745Y61223492D01*
X98990999Y61206428D01*
X99891001Y61206428D01*
X100064255Y61223492D01*
X100230851Y61274028D01*
X100384387Y61356095D01*
X100518962Y61466538D01*
X100629405Y61601113D01*
X100711472Y61754649D01*
X100762008Y61921245D01*
X100779072Y62094499D01*
X100779072Y62443494D01*
X103084050Y64748471D01*
X103117817Y64776183D01*
X103163263Y64831559D01*
X103242180Y64855498D01*
X103352494Y64914463D01*
X103449185Y64993815D01*
X103498000Y65053296D01*
X103546815Y64993815D01*
X103613001Y64939498D01*
X103613001Y63716580D01*
X103403993Y63507572D01*
X103054999Y63507572D01*
X102881745Y63490508D01*
X102715149Y63439972D01*
X102561613Y63357905D01*
X102427038Y63247462D01*
X102316595Y63112887D01*
X102234528Y62959351D01*
X102183992Y62792755D01*
X102166928Y62619501D01*
X102166928Y62094499D01*
X102183992Y61921245D01*
X102234528Y61754649D01*
X102316595Y61601113D01*
X102427038Y61466538D01*
X102453891Y61444500D01*
X102427038Y61422462D01*
X102316595Y61287887D01*
X102234528Y61134351D01*
X102183992Y60967755D01*
X102166928Y60794501D01*
X102166928Y60269499D01*
X102183992Y60096245D01*
X102234528Y59929649D01*
X102316595Y59776113D01*
X102427038Y59641538D01*
X102561613Y59531095D01*
X102715149Y59449028D01*
X102881745Y59398492D01*
X103054999Y59381428D01*
X103955001Y59381428D01*
X104128255Y59398492D01*
X104294851Y59449028D01*
X104448387Y59531095D01*
X104582962Y59641538D01*
X104587445Y59647000D01*
X106359555Y59647000D01*
X106364038Y59641538D01*
X106498613Y59531095D01*
X106652149Y59449028D01*
X106818745Y59398492D01*
X106991999Y59381428D01*
X107892001Y59381428D01*
X108065255Y59398492D01*
X108231851Y59449028D01*
X108385387Y59531095D01*
X108519962Y59641538D01*
X108630405Y59776113D01*
X108712472Y59929649D01*
X108763008Y60096245D01*
X108780072Y60269499D01*
X108780072Y60794501D01*
X108763008Y60967755D01*
X108712472Y61134351D01*
X108630405Y61287887D01*
X108519962Y61422462D01*
X108493109Y61444500D01*
X108519962Y61466538D01*
X108630405Y61601113D01*
X108712472Y61754649D01*
X108763008Y61921245D01*
X108780072Y62094499D01*
X108780072Y62619501D01*
X108763008Y62792755D01*
X108712472Y62959351D01*
X108630405Y63112887D01*
X108519962Y63247462D01*
X108385387Y63357905D01*
X108231851Y63439972D01*
X108065255Y63490508D01*
X107892001Y63507572D01*
X107543006Y63507572D01*
X107438000Y63612578D01*
X107438000Y64984636D01*
X107449185Y64993815D01*
X107498000Y65053296D01*
X107546815Y64993815D01*
X107643506Y64914463D01*
X107753820Y64855498D01*
X107873518Y64819188D01*
X107998000Y64806928D01*
X108998000Y64806928D01*
X109122482Y64819188D01*
X109242180Y64855498D01*
X109352494Y64914463D01*
X109449185Y64993815D01*
X109498000Y65053296D01*
X109546815Y64993815D01*
X109643506Y64914463D01*
X109753820Y64855498D01*
X109873518Y64819188D01*
X109998000Y64806928D01*
X110998000Y64806928D01*
X111122482Y64819188D01*
X111242180Y64855498D01*
X111352494Y64914463D01*
X111449185Y64993815D01*
X111498000Y65053296D01*
X111546815Y64993815D01*
X111643506Y64914463D01*
X111753820Y64855498D01*
X111873518Y64819188D01*
X111998000Y64806928D01*
X112998000Y64806928D01*
X113122482Y64819188D01*
X113242180Y64855498D01*
X113352494Y64914463D01*
X113449185Y64993815D01*
X113498000Y65053296D01*
X113546815Y64993815D01*
X113643506Y64914463D01*
X113753820Y64855498D01*
X113873518Y64819188D01*
X113998000Y64806928D01*
X114998000Y64806928D01*
X115122482Y64819188D01*
X115242180Y64855498D01*
X115352494Y64914463D01*
X115449185Y64993815D01*
X115528537Y65090506D01*
X115587502Y65200820D01*
X115623812Y65320518D01*
X115636072Y65445000D01*
X115636072Y67945000D01*
X115623812Y68069482D01*
X115587502Y68189180D01*
X115528537Y68299494D01*
X115449185Y68396185D01*
X115352494Y68475537D01*
X115242180Y68534502D01*
X115122482Y68570812D01*
X114998000Y68583072D01*
X113998000Y68583072D01*
X113873518Y68570812D01*
X113753820Y68534502D01*
X113643506Y68475537D01*
X113546815Y68396185D01*
X113498000Y68336704D01*
X113449185Y68396185D01*
X113352494Y68475537D01*
X113242180Y68534502D01*
X113122482Y68570812D01*
X112998000Y68583072D01*
X111998000Y68583072D01*
X111873518Y68570812D01*
X111753820Y68534502D01*
X111643506Y68475537D01*
X111546815Y68396185D01*
X111498000Y68336704D01*
X111449185Y68396185D01*
X111352494Y68475537D01*
X111242180Y68534502D01*
X111122482Y68570812D01*
X110998000Y68583072D01*
X109998000Y68583072D01*
X109873518Y68570812D01*
X109753820Y68534502D01*
X109643506Y68475537D01*
X109546815Y68396185D01*
X109498000Y68336704D01*
X109449185Y68396185D01*
X109352494Y68475537D01*
X109242180Y68534502D01*
X109122482Y68570812D01*
X108998000Y68583072D01*
X107998000Y68583072D01*
X107873518Y68570812D01*
X107753820Y68534502D01*
X107643506Y68475537D01*
X107546815Y68396185D01*
X107498000Y68336704D01*
X107449185Y68396185D01*
X107352494Y68475537D01*
X107242180Y68534502D01*
X107122482Y68570812D01*
X106998000Y68583072D01*
X105998000Y68583072D01*
X105873518Y68570812D01*
X105753820Y68534502D01*
X105643506Y68475537D01*
X105546815Y68396185D01*
X105498000Y68336704D01*
X105449185Y68396185D01*
X105352494Y68475537D01*
X105242180Y68534502D01*
X105122482Y68570812D01*
X104998000Y68583072D01*
X103998000Y68583072D01*
X103873518Y68570812D01*
X103753820Y68534502D01*
X103643506Y68475537D01*
X103546815Y68396185D01*
X103498000Y68336704D01*
X103449185Y68396185D01*
X103352494Y68475537D01*
X103242180Y68534502D01*
X103122482Y68570812D01*
X102998000Y68583072D01*
X101998000Y68583072D01*
X101873518Y68570812D01*
X101753820Y68534502D01*
X101643506Y68475537D01*
X101546815Y68396185D01*
X101467463Y68299494D01*
X101408498Y68189180D01*
X101372188Y68069482D01*
X101359928Y67945000D01*
X101359928Y65527507D01*
X99339994Y63507572D01*
X98990999Y63507572D01*
X98817745Y63490508D01*
X98651149Y63439972D01*
X98497613Y63357905D01*
X98363038Y63247462D01*
X98252595Y63112887D01*
X98170528Y62959351D01*
X98119992Y62792755D01*
X98102928Y62619501D01*
X96647000Y62619501D01*
X96647000Y93980000D01*
X96644560Y94004776D01*
X96637333Y94028601D01*
X96625597Y94050557D01*
X96609803Y94069803D01*
X96590557Y94085597D01*
X96568601Y94097333D01*
X96544776Y94104560D01*
X96520000Y94107000D01*
X94107000Y94107000D01*
X94107000Y96868000D01*
X96397928Y96868000D01*
X96397928Y95918000D01*
X96414992Y95744746D01*
X96465528Y95578150D01*
X96547595Y95424614D01*
X96658038Y95290038D01*
X96792614Y95179595D01*
X96946150Y95097528D01*
X97112746Y95046992D01*
X97286000Y95029928D01*
X97647494Y95029928D01*
X100333842Y92343579D01*
X100257815Y92281185D01*
X100178463Y92184494D01*
X100119498Y92074180D01*
X100083188Y91954482D01*
X100070928Y91830000D01*
X100070928Y89830000D01*
X100083188Y89705518D01*
X100119498Y89585820D01*
X100178463Y89475506D01*
X100257815Y89378815D01*
X100354506Y89299463D01*
X100464820Y89240498D01*
X100584518Y89204188D01*
X100709000Y89191928D01*
X102209000Y89191928D01*
X102333482Y89204188D01*
X102453180Y89240498D01*
X102563494Y89299463D01*
X102660185Y89378815D01*
X102739537Y89475506D01*
X102798502Y89585820D01*
X102834812Y89705518D01*
X102847072Y89830000D01*
X102847072Y91830000D01*
X102834812Y91954482D01*
X102798502Y92074180D01*
X102739537Y92184494D01*
X102660185Y92281185D01*
X102563494Y92360537D01*
X102453180Y92419502D01*
X102346495Y92451865D01*
X102348281Y92470000D01*
X102344000Y92513469D01*
X102344000Y92513477D01*
X102331195Y92643490D01*
X102280589Y92810313D01*
X102198411Y92964059D01*
X102087817Y93098817D01*
X102054049Y93126530D01*
X98674072Y96506506D01*
X98674072Y96868000D01*
X98657008Y97041254D01*
X98606472Y97207850D01*
X98524405Y97361386D01*
X98413962Y97495962D01*
X98279386Y97606405D01*
X98125850Y97688472D01*
X97959254Y97739008D01*
X97786000Y97756072D01*
X97286000Y97756072D01*
X97112746Y97739008D01*
X96946150Y97688472D01*
X96792614Y97606405D01*
X96658038Y97495962D01*
X96547595Y97361386D01*
X96465528Y97207850D01*
X96414992Y97041254D01*
X96397928Y96868000D01*
X94107000Y96868000D01*
X94107000Y98933000D01*
X108585000Y98933000D01*
X108585000Y90424000D01*
G37*
%TD.AperFunction*%
%TD*%
M02*
