M48
; DRILL file {KiCad (5.1.7)-1} date 12/23/20 12:43:20
; FORMAT={-:-/ absolute / metric / decimal}
; #@! TF.CreationDate,2020-12-23T12:43:20-08:00
; #@! TF.GenerationSoftware,Kicad,Pcbnew,(5.1.7)-1
FMAT,2
METRIC
T1C0.400
T2C0.760
T3C0.800
T4C1.200
T5C1.500
T6C1.800
T7C2.100
T8C2.500
%
G90
G05
T1
X24.425Y63.586
X27.686Y82.169
X29.972Y77.47
X29.972Y67.818
X32.004Y73.787
X33.401Y82.169
X34.036Y75.692
X34.798Y48.26
X37.973Y48.26
X41.021Y65.278
X41.656Y89.408
X44.577Y62.23
X44.577Y55.88
X46.672Y70.104
X46.672Y67.818
X47.688Y81.597
X51.562Y70.104
X51.562Y67.818
X53.594Y61.849
X53.594Y56.769
X54.356Y84.963
X57.785Y84.963
X58.674Y75.946
X64.956Y87.943
X90.361Y69.278
X93.472Y74.549
X93.472Y71.755
X100.457Y81.915
X101.459Y90.83
X101.727Y74.549
X101.727Y71.755
X103.505Y60.532
T2
X22.733Y48.387
X30.333Y48.387
X48.26Y45.212
X48.26Y40.132
X66.04Y45.212
T3
X22.733Y20.387
X37.933Y20.387
X66.04Y19.812
X66.04Y14.732
T4
X9.144Y57.277
X9.144Y29.777
X64.956Y62.103
X92.456Y62.103
X3.132Y10.414
X40.132Y10.414
T5
X5.08Y99.822
X10.53Y99.822
X15.98Y99.822
X24.638Y99.822
X30.088Y99.822
X35.538Y99.822
X63.754Y99.822
X69.204Y99.822
X74.654Y99.822
X83.991Y6.331
X86.741Y44.831
X94.741Y44.831
X94.741Y6.331
X44.196Y99.822
X49.646Y99.822
X55.096Y99.822
T6
X4.572Y76.327
X14.732Y76.327
T7
X103.695Y46.418
X103.695Y40.419
X51.912Y5.969
X57.912Y5.969
T8
X78.232Y91.059
X78.232Y78.059
T0
M30
