%TF.GenerationSoftware,KiCad,Pcbnew,(5.1.7)-1*%
%TF.CreationDate,2020-12-23T12:42:28-08:00*%
%TF.ProjectId,Sine_Dimmer,53696e65-5f44-4696-9d6d-65722e6b6963,1.0*%
%TF.SameCoordinates,PX544c140PY8fe2f60*%
%TF.FileFunction,Soldermask,Bot*%
%TF.FilePolarity,Negative*%
%FSLAX46Y46*%
G04 Gerber Fmt 4.6, Leading zero omitted, Abs format (unit mm)*
G04 Created by KiCad (PCBNEW (5.1.7)-1) date 2020-12-23 12:42:28*
%MOMM*%
%LPD*%
G01*
G04 APERTURE LIST*
%ADD10C,0.100000*%
%ADD11C,3.000000*%
%TA.AperFunction,Profile*%
%ADD12C,0.050000*%
%TD*%
%ADD13O,2.500000X4.500000*%
%ADD14R,2.500000X4.500000*%
%ADD15C,2.300000*%
%ADD16R,2.300000X2.000000*%
%ADD17R,3.000000X3.000000*%
%ADD18C,3.000000*%
%ADD19R,2.000000X2.300000*%
%ADD20C,5.000000*%
%ADD21C,3.600000*%
%ADD22C,3.100000*%
%ADD23C,2.400000*%
G04 APERTURE END LIST*
D10*
G36*
X31623000Y103378000D02*
G01*
X31623000Y99822000D01*
X28575000Y99822000D01*
X28575000Y104013000D01*
X31623000Y103378000D01*
G37*
X31623000Y103378000D02*
X31623000Y99822000D01*
X28575000Y99822000D01*
X28575000Y104013000D01*
X31623000Y103378000D01*
G36*
X32639000Y104394000D02*
G01*
X31623000Y103378000D01*
X28956000Y105029000D01*
X30988000Y107061000D01*
X32639000Y104394000D01*
G37*
X32639000Y104394000D02*
X31623000Y103378000D01*
X28956000Y105029000D01*
X30988000Y107061000D01*
X32639000Y104394000D01*
G36*
X46863000Y104394000D02*
G01*
X32639000Y104394000D01*
X32131000Y107442000D01*
X47498000Y107442000D01*
X46863000Y104394000D01*
G37*
X46863000Y104394000D02*
X32639000Y104394000D01*
X32131000Y107442000D01*
X47498000Y107442000D01*
X46863000Y104394000D01*
G36*
X50800000Y104775000D02*
G01*
X48133000Y103124000D01*
X46863000Y104394000D01*
X48514000Y107188000D01*
X50800000Y104775000D01*
G37*
X50800000Y104775000D02*
X48133000Y103124000D01*
X46863000Y104394000D01*
X48514000Y107188000D01*
X50800000Y104775000D01*
G36*
X51181000Y99822000D02*
G01*
X48133000Y99822000D01*
X48133000Y103124000D01*
X51181000Y103759000D01*
X51181000Y99822000D01*
G37*
X51181000Y99822000D02*
X48133000Y99822000D01*
X48133000Y103124000D01*
X51181000Y103759000D01*
X51181000Y99822000D01*
G36*
X56642000Y101219000D02*
G01*
X56642000Y99822000D01*
X53594000Y99822000D01*
X53594000Y101854000D01*
X56642000Y101219000D01*
G37*
X56642000Y101219000D02*
X56642000Y99822000D01*
X53594000Y99822000D01*
X53594000Y101854000D01*
X56642000Y101219000D01*
G36*
X59817000Y104394000D02*
G01*
X56642000Y101219000D01*
X53975000Y102870000D01*
X58039000Y106934000D01*
X59817000Y104394000D01*
G37*
X59817000Y104394000D02*
X56642000Y101219000D01*
X53975000Y102870000D01*
X58039000Y106934000D01*
X59817000Y104394000D01*
G36*
X72009000Y104394000D02*
G01*
X59817000Y104394000D01*
X59309000Y107442000D01*
X72644000Y107442000D01*
X72009000Y104394000D01*
G37*
X72009000Y104394000D02*
X59817000Y104394000D01*
X59309000Y107442000D01*
X72644000Y107442000D01*
X72009000Y104394000D01*
G36*
X75819000Y104902000D02*
G01*
X73152000Y103251000D01*
X72009000Y104394000D01*
X73787000Y106934000D01*
X75819000Y104902000D01*
G37*
X75819000Y104902000D02*
X73152000Y103251000D01*
X72009000Y104394000D01*
X73787000Y106934000D01*
X75819000Y104902000D01*
G36*
X76200000Y99822000D02*
G01*
X73152000Y99822000D01*
X73152000Y103251000D01*
X76200000Y103759000D01*
X76200000Y99822000D01*
G37*
X76200000Y99822000D02*
X73152000Y99822000D01*
X73152000Y103251000D01*
X76200000Y103759000D01*
X76200000Y99822000D01*
G36*
X56261000Y110490000D02*
G01*
X50673000Y104902000D01*
X48514000Y107061000D01*
X54483000Y113030000D01*
X56261000Y110490000D01*
G37*
X56261000Y110490000D02*
X50673000Y104902000D01*
X48514000Y107061000D01*
X54483000Y113030000D01*
X56261000Y110490000D01*
G36*
X75311000Y110490000D02*
G01*
X56261000Y110490000D01*
X55626000Y113538000D01*
X75946000Y113538000D01*
X75311000Y110490000D01*
G37*
X75311000Y110490000D02*
X56261000Y110490000D01*
X55626000Y113538000D01*
X75946000Y113538000D01*
X75311000Y110490000D01*
G36*
X82677000Y107442000D02*
G01*
X80137000Y105664000D01*
X75311000Y110490000D01*
X76835000Y113284000D01*
X82677000Y107442000D01*
G37*
X82677000Y107442000D02*
X80137000Y105664000D01*
X75311000Y110490000D01*
X76835000Y113284000D01*
X82677000Y107442000D01*
G36*
X83185000Y94488000D02*
G01*
X80137000Y95123000D01*
X80137000Y105664000D01*
X83185000Y106299000D01*
X83185000Y94488000D01*
G37*
X83185000Y94488000D02*
X80137000Y95123000D01*
X80137000Y105664000D01*
X83185000Y106299000D01*
X83185000Y94488000D01*
G36*
X82804000Y93472000D02*
G01*
X80645000Y91313000D01*
X78486000Y93472000D01*
X80137000Y95123000D01*
X82804000Y93472000D01*
G37*
X82804000Y93472000D02*
X80645000Y91313000D01*
X78486000Y93472000D01*
X80137000Y95123000D01*
X82804000Y93472000D01*
G36*
X70739000Y95377000D02*
G01*
X67691000Y96012000D01*
X67691000Y99949000D01*
X70739000Y99949000D01*
X70739000Y95377000D01*
G37*
X70739000Y95377000D02*
X67691000Y96012000D01*
X67691000Y99949000D01*
X70739000Y99949000D01*
X70739000Y95377000D01*
G36*
X70485000Y94488000D02*
G01*
X66548000Y90424000D01*
X63881000Y92202000D01*
X67691000Y96012000D01*
X70485000Y94488000D01*
G37*
X70485000Y94488000D02*
X66548000Y90424000D01*
X63881000Y92202000D01*
X67691000Y96012000D01*
X70485000Y94488000D01*
D11*
X69215000Y95377000D02*
G75*
G03*
X69215000Y95377000I0J0D01*
G01*
D10*
G36*
X12065000Y81153000D02*
G01*
X9017000Y80645000D01*
X9017000Y99822000D01*
X12065000Y99822000D01*
X12065000Y81153000D01*
G37*
X12065000Y81153000D02*
X9017000Y80645000D01*
X9017000Y99822000D01*
X12065000Y99822000D01*
X12065000Y81153000D01*
G36*
X13081000Y75946000D02*
G01*
X12573000Y75946000D01*
X12573000Y76708000D01*
X13081000Y76708000D01*
X13081000Y75946000D01*
G37*
X13081000Y75946000D02*
X12573000Y75946000D01*
X12573000Y76708000D01*
X13081000Y76708000D01*
X13081000Y75946000D01*
G36*
X15113000Y78105000D02*
G01*
X12573000Y76327000D01*
X9398000Y79502000D01*
X12065000Y81153000D01*
X15113000Y78105000D01*
G37*
X15113000Y78105000D02*
X12573000Y76327000D01*
X9398000Y79502000D01*
X12065000Y81153000D01*
X15113000Y78105000D01*
G36*
X66446400Y90474800D02*
G01*
X66446400Y62128400D01*
X63449200Y62788800D01*
X63449200Y91084400D01*
X66446400Y90474800D01*
G37*
X66446400Y90474800D02*
X66446400Y62128400D01*
X63449200Y62788800D01*
X63449200Y91084400D01*
X66446400Y90474800D01*
G36*
X93218000Y63500000D02*
G01*
X90932000Y61468000D01*
X76327000Y76073000D01*
X80137000Y76581000D01*
X93218000Y63500000D01*
G37*
X93218000Y63500000D02*
X90932000Y61468000D01*
X76327000Y76073000D01*
X80137000Y76581000D01*
X93218000Y63500000D01*
G36*
X15113000Y74549000D02*
G01*
X10668000Y70104000D01*
X8001000Y71755000D01*
X12573000Y76327000D01*
X15113000Y74549000D01*
G37*
X15113000Y74549000D02*
X10668000Y70104000D01*
X8001000Y71755000D01*
X12573000Y76327000D01*
X15113000Y74549000D01*
G36*
X10668000Y70104000D02*
G01*
X10668000Y57277000D01*
X7620000Y57277000D01*
X7620000Y70739000D01*
X10668000Y70104000D01*
G37*
X10668000Y70104000D02*
X10668000Y57277000D01*
X7620000Y57277000D01*
X7620000Y70739000D01*
X10668000Y70104000D01*
G36*
X66090800Y61112400D02*
G01*
X59486800Y54508400D01*
X56946800Y56235600D01*
X63449200Y62738000D01*
X66090800Y61112400D01*
G37*
X66090800Y61112400D02*
X59486800Y54508400D01*
X56946800Y56235600D01*
X63449200Y62738000D01*
X66090800Y61112400D01*
G36*
X93980000Y58293000D02*
G01*
X90932000Y57785000D01*
X90932000Y61468000D01*
X93980000Y62230000D01*
X93980000Y58293000D01*
G37*
X93980000Y58293000D02*
X90932000Y57785000D01*
X90932000Y61468000D01*
X93980000Y62230000D01*
X93980000Y58293000D01*
G36*
X104648000Y47625000D02*
G01*
X102489000Y45466000D01*
X91313000Y56642000D01*
X93980000Y58293000D01*
X104648000Y47625000D01*
G37*
X104648000Y47625000D02*
X102489000Y45466000D01*
X91313000Y56642000D01*
X93980000Y58293000D01*
X104648000Y47625000D01*
G36*
X104648000Y38989000D02*
G01*
X94361000Y28702000D01*
X92710000Y31369000D01*
X102235000Y40894000D01*
X104648000Y38989000D01*
G37*
X104648000Y38989000D02*
X94361000Y28702000D01*
X92710000Y31369000D01*
X102235000Y40894000D01*
X104648000Y38989000D01*
G36*
X93345000Y28321000D02*
G01*
X9144000Y28194000D01*
X9144000Y31242000D01*
X92710000Y31369000D01*
X93345000Y28321000D01*
G37*
X93345000Y28321000D02*
X9144000Y28194000D01*
X9144000Y31242000D01*
X92710000Y31369000D01*
X93345000Y28321000D01*
G36*
X59436000Y54483000D02*
G01*
X59436000Y7366000D01*
X56388000Y7366000D01*
X56388000Y55118000D01*
X59436000Y54483000D01*
G37*
X59436000Y54483000D02*
X59436000Y7366000D01*
X56388000Y7366000D01*
X56388000Y55118000D01*
X59436000Y54483000D01*
G36*
X4978400Y74574400D02*
G01*
X4622800Y74269600D01*
X2133600Y76047600D01*
X2946400Y76860400D01*
X4978400Y74574400D01*
G37*
X4978400Y74574400D02*
X4622800Y74269600D01*
X2133600Y76047600D01*
X2946400Y76860400D01*
X4978400Y74574400D01*
G36*
X4622800Y74269600D02*
G01*
X4622800Y10414000D01*
X1625600Y10414000D01*
X1625600Y74828400D01*
X4622800Y74269600D01*
G37*
X4622800Y74269600D02*
X4622800Y10414000D01*
X1625600Y10414000D01*
X1625600Y74828400D01*
X4622800Y74269600D01*
G36*
X46863000Y8890000D02*
G01*
X40132000Y8890000D01*
X40132000Y11938000D01*
X47371000Y11938000D01*
X46863000Y8890000D01*
G37*
X46863000Y8890000D02*
X40132000Y8890000D01*
X40132000Y11938000D01*
X47371000Y11938000D01*
X46863000Y8890000D01*
G36*
X52705000Y7366000D02*
G01*
X50546000Y5207000D01*
X46863000Y8890000D01*
X48768000Y11303000D01*
X52705000Y7366000D01*
G37*
X52705000Y7366000D02*
X50546000Y5207000D01*
X46863000Y8890000D01*
X48768000Y11303000D01*
X52705000Y7366000D01*
D11*
X30099000Y99822000D02*
G75*
G03*
X30099000Y99822000I0J0D01*
G01*
X30099000Y104013000D02*
G75*
G03*
X30099000Y104013000I0J0D01*
G01*
X32004000Y105918000D02*
G75*
G03*
X32004000Y105918000I0J0D01*
G01*
X47498000Y105918000D02*
G75*
G03*
X47498000Y105918000I0J0D01*
G01*
X49657000Y103759000D02*
G75*
G03*
X49657000Y103759000I0J0D01*
G01*
X49657000Y99822000D02*
G75*
G03*
X49657000Y99822000I0J0D01*
G01*
X55118000Y99822000D02*
G75*
G03*
X55118000Y99822000I0J0D01*
G01*
X55118000Y101854000D02*
G75*
G03*
X55118000Y101854000I0J0D01*
G01*
X59182000Y105918000D02*
G75*
G03*
X59182000Y105918000I0J0D01*
G01*
X72644000Y105918000D02*
G75*
G03*
X72644000Y105918000I0J0D01*
G01*
X74676000Y103886000D02*
G75*
G03*
X74676000Y103886000I0J0D01*
G01*
X74676000Y99822000D02*
G75*
G03*
X74676000Y99822000I0J0D01*
G01*
X55626000Y112014000D02*
G75*
G03*
X55626000Y112014000I0J0D01*
G01*
X75946000Y112014000D02*
G75*
G03*
X75946000Y112014000I0J0D01*
G01*
X81661000Y106299000D02*
G75*
G03*
X81661000Y106299000I0J0D01*
G01*
X81661000Y94488000D02*
G75*
G03*
X81661000Y94488000I0J0D01*
G01*
X69215000Y99949000D02*
G75*
G03*
X69215000Y99949000I0J0D01*
G01*
X10541000Y99822000D02*
G75*
G03*
X10541000Y99822000I0J0D01*
G01*
X10541000Y80518000D02*
G75*
G03*
X10541000Y80518000I0J0D01*
G01*
X9144000Y70739000D02*
G75*
G03*
X9144000Y70739000I0J0D01*
G01*
X92456000Y62230000D02*
G75*
G03*
X92456000Y62230000I0J0D01*
G01*
X64973200Y91135200D02*
G75*
G03*
X64973200Y91135200I0J0D01*
G01*
X64947800Y62103000D02*
G75*
G03*
X64947800Y62103000I0J0D01*
G01*
X92456000Y57658000D02*
G75*
G03*
X92456000Y57658000I0J0D01*
G01*
X57912000Y55118000D02*
G75*
G03*
X57912000Y55118000I0J0D01*
G01*
X9144000Y57277000D02*
G75*
G03*
X9144000Y57277000I0J0D01*
G01*
X93345000Y29845000D02*
G75*
G03*
X93345000Y29845000I0J0D01*
G01*
X9144000Y29718000D02*
G75*
G03*
X9144000Y29718000I0J0D01*
G01*
X3149600Y74930000D02*
G75*
G03*
X3149600Y74930000I0J0D01*
G01*
X3124200Y10414000D02*
G75*
G03*
X3124200Y10414000I0J0D01*
G01*
X47498000Y10414000D02*
G75*
G03*
X47498000Y10414000I0J0D01*
G01*
X40132000Y10414000D02*
G75*
G03*
X40132000Y10414000I0J0D01*
G01*
D12*
X0Y0D02*
X0Y115824000D01*
X108712000Y0D02*
X0Y0D01*
X108712000Y53848000D02*
X108712000Y0D01*
X108712000Y115824000D02*
X108712000Y103124000D01*
X0Y115824000D02*
X108712000Y115824000D01*
X123444000Y53848000D02*
X108712000Y53848000D01*
X123444000Y103124000D02*
X123444000Y53848000D01*
X108712000Y103124000D02*
X123444000Y103124000D01*
D13*
%TO.C,Q4*%
X74654000Y99822000D03*
X69204000Y99822000D03*
D14*
X63754000Y99822000D03*
%TD*%
D13*
%TO.C,Q3*%
X55096000Y99822000D03*
X49646000Y99822000D03*
D14*
X44196000Y99822000D03*
%TD*%
D13*
%TO.C,Q2*%
X35538000Y99822000D03*
X30088000Y99822000D03*
D14*
X24638000Y99822000D03*
%TD*%
D13*
%TO.C,Q1*%
X15980000Y99822000D03*
X10530000Y99822000D03*
D14*
X5080000Y99822000D03*
%TD*%
D15*
%TO.C,PS3*%
X48260000Y40132000D03*
X48260000Y45212000D03*
X66040000Y19812000D03*
D16*
X66040000Y14732000D03*
D15*
X66040000Y45212000D03*
%TD*%
D17*
%TO.C,PS2*%
X83991000Y6331000D03*
D18*
X86741000Y44831000D03*
X94741000Y6331000D03*
X94741000Y44831000D03*
%TD*%
D15*
%TO.C,PS1*%
X30333000Y48387000D03*
X37933000Y20387000D03*
D19*
X22733000Y20387000D03*
D15*
X22733000Y48387000D03*
%TD*%
D20*
%TO.C,L2*%
X78232000Y91059000D03*
X78232000Y78059000D03*
%TD*%
D21*
%TO.C,L1*%
X14732000Y76327000D03*
X4572000Y76327000D03*
%TD*%
D22*
%TO.C,J2*%
X103695500Y46418500D03*
G36*
G01*
X104995501Y38868500D02*
X102395499Y38868500D01*
G75*
G02*
X102145500Y39118499I0J249999D01*
G01*
X102145500Y41718501D01*
G75*
G02*
X102395499Y41968500I249999J0D01*
G01*
X104995501Y41968500D01*
G75*
G02*
X105245500Y41718501I0J-249999D01*
G01*
X105245500Y39118499D01*
G75*
G02*
X104995501Y38868500I-249999J0D01*
G01*
G37*
%TD*%
%TO.C,J1*%
X51912000Y5969000D03*
G36*
G01*
X59462000Y7269001D02*
X59462000Y4668999D01*
G75*
G02*
X59212001Y4419000I-249999J0D01*
G01*
X56611999Y4419000D01*
G75*
G02*
X56362000Y4668999I0J249999D01*
G01*
X56362000Y7269001D01*
G75*
G02*
X56611999Y7519000I249999J0D01*
G01*
X59212001Y7519000D01*
G75*
G02*
X59462000Y7269001I0J-249999D01*
G01*
G37*
%TD*%
D23*
%TO.C,F1*%
X40132000Y10414000D03*
X3132000Y10414000D03*
%TD*%
%TO.C,C13*%
X64956000Y62103000D03*
X92456000Y62103000D03*
%TD*%
%TO.C,C2*%
X9144000Y29777000D03*
X9144000Y57277000D03*
%TD*%
M02*
